<svg id="Layer_1" data-name="Layer 1" xmlns="http://www.w3.org/2000/svg" viewBox="0 0 60 60"><defs><style>.cls-1{fill:#2c8aca;}</style></defs><title>icons-blue</title><path class="cls-1" d="M26.46,26.44a8.62,8.62,0,1,0-8.61-8.61A8.62,8.62,0,0,0,26.46,26.44Zm.07-14.7a6,6,0,1,1-6,6A6,6,0,0,1,26.53,11.74Z"/><path class="cls-1" d="M40.28,54.61A12.45,12.45,0,1,1,52.73,42.16,12.47,12.47,0,0,1,40.28,54.61Zm0-23.32A10.87,10.87,0,1,0,51.15,42.16,10.88,10.88,0,0,0,40.28,31.29Z"/><path class="cls-1" d="M46.78,41.37h-5.7V35.83a.79.79,0,0,0-.8-.79.79.79,0,0,0-.79.79v5.54h-5.7a.79.79,0,1,0,0,1.58h5.7v5.54a.79.79,0,0,0,.79.79.79.79,0,0,0,.8-.79V43h5.7a.79.79,0,0,0,0-1.58Z"/><path class="cls-1" d="M36.67,31.23a17.36,17.36,0,0,0-10.21-3.32A17.7,17.7,0,0,0,8.89,44.62a1.22,1.22,0,0,0,2.43,0h0a15.27,15.27,0,0,1,15.14-14,15,15,0,0,1,7.68,2.12A15.42,15.42,0,0,1,36.67,31.23Z"/></svg>