<svg id="Layer_1" data-name="Layer 1" xmlns="http://www.w3.org/2000/svg" viewBox="0 0 512 512"><title>MASTER-</title><g id="Symbol_1430_1" data-name="Symbol 1430 1"><g id="Group_2148" data-name="Group 2148"><g id="Group_2080" data-name="Group 2080"><path id="Path_6518" data-name="Path 6518" d="M360.3,130.06a13.94,13.94,0,0,1-13.39-14.48V15.42H58.44V496.58H453.55V130.06Z" style="fill:none"/><path id="Path_6519" data-name="Path 6519" d="M465,111,367.81,4.94a15.16,15.16,0,0,0-7-4.32L360.3.1a6.36,6.36,0,0,0-1.44.11A20.08,20.08,0,0,0,356.41,0h-298A15.41,15.41,0,0,0,43,15.38v481.2A15.4,15.4,0,0,0,58.41,512H453.55A15.4,15.4,0,0,0,469,496.62V121.42A14.66,14.66,0,0,0,465,111ZM453.65,496.58H58.44V15.42H346.83V115.56a14,14,0,0,0,13.39,14.5h93.33V496.58Z" style="fill:#1f8bd5"/></g><path id="Path_6520" data-name="Path 6520" d="M334,419.57h35.26l-3,39.58h35.27l5.85-20.53H395.67l4.47-104.15H360.5L297,438.93l-55.62-.3s-6.38,14.18-8.43,20.53h79.17Zm41.12-71.86-4.46,55.72H342.83Z" style="fill:#1f8bd5"/><g id="Group_2082" data-name="Group 2082"><g id="Group_2081" data-name="Group 2081"><path id="Path_6521" data-name="Path 6521" d="M95.16,154.94A4.11,4.11,0,0,1,91,150.83V124a4.11,4.11,0,0,1,4.12-4.12H122a4.11,4.11,0,0,1,4.12,4.12v26.83a4.11,4.11,0,0,1-4.12,4.11Z" style="fill:#fff"/><path id="Path_6522" data-name="Path 6522" d="M122,124v26.84H95.15V124H122m0-8.23H95.15A8.26,8.26,0,0,0,86.92,124v26.84a8.26,8.26,0,0,0,8.23,8.22H122a8.26,8.26,0,0,0,8.22-8.22V124A8.26,8.26,0,0,0,122,115.76Z" style="fill:#1f8bd5"/></g><path id="Path_6523" data-name="Path 6523" d="M311.57,148.66H167.21a8.92,8.92,0,0,1-8.93-8.92V135.9a8.93,8.93,0,0,1,8.93-8.93H311.56a8.93,8.93,0,0,1,8.93,8.93v3.8A9.09,9.09,0,0,1,311.57,148.66Z" style="fill:#1f8bd5"/></g><g id="Group_2084" data-name="Group 2084"><g id="Group_2083" data-name="Group 2083"><path id="Path_6524" data-name="Path 6524" d="M95.16,229.07A4.11,4.11,0,0,1,91,225V198.13A4.13,4.13,0,0,1,95.16,194H122a4.13,4.13,0,0,1,4.12,4.12V225a4.11,4.11,0,0,1-4.12,4.11Z" style="fill:#fff"/><path id="Path_6525" data-name="Path 6525" d="M122,198.12V225H95.15V198.12H122m0-8.22H95.15a8.25,8.25,0,0,0-8.23,8.22V225a8.26,8.26,0,0,0,8.23,8.22H122a8.26,8.26,0,0,0,8.22-8.22V198.12A8.25,8.25,0,0,0,122,189.9Z" style="fill:#1f8bd5"/></g><path id="Path_6526" data-name="Path 6526" d="M311.57,222.8H167.21a8.93,8.93,0,0,1-8.93-8.93V210a8.93,8.93,0,0,1,8.93-8.93H311.56a8.93,8.93,0,0,1,8.93,8.93v3.8A9.1,9.1,0,0,1,311.57,222.8Z" style="fill:#1f8bd5"/></g><g id="Group_2086" data-name="Group 2086"><g id="Group_2085" data-name="Group 2085"><path id="Path_6527" data-name="Path 6527" d="M95.16,301A4.11,4.11,0,0,1,91,296.93V270.1A4.13,4.13,0,0,1,95.16,266H122a4.13,4.13,0,0,1,4.12,4.12v26.83A4.11,4.11,0,0,1,122,301Z" style="fill:#fff"/><path id="Path_6528" data-name="Path 6528" d="M122,270.09v26.83H95.15V270.09H122m0-8.22H95.15a8.25,8.25,0,0,0-8.23,8.22v26.83a8.25,8.25,0,0,0,8.23,8.22H122a8.25,8.25,0,0,0,8.22-8.22V270.09a8.19,8.19,0,0,0-8.15-8.22Z" style="fill:#1f8bd5"/></g><path id="Path_6529" data-name="Path 6529" d="M311.57,294.77H167.21a8.93,8.93,0,0,1-8.93-8.93V282a8.93,8.93,0,0,1,8.93-8.93H311.56a8.93,8.93,0,0,1,8.93,8.93v3.8A9.1,9.1,0,0,1,311.57,294.77Z" style="fill:#1f8bd5"/></g><g id="Group_2088" data-name="Group 2088"><g id="Group_2087" data-name="Group 2087"><path id="Path_6530" data-name="Path 6530" d="M95.16,376.19A4.11,4.11,0,0,1,91,372.08V345.25a4.13,4.13,0,0,1,4.12-4.12H122a4.13,4.13,0,0,1,4.12,4.12v26.83a4.11,4.11,0,0,1-4.12,4.11Z" style="fill:#fff"/><path id="Path_6531" data-name="Path 6531" d="M122,345.24v26.83H95.15V345.24H122m0-8.23H95.15a8.26,8.26,0,0,0-8.23,8.23v26.83a8.25,8.25,0,0,0,8.23,8.22H122a8.25,8.25,0,0,0,8.22-8.22V345.24A8.26,8.26,0,0,0,122,337Z" style="fill:#1f8bd5"/></g><path id="Path_6532" data-name="Path 6532" d="M278.88,369.92H167.21a8.93,8.93,0,0,1-8.93-8.93v-3.84a8.93,8.93,0,0,1,8.93-8.93H279a8.93,8.93,0,0,1,8.93,8.93V361A9.11,9.11,0,0,1,278.88,369.92Z" style="fill:#1f8bd5"/></g></g></g></svg>