<svg id="Layer_1" data-name="Layer 1" xmlns="http://www.w3.org/2000/svg" viewBox="0 0 60 60"><defs><style>.cls-1{fill:#fff;}</style></defs><title>icons_v2-white</title><path class="cls-1" d="M45.41,39.54H16.85a8.87,8.87,0,1,1,0-17.73c.21,0,.41,0,.62,0a18.67,18.67,0,0,0-.73,5.49,1,1,0,0,0,1,.95h0a1,1,0,0,0,1-1,16.77,16.77,0,0,1,1-5.89,13.1,13.1,0,0,1,25.18,4.74,1,1,0,0,0,.92.95,6.23,6.23,0,0,1-.34,12.46Zm1.32-14.31a15,15,0,0,0-28.56-5.29,11.69,11.69,0,0,0-1.32-.08,10.82,10.82,0,0,0,0,21.63H45.41a8.18,8.18,0,0,0,1.32-16.26Z"/></svg>