<svg xmlns="http://www.w3.org/2000/svg" viewBox="3317.39 298 17.949 17.157">
  <defs>
    <style>
      .cls-1 {
        fill: #fccb26;
      }
    </style>
  </defs>
  <g id="Group_2790" data-name="Group 2790" transform="translate(2549 -73)">
    <path id="pando_starfilled_icon" class="cls-1" d="M19.886,12.4l2.287,5.411,5.841.5a.472.472,0,0,1,.272.815l-4.437,3.849L25.183,28.7a.457.457,0,0,1-.679.5l-5.049-3.056L14.429,29.18a.461.461,0,0,1-.679-.5l1.336-5.728-4.437-3.849a.466.466,0,0,1,.272-.815l5.841-.5,2.287-5.411a.453.453,0,0,1,.838.023Zm0,0" transform="translate(757.903 358.888)"/>
  </g>
</svg>
