<?xml version="1.0" encoding="utf-8"?>
<!-- Generator: Adobe Illustrator 21.1.0, SVG Export Plug-In . SVG Version: 6.00 Build 0)  -->
<svg version="1.1" id="Layer_1" xmlns="http://www.w3.org/2000/svg" xmlns:xlink="http://www.w3.org/1999/xlink" x="0px" y="0px"
	 viewBox="0 0 360.8 349.7" style="enable-background:new 0 0 360.8 349.7;" xml:space="preserve">
<style type="text/css">
	.st0{fill:#FFFFFF;}
</style>
<g id="Group_3827" transform="translate(3828.318 18873)">
	<g id="Group_3021" transform="translate(-3808.925 -18873)">
		<path id="Path_7064" class="st0" d="M304.5,61.3c-1.3-1.2-3-1.9-4.7-1.9h-98.2v-2c0-3.8-3.1-6.9-6.9-6.9h-37.8
			C137.5,10.9,89.6-5.5,50,13.9S-6,81.1,13.4,120.7s67.2,56,106.8,36.6c15.9-7.8,28.8-20.7,36.6-36.6h40c3.8,0,6.9-3.1,6.9-6.9V107
			h2.6l9.9,9.9c2.7,2.7,7,2.7,9.7,0l0,0l7.7-7.7l7.2,6.2c2.5,2.2,6.2,2.3,8.8,0.1l11.2-8.9l13.1,8c2.6,1.6,6,1.3,8.2-0.8l8.6-8.1
			l7.7,5.4c2.7,1.9,6.5,1.6,8.8-0.8l13.1-13.1c1.3-1.3,2.1-3,2-4.9V81.2c0-1.9-0.8-3.7-2.2-5L304.5,61.3z M308.6,89.5l-7,7l-7.6-5.3
			c-2.7-1.9-6.3-1.6-8.6,0.7l-8.9,8.4l-12.7-7.7c-2.5-1.5-5.6-1.3-7.8,0.5l-10.4,8.4l-7.6-6.6c-2.7-2.4-6.8-2.3-9.3,0.3l-7.4,7.4
			l-7-7c-1.3-1.3-3-2.1-4.9-2H197c-3.8,0-6.9,3.1-6.9,6.9v6.6h-37.6c-2.8,0-5.3,1.7-6.3,4.2c-14.2,33.7-53,49.5-86.7,35.4
			C25.8,132.5,10,93.7,24.1,60s53-49.5,86.7-35.4c16,6.7,28.6,19.4,35.4,35.4c1.1,2.6,3.6,4.2,6.3,4.2h35.4v2c0,3.8,3.1,6.9,6.9,6.9
			h102.3L308.6,84V89.5z"/>
		<path id="Path_7065" class="st0" d="M53.9,57.9c-15.3,0-27.7,12.4-27.7,27.7s12.4,27.7,27.7,27.7s27.7-12.4,27.7-27.7
			C81.6,70.3,69.2,57.9,53.9,57.9z M53.9,99.7c-7.8,0-14.1-6.3-14.1-14.1s6.3-14.1,14.1-14.1s14,6.3,14.1,14
			C67.9,93.4,61.7,99.6,53.9,99.7z"/>
	</g>
	<path class="st0" d="M-3476.6-18669.4c-3.4-4.4-8.8-6.4-14.3-5.6c-4.9-3.4-12.3-5-22.1,1.7c-8.8,5.7-16.2,12.2-23.4,18.5
		c-8.3,7.3-16.1,14.1-25,18.7l-3.4,1.7c-2.3-1.1-5-2.1-7.8-2.7c-4.1-0.8-8.3-1.6-12.7-2.4c-6.6-1.2-13.5-2.4-20.6-4h-0.1
		c-15.5-3.1-30.6-8.1-45-14.8c-37.6-17.7-73.7-14.3-101.5,9.4l-0.3,0.2c-7.4,6.2-11.1,9.3-19.8,13.1l-0.9,0.4l-3.6-8.3l-45.3,14.4
		l44,100l41.2-23.8l-3.8-8.5l17.6-7.7c7.2-3.1,19.1-6,34.7-1.6l49,14c9.6,2.8,18.3,4.2,26.2,4.2c9.2,0,17.2-1.9,24.2-5.7l51.7-27.5
		c2.9-1.5,5.4-2.9,7.7-4c10.9-5.6,17-8.7,26.2-21.7l26.3-36.7C-3472.5-18655.3-3472.2-18663.6-3476.6-18669.4z M-3773-18545.6
		l-33.6-76.3l23.1-7.3l31.5,71.6L-3773-18545.6z M-3486.9-18655l-26.3,36.7c-7.6,10.7-11.5,12.7-22,18.1c-2.3,1.2-4.9,2.5-7.9,4.1
		l-51.7,27.5c-10.3,5.5-23.9,5.7-41.7,0.6l-49-14c-6.8-1.9-13.1-2.7-18.8-2.7c-9.9,0-18,2.3-23.7,4.8l-11.8,5.2l-23.3-52.7
		c7.1-3.6,11.4-7.2,17.7-12.5l0.3-0.3c24.1-20.6,55.8-23.3,89.1-7.7c15.1,7.1,31.1,12.3,47.5,15.6c7.3,1.7,14.3,2.9,21,4.1
		c4.3,0.8,8.5,1.5,12.4,2.3c5.5,1.2,8.8,3.8,9.3,5.1c0.4,1,0.6,2.2-0.8,3.9c-3.3,4-11.6,6.4-16.2,5.6l-23.7-4l-20.9-3.5
		c-14-2.4-26.7-1.3-37.8,3.3c-4.8,2-7.1,7.3-5.2,12c1.8,4.4,6.5,6.4,11,4.6l0.2-0.1c8.3-3.6,18-4.4,28.9-2.5l44.4,7.5
		c11.5,1.9,25.5-3.1,32.8-11.7c5.2-6.2,6.6-13.8,3.9-21.4v-0.1c-0.3-0.8-0.6-1.5-1-2.3c7.6-4.8,14.4-10.7,21.4-16.9
		c6.9-6,14-12.2,22.1-17.5l0.1-0.1c6.5-4.4,8.8-2.3,10.2-0.8l2.6,2.5l3.4-1.2c1.9-0.7,3.6-0.4,4.6,0.8
		C-3484.8-18661.1-3484.5-18658.3-3486.9-18655z"/>
</g>
</svg>
