<svg id="Layer_1" data-name="Layer 1" xmlns="http://www.w3.org/2000/svg" viewBox="0 0 60 60"><defs><style>.cls-1{fill:#2c8aca;}</style></defs><title>icons-blue</title><path class="cls-1" d="M45.61,26.53a7.59,7.59,0,0,0-1.27.11c-.75-6.89-6.28-12.25-13-12.25s-12.5,5.59-13,12.7a.67.67,0,0,1-1,.44,7.64,7.64,0,0,0-3.84-1,8.61,8.61,0,0,0-8.36,8.84,8.7,8.7,0,0,0,7,8.71,4.57,4.57,0,0,0,1.05.13H46.57C52.29,43.76,54,38.8,54,35.37A8.61,8.61,0,0,0,45.61,26.53Zm2.28,15.52a6.93,6.93,0,0,1-2.8.6h-30A6.21,6.21,0,0,1,14,42.53c-3.48-.56-6.52-2.91-6.83-6.4-.36-4,2.24-7.63,6.29-7.63a11.45,11.45,0,0,1,5.14,1.58.85.85,0,0,0,1.28-.65c.61-6,3.77-12.59,11.13-12.88,7.54-.3,10.74,6,11.64,11.5a1.05,1.05,0,0,0,1.16.87c.51-.06,1.06-.11,1.26-.11,4,0,6.66,3.37,6.66,7.42C51.69,39.08,50.26,40.83,47.89,42.05Z"/><polygon class="cls-1" points="37.46 29.61 31.08 22.86 24.33 29.61 28.27 29.61 28.27 43.19 33.53 43.19 33.53 29.61 37.46 29.61"/></svg>