<svg id="Layer_1" data-name="Layer 1" xmlns="http://www.w3.org/2000/svg" xmlns:xlink="http://www.w3.org/1999/xlink" viewBox="0 0 60 60"><defs><style>.cls-1{fill:none;}.cls-2{clip-path:url(#clip-path);}.cls-3{fill:#bdc0c2;}</style><clipPath id="clip-path"><rect class="cls-1" x="6.78" y="10.42" width="44.17" height="40.6"/></clipPath></defs><title>icons_v2-grey</title><g class="cls-2"><path class="cls-3" d="M50.58,10.66a.93.93,0,0,0-1-.14L7.83,28.83a1.71,1.71,0,0,0-1,1.73A1.88,1.88,0,0,0,8,32.26l12.22,4v11a2.2,2.2,0,0,0,1.61,2.15,2.32,2.32,0,0,0,2.6-.87l5.13-7.41,10.85,9.33a1.76,1.76,0,0,0,1.19.41,2.15,2.15,0,0,0,.59-.09,1.73,1.73,0,0,0,1.19-1.37L50.9,11.57a1.18,1.18,0,0,0-.32-.91ZM28.65,39.21,22.93,47.5a.43.43,0,0,1-.55.18.41.41,0,0,1-.32-.41V35.64a.85.85,0,0,0-.64-.86L8.56,30.47,45.72,14.23,27.42,29.28A.9.9,0,0,0,28,30.89a.82.82,0,0,0,.59-.23l15.88-13Zm13,9.84-11-9.42,17.58-24Zm0,0"/></g><path class="cls-3" d="M25,31.3l-1.47,1.19a.9.9,0,0,0,.6,1.6,1,1,0,0,0,.59-.18l1.47-1.19a.89.89,0,0,0,.13-1.29A1,1,0,0,0,25,31.3Zm0,0"/></svg>