<svg id="Layer_1" data-name="Layer 1" xmlns="http://www.w3.org/2000/svg" viewBox="0 0 60 60"><defs><style>.cls-1{fill:#2c8aca;}</style></defs><title>icons-blue</title><path class="cls-1" d="M47.41,34.17l-17-17L30,16.75c-.43-.44-.87-.89-1.35-1.3a7.64,7.64,0,0,0-4.91-1.92h0a8.11,8.11,0,0,0-8.29,6.91,7.59,7.59,0,0,0,2.17,6.74c3.61,3.65,7.31,7.34,10.89,10.91l3.63,3.63a1.5,1.5,0,0,0,1.38.43,1.27,1.27,0,0,0,.9-.87,1.33,1.33,0,0,0-.41-1.4l-3.19-3.19L27.08,33q-3.66-3.67-7.35-7.34A5.51,5.51,0,0,1,18,21.49a5.35,5.35,0,0,1,1.66-3.8,5.45,5.45,0,0,1,3.88-1.52,5.36,5.36,0,0,1,3.83,1.67l6,6Q39.5,30,45.61,36.08a3.68,3.68,0,0,1,1.08,3.09A3.42,3.42,0,0,1,45,41.72a3.58,3.58,0,0,1-4.33-.57Q34.51,35,28.36,28.85a1.61,1.61,0,0,1-.21-2.12,1.59,1.59,0,0,1,2-.49,2.71,2.71,0,0,1,.59.47l8.12,8.13a1.46,1.46,0,0,0,1.2.53,1.27,1.27,0,0,0,1.11-.85,1.24,1.24,0,0,0-.3-1.37c-.4-.42-.81-.83-1.22-1.24L37.08,29.3c-1.53-1.53-3.06-3.07-4.6-4.59a4.28,4.28,0,0,0-4-1.15,4.17,4.17,0,0,0-3,2.78,4.12,4.12,0,0,0,1.09,4.4q2.63,2.64,5.27,5.26l6.94,7a6.18,6.18,0,0,0,4.48,1.9l.59,0a6.18,6.18,0,0,0,3.59-10.66Z"/></svg>