<svg id="Layer_1" data-name="Layer 1" xmlns="http://www.w3.org/2000/svg" viewBox="0 0 60 60"><defs><style>.cls-1{fill:#fff;}</style></defs><title>icons_v2-white</title><path class="cls-1" d="M49.21,33.51A1.7,1.7,0,0,0,47,33.33a1.25,1.25,0,0,0-.22,1.92c.18.19,4.28,4.69.18,9.26a1.26,1.26,0,0,0,.26,1.92,1.64,1.64,0,0,0,1,.29,1.67,1.67,0,0,0,1.23-.52C54,41.14,51.27,35.68,49.21,33.51Z"/><path class="cls-1" d="M10.24,44.51c-4.09-4.56,0-9.06.18-9.26a1.25,1.25,0,0,0-.21-1.92A1.69,1.69,0,0,0,8,33.51C6,35.68,3.25,41.14,7.8,46.2a1.71,1.71,0,0,0,2.18.23A1.25,1.25,0,0,0,10.24,44.51Z"/><path class="cls-1" d="M32.32,44.65c-.56,2.48-1.75,3.65-3.64,3.62s-3.09-1.22-3.58-3.65c-.26,0-.55,0-.83,0a45,45,0,0,1-8.67-.93,19.42,19.42,0,0,1-2.76-.92,4.06,4.06,0,0,1-1.2-.82,2.25,2.25,0,0,1,0-3.37c1.51-1.49,3-3,4.56-4.42s1.6-3.36,1.69-5.55c.09-2,.07-4,.19-5.93a26.4,26.4,0,0,1,.54-4.26c.71-3.1,3.66-4.85,6.73-5.48l.82-.16.08-.06a2.64,2.64,0,0,1,1.07-3.25,2.6,2.6,0,0,1,3,.07,2.77,2.77,0,0,1,.93,3.21l1.37.3c3.27.81,6,3,6.46,6.24.25,1.62.28,3.27.37,4.91s.12,3.45.25,5.17,0,3.18,1.21,4.38c1.64,1.57,3.24,3.18,4.87,4.76a2.29,2.29,0,0,1-.15,3.63,8.29,8.29,0,0,1-3.42,1.47,38.68,38.68,0,0,1-7.11.93C34.15,44.58,33.24,44.61,32.32,44.65ZM28.46,43c3-.15,5.83-.25,8.63-.43a22.4,22.4,0,0,0,5.62-1,8.09,8.09,0,0,0,1.67-.82c.52-.35.5-.61.06-1l-4.95-4.86c-1.48-1.44-1.42-3.21-1.59-5.24-.16-1.87-.17-3.76-.27-5.63-.09-1.5-.13-3-.35-4.5C36.91,17,34.6,15.26,32,14.71a15.19,15.19,0,0,0-6.84.07c-2.11.51-4.36,1.85-4.86,4a16.4,16.4,0,0,0-.42,2.88c-.11,2.12-.12,4.23-.18,6.35-.08,3.07-.21,5.68-2.6,7.74-1.48,1.27-2.81,2.71-4.2,4.07-.33.33-.37.6,0,.88a6.62,6.62,0,0,0,1.52.84,18.24,18.24,0,0,0,5.06,1C22.57,42.73,25.63,42.86,28.46,43ZM27,44.71a1.74,1.74,0,1,0,3.48,0Zm1.76-33.89a.89.89,0,1,0,0,1.77.89.89,0,0,0,0-1.77Z"/></svg>