<?xml version="1.0" encoding="utf-8"?>
<!-- Generator: Adobe Illustrator 21.1.0, SVG Export Plug-In . SVG Version: 6.00 Build 0)  -->
<svg version="1.1" xmlns="http://www.w3.org/2000/svg" xmlns:xlink="http://www.w3.org/1999/xlink" x="0px" y="0px"
	 viewBox="0 0 60 60" style="enable-background:new 0 0 60 60;" xml:space="preserve">
<style type="text/css">
	.st0{fill:#2C8ACA;}
	.st1{display:none;}
	.st2{display:inline;}
	.st3{fill:#7A8084;}
</style>
<g id="Layer_1">
	<g>
		<title>icons-blue</title>
		<path class="st0" d="M50.6,34.9c-0.6-0.6-1.5-0.7-2.2-0.2c-0.6,0.4-0.7,1.1-0.4,1.7c0,0.1,0.1,0.1,0.2,0.2
			c0.2,0.2,4.3,4.7,0.2,9.3c-0.5,0.5-0.4,1.3,0.1,1.8c0.1,0.1,0.1,0.1,0.2,0.1c0.3,0.2,0.6,0.3,1,0.3c0.5,0,0.9-0.2,1.2-0.5
			C55.4,42.5,52.6,37,50.6,34.9z"/>
		<path class="st0" d="M11.6,45.9c-4.1-4.6,0-9.1,0.2-9.3c0.5-0.5,0.5-1.3,0-1.8c-0.1-0.1-0.1-0.1-0.2-0.2c-0.7-0.5-1.6-0.4-2.2,0.2
			c-2,2.2-4.8,7.6-0.2,12.7c0.6,0.6,1.5,0.7,2.2,0.2c0.6-0.4,0.8-1.1,0.4-1.7C11.7,46,11.7,45.9,11.6,45.9z"/>
		<path class="st0" d="M33.7,46c-0.6,2.5-1.8,3.7-3.6,3.6S27,48.4,26.5,46c-0.3,0-0.5,0-0.8,0c-2.9,0-5.8-0.3-8.7-0.9
			c-0.9-0.2-1.9-0.5-2.8-0.9c-0.4-0.2-0.9-0.5-1.2-0.8c-0.9-0.8-1-2.2-0.2-3.2c0.1-0.1,0.1-0.1,0.2-0.2c1.5-1.5,3-3,4.6-4.4
			c1.6-1.4,1.6-3.4,1.7-5.5c0.1-2,0.1-4,0.2-5.9c0.1-1.4,0.2-2.9,0.5-4.3c0.7-3.1,3.7-4.9,6.7-5.5l0.8-0.2l0.1-0.1
			c-0.5-1.2,0-2.6,1.1-3.2c0.9-0.6,2.1-0.6,3,0.1c1,0.7,1.4,2.1,0.9,3.2l1.4,0.3c3.3,0.8,6,3,6.5,6.2c0.2,1.6,0.3,3.3,0.4,4.9
			s0.1,3.5,0.2,5.2c0.1,1.7,0,3.2,1.2,4.4c1.6,1.6,3.2,3.2,4.9,4.8c1,0.8,1.1,2.3,0.3,3.2c-0.1,0.2-0.3,0.3-0.4,0.4
			c-1,0.7-2.2,1.2-3.4,1.5c-2.3,0.5-4.7,0.8-7.1,0.9C35.5,45.9,34.6,46,33.7,46z M29.8,44.4c3-0.2,5.8-0.2,8.6-0.4
			c1.9-0.1,3.8-0.4,5.6-1c0.6-0.2,1.1-0.5,1.7-0.8c0.5-0.3,0.5-0.6,0.1-1l-5-4.9c-1.5-1.4-1.4-3.2-1.6-5.2c-0.2-1.9-0.2-3.8-0.3-5.6
			c-0.1-1.5-0.1-3-0.3-4.5c-0.4-2.5-2.7-4.3-5.3-4.8c-2.3-0.5-4.6-0.5-6.8,0.1c-2.1,0.5-4.4,1.9-4.9,4c-0.2,0.9-0.4,1.9-0.4,2.9
			c-0.1,2.1-0.1,4.2-0.2,6.4c-0.1,3.1-0.2,5.7-2.6,7.7c-1.5,1.3-2.8,2.7-4.2,4.1c-0.3,0.3-0.4,0.6,0,0.9c0.5,0.3,1,0.6,1.5,0.8
			c1.6,0.6,3.3,0.9,5.1,1C23.9,44.1,27,44.2,29.8,44.4z M28.4,46.1c0,1,0.8,1.7,1.7,1.7c1,0,1.7-0.8,1.7-1.7c0,0,0,0,0,0H28.4z
			 M30.1,12.2c-0.5-0.1-0.9,0.3-1,0.8c-0.1,0.5,0.3,0.9,0.8,1c0.1,0,0.1,0,0.2,0c0.5-0.1,0.8-0.5,0.8-1
			C30.9,12.5,30.6,12.2,30.1,12.2z"/>
	</g>
</g>
<g id="Layer_2" class="st1">
	<g id="Layer_2_1_" class="st2">
		<g id="Layer_1-2">
			<path class="st3" d="M50.6,34.9c-0.6-0.6-1.5-0.7-2.2-0.2c-0.6,0.4-0.7,1.2-0.4,1.7c0,0.1,0.1,0.1,0.1,0.2
				c0.2,0.2,4.3,4.7,0.2,9.2c-0.5,0.5-0.4,1.3,0.1,1.8c0.1,0.1,0.1,0.1,0.2,0.1c0.3,0.2,0.6,0.3,1,0.3c0.5,0,0.9-0.2,1.2-0.5
				C55.4,42.5,52.7,37,50.6,34.9z"/>
			<path class="st3" d="M11.6,34.7c-0.7-0.5-1.6-0.4-2.2,0.2C7.3,37,4.6,42.5,9.2,47.6c0.3,0.3,0.8,0.5,1.2,0.5c0.4,0,0.7-0.1,1-0.3
				c0.6-0.4,0.8-1.1,0.4-1.7c0-0.1-0.1-0.1-0.1-0.2c-4.1-4.6,0-9,0.2-9.2c0.5-0.5,0.5-1.3,0-1.8C11.7,34.8,11.7,34.7,11.6,34.7z"/>
			<path class="st3" d="M42.2,35.1c-1.3-1.2-1.1-2.7-1.2-4.4s-0.2-3.5-0.2-5.2s-0.1-3.3-0.4-4.9c-0.5-3.3-3.2-5.4-6.5-6.3
				c-0.5-0.1-0.9-0.2-1.4-0.3c0.4-1.1,0.1-2.4-0.9-3.2c-0.9-0.7-2.1-0.7-3-0.1c-1.1,0.7-1.6,2-1.1,3.2c0,0,0,0.1-0.1,0.1l-0.8,0.2
				c-3.1,0.6-6,2.4-6.7,5.5c-0.3,1.4-0.5,2.8-0.5,4.3c-0.1,2-0.1,4-0.2,5.9c-0.1,2.2,0,4-1.7,5.5s-3,2.9-4.5,4.4
				c-0.9,0.8-1,2.2-0.2,3.2c0.1,0.1,0.1,0.1,0.2,0.2c0.3,0.3,0.8,0.6,1.2,0.8c0.9,0.4,1.8,0.7,2.8,0.9c2.9,0.6,5.8,0.9,8.7,0.9
				c0.3,0,0.6,0,0.8,0c0.5,2.4,1.7,3.6,3.6,3.7s3.1-1.1,3.7-3.6c0.9,0,1.8-0.1,2.7-0.1c2.4-0.1,4.8-0.4,7.1-0.9
				c1.2-0.2,2.4-0.7,3.4-1.5c1-0.7,1.3-2.2,0.6-3.2c-0.1-0.2-0.3-0.3-0.4-0.4C45.5,38.3,43.9,36.7,42.2,35.1z M30.1,12.2
				c0.5,0,0.9,0.4,0.9,0.9c0,0.5-0.4,0.9-0.9,0.9c-0.5,0-0.9-0.4-0.9-0.9C29.2,12.6,29.6,12.2,30.1,12.2
				C30.1,12.2,30.1,12.2,30.1,12.2z M30.1,47.8c-0.9,0-1.7-0.7-1.8-1.6c0,0,0-0.1,0-0.1h3.5C31.9,47,31.1,47.8,30.1,47.8
				C30.2,47.8,30.1,47.8,30.1,47.8L30.1,47.8z M45.7,42.1c-0.5,0.3-1.1,0.6-1.7,0.8c-1.8,0.6-3.7,0.9-5.6,1
				c-2.8,0.2-5.6,0.3-8.6,0.4c-2.8-0.2-5.9-0.3-9-0.5c-1.7-0.1-3.4-0.4-5.1-1c-0.5-0.2-1.1-0.5-1.5-0.8c-0.4-0.3-0.3-0.5,0-0.9
				c1.4-1.4,2.8-2.8,4.2-4.1c2.4-2.1,2.5-4.7,2.6-7.7c0.1-2.1,0.1-4.2,0.2-6.4c0.1-1,0.2-1.9,0.4-2.9c0.5-2.1,2.8-3.5,4.9-4
				c2.2-0.5,4.6-0.6,6.8-0.1c2.6,0.5,4.9,2.2,5.3,4.8c0.2,1.5,0.3,3,0.3,4.5c0.1,1.9,0.1,3.8,0.3,5.6c0.2,2,0.1,3.8,1.6,5.2
				c1.7,1.6,3.3,3.2,5,4.9C46.3,41.5,46.3,41.8,45.7,42.1L45.7,42.1z"/>
		</g>
	</g>
</g>
<g id="Layer_3" class="st1">
	<g id="Layer_2_2_" class="st2">
		<g id="Layer_1-2_1_">
			<path class="st3" d="M42.2,34.9c-1.3-1.2-1.1-2.7-1.2-4.4c-0.1-1.7-0.1-3.5-0.2-5.2c-0.1-1.7-0.1-3.3-0.4-4.9
				c-0.5-3.2-3.2-5.4-6.5-6.2c-0.5-0.1-0.9-0.2-1.4-0.3c0.5-1.2,0.1-2.5-0.9-3.2c-0.9-0.7-2.1-0.7-3-0.1c-1.1,0.7-1.5,2.1-1.1,3.2
				c0,0-0.1,0.1-0.1,0.1l-0.8,0.2c-1.8,0.3-3.4,1.1-4.8,2.3l-5.2-7.3c-0.3-0.4-0.9-0.5-1.4-0.2l0,0c-0.4,0.3-0.5,0.9-0.2,1.3
				l5.6,7.8c-0.3,0.5-0.5,1.1-0.7,1.6c-0.3,1.4-0.5,2.8-0.5,4.3c-0.1,2-0.1,4-0.2,5.9c-0.1,2.2,0,4-1.7,5.6
				c-1.7,1.5-3.1,2.9-4.6,4.4c-0.9,0.8-1,2.2-0.2,3.2c0.1,0.1,0.1,0.1,0.2,0.2c0.3,0.3,0.8,0.6,1.2,0.8c0.9,0.4,1.8,0.7,2.8,0.9
				c2.9,0.6,5.8,0.9,8.7,0.9c0.3,0,0.6,0,0.8,0c0.5,2.4,1.7,3.6,3.6,3.7s3.1-1.1,3.6-3.6c0.9,0,1.8-0.1,2.7-0.1
				c1.3-0.1,2.6-0.2,3.9-0.3l5.2,7.2c0.4,0.3,1.1,0.2,1.4-0.2c0.2-0.3,0.3-0.6,0.2-0.9L42.3,45c0.4-0.1,0.8-0.1,1.1-0.2
				c1.2-0.2,2.4-0.7,3.4-1.5c1-0.7,1.3-2.1,0.6-3.2c-0.1-0.2-0.2-0.3-0.4-0.4C45.4,38.1,43.8,36.5,42.2,34.9z M30,12
				c0.5,0,0.9,0.4,0.9,0.9c0,0.5-0.4,0.9-0.9,0.9c-0.5,0-0.9-0.4-0.9-0.9C29.1,12.4,29.5,12,30,12C30,12,30,12,30,12z M30,47.6
				c-0.9,0-1.7-0.7-1.8-1.6c0,0,0-0.1,0-0.1h3.5c0,0.9-0.7,1.7-1.6,1.8C30.1,47.7,30.1,47.7,30,47.6L30,47.6z M38.4,43.8
				c-2.8,0.2-5.6,0.3-8.6,0.4c-2.8-0.2-5.9-0.3-9-0.5c-1.7-0.1-3.4-0.4-5.1-1c-0.5-0.2-1.1-0.5-1.5-0.8c-0.4-0.3-0.3-0.5,0-0.9
				c1.4-1.4,2.7-2.8,4.2-4.1c2.4-2.1,2.5-4.7,2.6-7.7c0.1-2.1,0.1-4.2,0.2-6.4c0.1-1,0.2-1.9,0.4-2.9c0-0.1,0.1-0.2,0.1-0.3L39,43.7
				L38.4,43.8z M45.7,41.9c-0.5,0.3-1.1,0.6-1.7,0.8c-0.9,0.3-1.8,0.5-2.8,0.7L22.8,17.8c1-0.9,2.3-1.6,3.6-1.9
				c2.2-0.5,4.6-0.6,6.8-0.1c2.6,0.6,4.9,2.3,5.3,4.8c0.2,1.5,0.3,3,0.3,4.5c0.1,1.9,0.1,3.8,0.3,5.6c0.2,2,0.1,3.8,1.6,5.3
				c1.7,1.6,3.3,3.2,5,4.9C46.2,41.3,46.2,41.6,45.7,41.9L45.7,41.9z"/>
		</g>
	</g>
</g>
<g id="Layer_4" class="st1">
	<g id="Layer_2_3_" class="st2">
		<g id="Layer_1-2_2_">
			<path class="st0" d="M46.9,43.4c1-0.7,1.3-2.2,0.6-3.2c-0.1-0.2-0.3-0.3-0.4-0.4c-1.6-1.6-3.2-3.2-4.9-4.8
				c-1.3-1.2-1.1-2.7-1.2-4.4c-0.1-1.7-0.2-3.5-0.2-5.2c-0.1-1.7-0.1-3.3-0.4-4.9c-0.5-3.2-3.2-5.4-6.5-6.2
				c-0.5-0.1-0.9-0.2-1.4-0.3c0.5-1.2,0.1-2.5-0.9-3.2c-0.9-0.7-2.1-0.7-3-0.1c-1.1,0.7-1.5,2.1-1.1,3.3c0,0-0.1,0.1-0.1,0.1
				l-0.8,0.2c-1.8,0.3-3.4,1.1-4.8,2.3l-5.2-7.3c-0.2-0.5-0.7-0.8-1.3-0.6s-0.8,0.7-0.6,1.3c0.1,0.2,0.2,0.4,0.3,0.5l5.6,7.8
				c-0.3,0.5-0.5,1.1-0.7,1.6c-0.3,1.4-0.5,2.8-0.5,4.3c-0.1,2-0.1,4-0.2,5.9c-0.1,2.2,0,4-1.7,5.5c-1.7,1.5-3.1,2.9-4.6,4.4
				c-0.9,0.8-1,2.2-0.2,3.2c0.1,0.1,0.1,0.1,0.2,0.2c0.3,0.3,0.8,0.6,1.2,0.8c0.9,0.4,1.8,0.7,2.8,0.9c2.9,0.6,5.8,0.9,8.7,0.9
				c0.3,0,0.6,0,0.8,0c0.5,2.4,1.7,3.6,3.6,3.7s3.1-1.1,3.6-3.6c0.9,0,1.8-0.1,2.7-0.1c1.3-0.1,2.6-0.2,3.9-0.3l5.2,7.2
				c0.4,0.3,1.1,0.2,1.4-0.2c0.2-0.3,0.3-0.6,0.2-0.9l-4.7-6.5c0.4-0.1,0.8-0.1,1.1-0.2C44.7,44.7,45.9,44.2,46.9,43.4z M30,12.1
				c0.5,0,0.9,0.4,0.9,0.9c0,0.5-0.4,0.9-0.9,0.9c-0.5,0-0.9-0.4-0.9-0.9C29.1,12.5,29.5,12.1,30,12.1C30,12.1,30,12.1,30,12.1z
				 M30,47.8c-0.9,0-1.7-0.7-1.8-1.6c0,0,0-0.1,0-0.1h3.5c0,0.9-0.7,1.7-1.6,1.8C30.1,47.8,30.1,47.8,30,47.8L30,47.8z M38.4,43.9
				c-2.8,0.2-5.6,0.3-8.6,0.4c-2.8-0.2-5.9-0.3-9-0.5c-1.7-0.1-3.4-0.4-5.1-1c-0.5-0.2-1.1-0.5-1.5-0.8c-0.4-0.3-0.3-0.5,0-0.9
				c1.4-1.4,2.7-2.8,4.2-4.1c2.4-2.1,2.5-4.7,2.6-7.7c0.1-2.1,0.1-4.2,0.2-6.4c0.1-1,0.2-1.9,0.4-2.9c0-0.1,0.1-0.2,0.1-0.3L39,43.8
				L38.4,43.9z M22.8,18c1-0.9,2.3-1.6,3.6-1.9c2.2-0.5,4.6-0.6,6.8-0.1c2.6,0.6,4.9,2.2,5.3,4.8c0.2,1.5,0.3,3,0.3,4.5
				c0.1,1.9,0.1,3.8,0.3,5.6c0.2,2,0.1,3.8,1.6,5.2c1.7,1.6,3.3,3.2,5,4.9c0.4,0.4,0.5,0.7-0.1,1c-0.5,0.3-1.1,0.6-1.7,0.8
				c-0.9,0.3-1.8,0.5-2.8,0.7L22.8,18z"/>
		</g>
	</g>
</g>
<g id="Layer_5" class="st1">
	<g id="Layer_2_4_" class="st2">
		<g id="Layer_1-2_3_">
			<path class="st3" d="M51,30.5c-1-1.8-2.5-3.3-4.3-4.2c-2-1-4.1-1.5-6.3-1.5c-1.4,0-2.8,0.2-4.2,0.5c0-0.6,0-1.3-0.1-1.9
				c-0.1-1.6-0.1-3.3-0.4-4.9c-0.5-3.2-3.2-5.4-6.5-6.2c-0.5-0.1-0.9-0.2-1.4-0.3c0.4-1.1,0.1-2.5-0.9-3.2c-0.9-0.7-2.1-0.7-3-0.1
				c-1.1,0.7-1.5,2.1-1.1,3.2c0,0-0.1,0-0.1,0.1l-0.8,0.2c-3.1,0.6-6,2.4-6.7,5.5c-0.3,1.4-0.5,2.8-0.5,4.3c-0.1,2-0.1,4-0.2,5.9
				c-0.1,2.2,0,4-1.7,5.5c-1.7,1.5-3,2.9-4.5,4.4c-0.9,0.8-1,2.2-0.2,3.2c0.1,0.1,0.1,0.1,0.2,0.2C8.6,41.6,9,41.8,9.5,42
				c0.9,0.4,1.8,0.7,2.8,0.9c2.9,0.6,5.8,0.9,8.7,0.9c0.3,0,0.6,0,0.8,0c0.5,2.4,1.7,3.6,3.6,3.7c1,0,1.9-0.4,2.5-1.1
				c0.5,0.7,1,1.4,1.6,2c2.3,2.2,5.4,3.3,9.5,3.3c2.6,0,5.1-0.4,7.5-1.4v-2.6c-2.4,0.9-5,1.4-7.6,1.5c-3.2,0-5.6-0.9-7.3-2.6
				c-1.7-1.7-2.5-4.1-2.5-7.3c0-2.2,0.4-4.3,1.4-6.2c0.9-1.7,2.2-3.2,4-4.1c1.9-1,4-1.5,6.1-1.5c1.7,0,3.4,0.4,4.9,1.1
				c1.4,0.7,2.5,1.9,3.3,3.3c0.8,1.5,1.2,3.2,1.2,4.9c0.1,1.5-0.2,2.9-0.8,4.3c-0.5,1.1-1.2,1.7-2.1,1.7c-1.1,0-1.7-0.9-1.7-2.6
				v-0.4l0.4-7.6c-0.9-0.3-1.8-0.5-2.7-0.6c-0.9-0.1-1.9-0.2-2.8-0.2c-2-0.1-4,0.6-5.5,2.1c-1.4,1.5-2.1,3.5-2,5.5
				c-0.1,1.7,0.5,3.4,1.5,4.7c1.1,1.2,2.6,1.8,4.2,1.7c0.9,0,1.8-0.2,2.7-0.6c0.8-0.5,1.5-1.1,2-1.9h0.2c0.2,0.8,0.6,1.4,1.3,1.9
				c0.7,0.5,1.4,0.7,2.2,0.7c1.1,0,2.2-0.4,3.1-1.1c0.9-0.8,1.7-1.8,2.1-3c0.5-1.4,0.7-2.8,0.7-4.3C52.6,34.6,52.1,32.5,51,30.5z
				 M25.4,10.1c0.5,0,0.9,0.4,0.9,0.9c0,0.5-0.4,0.9-0.9,0.9c-0.5,0-0.9-0.4-0.9-0.9C24.5,10.5,24.9,10.1,25.4,10.1
				C25.4,10.1,25.4,10.1,25.4,10.1z M25.4,45.7c-0.9,0-1.7-0.7-1.8-1.6c0,0,0-0.1,0-0.1h3.1c0.1,0.2,0.1,0.5,0.2,0.7
				C26.7,45.3,26.1,45.7,25.4,45.7L25.4,45.7z M33,26.6c-2.2,1.2-3.9,3-5.1,5.1c-1.2,2.3-1.9,4.9-1.8,7.6c0,1.2,0.1,2.5,0.4,3.7
				c-0.1-0.2-0.2-0.5-0.2-0.8l-1.1,0.1c-2.8-0.2-5.9-0.3-9-0.5c-1.7-0.1-3.4-0.4-5.1-1c-0.5-0.2-1.1-0.5-1.5-0.8
				c-0.4-0.3-0.3-0.5,0-0.9c1.4-1.4,2.7-2.8,4.2-4.1c2.4-2.1,2.6-4.7,2.6-7.7c0.1-2.1,0.1-4.2,0.2-6.4c0.1-1,0.2-1.9,0.4-2.9
				c0.5-2.1,2.8-3.5,4.9-4c2.2-0.5,4.6-0.6,6.8-0.1c2.6,0.6,4.9,2.2,5.3,4.8c0.2,1.5,0.3,3,0.3,4.5c0,0.9,0.1,1.8,0.1,2.7
				C33.9,26.1,33.4,26.4,33,26.6L33,26.6z M42.1,37.9c-0.2,3.2-1.4,4.8-3.5,4.8c-2,0-3-1.3-3-3.8c-0.1-1.4,0.3-2.7,1.2-3.8
				c0.8-1,2-1.5,3.3-1.4c0.7,0,1.5,0.1,2.2,0.3L42.1,37.9z"/>
		</g>
	</g>
</g>
<g id="Layer_6" class="st1">
	<g id="Layer_2_5_" class="st2">
		<g id="Layer_1-2_4_">
			<path class="st0" d="M51,30.5c-1-1.8-2.5-3.3-4.3-4.2c-2-1-4.1-1.5-6.3-1.5c-1.4,0-2.8,0.2-4.2,0.5c0-0.6,0-1.3-0.1-1.9
				c-0.1-1.6-0.1-3.3-0.4-4.9c-0.5-3.2-3.2-5.4-6.5-6.2c-0.5-0.1-0.9-0.2-1.4-0.3c0.4-1.1,0.1-2.5-0.9-3.2c-0.9-0.7-2.1-0.7-3-0.1
				c-1.1,0.7-1.5,2.1-1.1,3.2c0,0-0.1,0-0.1,0.1l-0.8,0.2c-3.1,0.6-6,2.4-6.7,5.5c-0.3,1.4-0.5,2.8-0.5,4.3c-0.1,2-0.1,4-0.2,5.9
				c-0.1,2.2,0,4-1.7,5.5c-1.7,1.5-3,2.9-4.5,4.4c-0.9,0.8-1,2.2-0.2,3.2c0.1,0.1,0.1,0.1,0.2,0.2C8.6,41.6,9,41.8,9.5,42
				c0.9,0.4,1.8,0.7,2.8,0.9c2.9,0.6,5.8,0.9,8.7,0.9c0.3,0,0.6,0,0.8,0c0.5,2.4,1.7,3.6,3.6,3.7c1,0,1.9-0.4,2.5-1.1
				c0.5,0.7,1,1.4,1.6,2c2.3,2.2,5.4,3.3,9.5,3.3c2.6,0,5.1-0.4,7.5-1.4v-2.6c-2.4,0.9-5,1.4-7.6,1.5c-3.2,0-5.6-0.9-7.3-2.6
				c-1.7-1.7-2.5-4.1-2.5-7.3c0-2.2,0.4-4.3,1.4-6.2c0.9-1.7,2.2-3.2,4-4.1c1.9-1,4-1.5,6.1-1.5c1.7,0,3.4,0.4,4.9,1.1
				c1.4,0.7,2.5,1.9,3.3,3.3c0.8,1.5,1.2,3.2,1.2,4.9c0.1,1.5-0.2,2.9-0.8,4.3c-0.5,1.1-1.2,1.7-2.1,1.7c-1.1,0-1.7-0.9-1.7-2.6
				v-0.4l0.4-7.6c-0.9-0.3-1.8-0.5-2.7-0.6c-0.9-0.1-1.9-0.2-2.8-0.2c-2-0.1-4,0.6-5.5,2.1c-1.4,1.5-2.1,3.5-2,5.5
				c-0.1,1.7,0.5,3.4,1.5,4.7c1.1,1.2,2.6,1.8,4.2,1.7c0.9,0,1.8-0.2,2.7-0.6c0.8-0.5,1.5-1.1,2-1.9h0.2c0.2,0.8,0.6,1.4,1.3,1.9
				c0.7,0.5,1.4,0.7,2.2,0.7c1.1,0,2.2-0.4,3.1-1.1c0.9-0.8,1.7-1.8,2.1-3c0.5-1.4,0.7-2.8,0.7-4.3C52.6,34.6,52.1,32.5,51,30.5z
				 M25.4,10.1c0.5,0,0.9,0.4,0.9,0.9c0,0.5-0.4,0.9-0.9,0.9c-0.5,0-0.9-0.4-0.9-0.9C24.5,10.5,24.9,10.1,25.4,10.1
				C25.4,10.1,25.4,10.1,25.4,10.1z M25.4,45.7c-0.9,0-1.7-0.7-1.8-1.6c0,0,0-0.1,0-0.1h3.1c0.1,0.2,0.1,0.5,0.2,0.7
				C26.7,45.3,26.1,45.7,25.4,45.7L25.4,45.7z M33,26.6c-2.2,1.2-3.9,3-5.1,5.1c-1.2,2.3-1.9,4.9-1.8,7.6c0,1.2,0.1,2.5,0.4,3.7
				c-0.1-0.2-0.2-0.5-0.2-0.8l-1.1,0.1c-2.8-0.2-5.9-0.3-9-0.5c-1.7-0.1-3.4-0.4-5.1-1c-0.5-0.2-1.1-0.5-1.5-0.8
				c-0.4-0.3-0.3-0.5,0-0.9c1.4-1.4,2.7-2.8,4.2-4.1c2.4-2.1,2.6-4.7,2.6-7.7c0.1-2.1,0.1-4.2,0.2-6.4c0.1-1,0.2-1.9,0.4-2.9
				c0.5-2.1,2.8-3.5,4.9-4c2.2-0.5,4.6-0.6,6.8-0.1c2.6,0.6,4.9,2.2,5.3,4.8c0.2,1.5,0.3,3,0.3,4.5c0,0.9,0.1,1.8,0.1,2.7
				C33.9,26.1,33.4,26.4,33,26.6L33,26.6z M42.1,37.9c-0.2,3.2-1.4,4.8-3.5,4.8c-2,0-3-1.3-3-3.8c-0.1-1.4,0.3-2.7,1.2-3.8
				c0.8-1,2-1.5,3.3-1.4c0.7,0,1.5,0.1,2.2,0.3L42.1,37.9z"/>
		</g>
	</g>
</g>
</svg>
