<svg id="Layer_1" data-name="Layer 1" xmlns="http://www.w3.org/2000/svg" viewBox="0 0 60 60"><defs><style>.cls-1{fill:#2c8aca;}</style></defs><title>icons-blue</title><path class="cls-1" d="M49.19,40.9,44.4,35.39a4.74,4.74,0,0,0-3.27-1.78,4.87,4.87,0,0,0-3.55,1.19l-3.12,2.52-.34-.2L33.9,37c-.31-.18-.63-.37-.89-.55a32.12,32.12,0,0,1-7.19-7.51A18.19,18.19,0,0,1,23.68,25c.71-.53,1.38-1.08,2-1.62l1.08-.89a4.72,4.72,0,0,0,1.87-3.22,4.72,4.72,0,0,0-1.29-3.49L24.93,13c-.25-.29-.51-.58-.76-.88-.51-.61-1.07-1.26-1.65-1.87a4.86,4.86,0,0,0-3.24-1.71,5.06,5.06,0,0,0-3.55,1.15l-3.51,2.87A6.91,6.91,0,0,0,9.7,16.8a16.09,16.09,0,0,0,.64,7,39.78,39.78,0,0,0,6.33,12.43,45,45,0,0,0,14,12.63A24.45,24.45,0,0,0,39,52l.61.08.79,0a7.46,7.46,0,0,0,5.09-1.91l.05,0a19.22,19.22,0,0,1,1.64-1.38l.14-.12c.45-.34.91-.7,1.35-1.08a4.75,4.75,0,0,0,1.8-3.23A4.6,4.6,0,0,0,49.19,40.9ZM18.94,11.5h.11a1.88,1.88,0,0,1,1.2.71c.56.59,1.08,1.21,1.57,1.78l.4.47.43.51L25,17.71A1.79,1.79,0,0,1,25.61,19a1.82,1.82,0,0,1-.79,1.19l-.27.22-.62.5c-.79.66-1.65,1.36-2.58,2l-.07.06h0a2.09,2.09,0,0,0-.73,2.27l0,.1a20.22,20.22,0,0,0,2.7,5.18,35,35,0,0,0,7.88,8.21,13.07,13.07,0,0,0,1.16.74c.32.19.62.37.87.55l0,0,.07,0a2.43,2.43,0,0,0,1,.35A2.36,2.36,0,0,0,36,39.94l3.53-2.86a1.91,1.91,0,0,1,1.32-.51,1.72,1.72,0,0,1,1.15.7l4.84,5.54a1.53,1.53,0,0,1-.14,2.46h-.09l0,.12c-.32.28-.64.53-1,.79l-.23.18a25.61,25.61,0,0,0-2,1.69,4.46,4.46,0,0,1-3.56,1.09l-.39,0a20.91,20.91,0,0,1-7.16-2.76A42,42,0,0,1,19.19,34.57,37.08,37.08,0,0,1,13.31,23a12.49,12.49,0,0,1-.57-5.73,4,4,0,0,1,1.46-2.47L17.71,12A2.08,2.08,0,0,1,18.94,11.5Z"/></svg>