<svg id="Layer_1" data-name="Layer 1" xmlns="http://www.w3.org/2000/svg" viewBox="0 0 60 60"><defs><style>.cls-1{fill:#fff;}</style></defs><title>icons_v2-white</title><path class="cls-1" d="M45.77,14.5H15.35a3.27,3.27,0,0,0-3.24,3.28V36.9a3.28,3.28,0,0,0,3.24,3.29h4.08v4.69a1.58,1.58,0,0,0,.92,1.44,1.64,1.64,0,0,0,.64.14,1.6,1.6,0,0,0,1-.39l6.63-5.88H45.77A3.27,3.27,0,0,0,49,36.9V17.78A3.26,3.26,0,0,0,45.77,14.5Zm1,22.4a1,1,0,0,1-1,1.07H28l-2.72,2.22-.07.05-3.6,3.19V38h-6.3a1,1,0,0,1-1-1.07V17.78a1,1,0,0,1,1-1.06H45.77a1,1,0,0,1,1,1.06Z"/><polygon class="cls-1" points="39.76 12.96 39.22 13.67 38.68 14.39 34.9 19.41 27.42 29.35 26.89 33.8 31.11 31.93 41.29 18.4 44.59 14.02 43.92 13.55 43.19 13.04 42.46 12.53 40.9 11.44 39.76 12.96"/><polygon class="cls-1" points="45.24 12.71 45.45 12.87 45.62 12.65 46.16 11.94 47.56 10.07 43.87 7.49 41.77 10.29 44.5 12.2 45.24 12.71"/></svg>