<svg id="Layer_1" data-name="Layer 1" xmlns="http://www.w3.org/2000/svg" viewBox="0 0 60 60"><defs><style>.cls-1{fill:#bdc0c2;}</style></defs><title>icons_v2-grey</title><path class="cls-1" d="M30,17.71C16.35,17.71,5.3,30.18,5.3,30.18S16.35,42.64,30,42.64,54.64,30.18,54.64,30.18,43.59,17.71,30,17.71Zm.19,21.56C19,39.27,10,30.12,10,30.12S19,21,30.16,21s20.16,9.14,20.16,9.14S41.29,39.27,30.16,39.27Z"/><path class="cls-1" d="M30,19.29a9.52,9.52,0,1,0,9.51,9.51A9.51,9.51,0,0,0,30,19.29Zm0,16.14a6.8,6.8,0,1,1,6.79-6.79A6.8,6.8,0,0,1,29.94,35.43Z"/></svg>