<svg xmlns="http://www.w3.org/2000/svg" viewBox="0 0 25.999 20">
  <defs>
    <style>
      .cls-1, .cls-2 {
        fill: #fff;
      }

      .cls-1 {
        stroke: #fff;
        stroke-miterlimit: 10;
        stroke-width: 0.5px;
      }
    </style>
  </defs>
  <g id="icon-find-groups-lake" transform="translate(0.025 -59.065)">
    <g id="group" transform="translate(0.979 63.145)">
      <g id="Symbol_142_9" data-name="Symbol 142 9" transform="translate(0 0)">
        <g id="Symbol_133_22" data-name="Symbol 133 22">
          <path id="Path_5934" data-name="Path 5934" class="cls-1" d="M48.893,150.174a1.592,1.592,0,1,0-1.593-1.591h0a1.591,1.591,0,0,0,1.592,1.591Zm0-2.8a1.209,1.209,0,1,1-1.209,1.209,1.209,1.209,0,0,1,1.209-1.209Z" transform="translate(-45.901 -146.606)"/>
          <path id="Path_5938" data-name="Path 5938" class="cls-1" d="M209.312,172.193a1.591,1.591,0,1,0-1.592-1.591h0A1.592,1.592,0,0,0,209.312,172.193Zm0-2.8A1.209,1.209,0,1,1,208.1,170.6h0a1.208,1.208,0,0,1,1.206-1.209Z" transform="translate(-198.176 -167.508)"/>
          <path id="Path_5935" data-name="Path 5935" class="cls-1" d="M129.416,142.259A1.415,1.415,0,1,0,128,140.845a1.415,1.415,0,0,0,1.416,1.414Zm0-2.488a1.075,1.075,0,1,1-1.075,1.075A1.075,1.075,0,0,1,129.416,139.771Z" transform="translate(-122.504 -139.43)"/>
          <path id="Path_5936" data-name="Path 5936" class="cls-1" d="M123.554,202.6a.191.191,0,0,0,.3-.234,3,3,0,0,0-4.042-.653.192.192,0,0,0,.2.325l.006,0s0,0,.007,0A2.609,2.609,0,0,1,123.554,202.6Z" transform="translate(-114.652 -198.071)"/>
          <path id="Path_5937" data-name="Path 5937" class="cls-1" d="M22.742,217.21a3,3,0,0,0-2.992,3,.191.191,0,1,0,.382,0,2.61,2.61,0,0,1,5.22,0h0a.191.191,0,1,0,.382,0,3,3,0,0,0-2.991-3Z" transform="translate(-19.75 -213.261)"/>
          <path id="Path_5939" data-name="Path 5939" class="cls-1" d="M183.142,240.26a3,3,0,0,0-2.992,2.991.191.191,0,1,0,.382,0,2.61,2.61,0,0,1,5.22,0h0a.191.191,0,0,0,.382,0,3,3,0,0,0-2.992-2.991Z" transform="translate(-172.006 -235.14)"/>
        </g>
      </g>
    </g>
    <path id="Path_7262" data-name="Path 7262" class="cls-2" d="M25.383,76.842l-9.546-5.865c-.022-.014-.046-.026-.07-.038a8.3,8.3,0,1,0-1.313,1.969,1.188,1.188,0,0,0,.137.1l9.546,5.865a1.192,1.192,0,1,0,1.291-2l-.044-.027ZM8.225,74.526a7.09,7.09,0,1,1,7.09-7.09h0a7.089,7.089,0,0,1-7.09,7.09Z" transform="translate(0)"/>
  </g>
</svg>
