<svg xmlns="http://www.w3.org/2000/svg" viewBox="0 0 20.287 18.113">
  <defs>
    <style>
      .cls-1 {
        fill: #298aca;
      }
    </style>
  </defs>
  <g id="Group_3667" data-name="Group 3667" transform="translate(10711 9028)">
    <path id="Path_3811" data-name="Path 3811" class="cls-1" d="M40.078,23.511H35.9V15.278a.207.207,0,0,0-.207-.207H25.09v-3.16A.911.911,0,0,1,26,11H40.078a.911.911,0,0,1,.911.911V22.618A.911.911,0,0,1,40.078,23.511Zm-3.481-.7h3.481a.207.207,0,0,0,.207-.207V11.911a.207.207,0,0,0-.207-.207H26a.207.207,0,0,0-.207.207v2.458h9.894a.911.911,0,0,1,.911.911v7.529Z" transform="translate(-10731.702 -9039)"/>
    <path id="Path_5782" data-name="Path 5782" class="cls-1" d="M25.089,41.313H21.032a.342.342,0,1,1,0-.683h4.057a.342.342,0,1,1,0,.683Zm0,0" transform="translate(-10728.305 -9061.88)"/>
    <path id="Path_5784" data-name="Path 5784" class="cls-1" d="M20.925,25.79H6.63a.8.8,0,0,0-.8.8V37.456h0a.911.911,0,0,0,.911.857H8.2v1.214a1.009,1.009,0,0,0,1.722.713l1.69-1.929h9.311a.8.8,0,0,0,.8-.8V26.59A.8.8,0,0,0,20.925,25.79Zm.1,11.718a.1.1,0,0,1-.1.1H11.309l-.683.7h0l-.046.059-.155.141h0L9.461,39.7a.33.33,0,0,1-.563-.228V38.56h0v-.954H6.621a.1.1,0,0,1-.1-.1V35.715h0V26.59a.1.1,0,0,1,.1-.1h14.3a.1.1,0,0,1,.1.1Z" transform="translate(-10716.83 -9050.421)"/>
    <path id="Path_5803" data-name="Path 5803" class="cls-1" d="M29.511,51.683H21.082a.342.342,0,1,1,0-.683h8.429a.342.342,0,1,1,0,.683Zm0,0" transform="translate(-10728.344 -9069.889)"/>
    <path id="Path_5802" data-name="Path 5802" class="cls-1" d="M29.511,62.063H21.082a.342.342,0,1,1,0-.683h8.429a.342.342,0,1,1,0,.683Zm0,0" transform="translate(-10728.344 -9077.903)"/>
  </g>
</svg>
