<svg id="Layer_1" data-name="Layer 1" xmlns="http://www.w3.org/2000/svg" viewBox="0 0 60 60"><defs><style>.cls-1{fill:#2c8aca;}</style></defs><title>icons-blue</title><path class="cls-1" d="M48.74,15H39.09V13.1a4.24,4.24,0,0,0-4.24-4.24H25a4.37,4.37,0,0,0-4.36,4.36V15H11.26a1.5,1.5,0,1,0,0,3H14V47.72a4.42,4.42,0,0,0,4.42,4.42h23a4.42,4.42,0,0,0,4.41-4.41V18h2.89a1.5,1.5,0,0,0,0-3ZM23.67,13.22A1.36,1.36,0,0,1,25,11.86h9.82a1.25,1.25,0,0,1,1.24,1.24V15H23.67ZM42.85,47.73a1.41,1.41,0,0,1-1.41,1.41h-23A1.43,1.43,0,0,1,17,47.72V18H42.85Z"/><path class="cls-1" d="M22.17,43.74a1.5,1.5,0,0,0,1.5-1.5V24.71a1.5,1.5,0,0,0-3,0V42.24A1.5,1.5,0,0,0,22.17,43.74Z"/><path class="cls-1" d="M37.59,43.74a1.5,1.5,0,0,0,1.5-1.5V24.71a1.5,1.5,0,0,0-3,0V42.24A1.5,1.5,0,0,0,37.59,43.74Z"/><path class="cls-1" d="M30,46.2a1.5,1.5,0,0,0,1.5-1.5V22.93a1.5,1.5,0,0,0-3,0V44.7A1.5,1.5,0,0,0,30,46.2Z"/></svg>