<svg id="Layer_1" data-name="Layer 1" xmlns="http://www.w3.org/2000/svg" viewBox="0 0 60 60"><defs><style>.cls-1{fill:#fff;}</style></defs><title>icons_v2-white</title><path class="cls-1" d="M13.35,46.65a23.55,23.55,0,1,1,33.3,0A23.57,23.57,0,0,1,13.35,46.65ZM44.53,15.47a20.55,20.55,0,1,0,0,29.06A20.58,20.58,0,0,0,44.53,15.47Z"/><path class="cls-1" d="M39.75,37.63,32.12,30l7.41-7.41a1.5,1.5,0,0,0-2.12-2.12L30,27.88l-7.63-7.63a1.5,1.5,0,0,0-2.12,2.12L27.88,30l-7.41,7.41a1.5,1.5,0,0,0,2.12,2.12L30,32.12l7.63,7.63a1.5,1.5,0,0,0,2.12-2.12Z"/></svg>