<svg xmlns="http://www.w3.org/2000/svg" viewBox="0 0 11.999 12">
  <defs>
    <style>
      .cls-1 {
        fill: #ed2124;
      }
    </style>
  </defs>
  <g id="icon-close-charcoal" transform="translate(-3.1 -3.1)">
    <path id="Path_5948" class="cls-1" d="M13.342,4.858a6,6,0,1,0,0,8.485A6,6,0,0,0,13.342,4.858ZM12.88,12.88a5.347,5.347,0,1,1,0-7.562h0A5.344,5.344,0,0,1,12.88,12.88Z"/>
    <path id="Path_5947" class="cls-1" d="M158.8,161.955l-1.774-1.777,1.7-1.7a.327.327,0,0,0-.441-.484.224.224,0,0,0-.024.024l-1.7,1.7-1.772-1.772a.329.329,0,0,0-.465.465l1.777,1.777-1.855,1.855a.329.329,0,1,0,.465.465l1.855-1.857,1.772,1.772a.329.329,0,0,0,.465-.007.335.335,0,0,0,0-.46Z" transform="translate(-147.467 -151.079)"/>
  </g>
</svg>
