<svg xmlns="http://www.w3.org/2000/svg" viewBox="0 0 50.8 73.9"><defs><style>.cls-1{fill:#1f8bd5;}</style></defs><title>icon-locked</title><g id="Layer_2" data-name="Layer 2"><g id="Layer_1-2" data-name="Layer 1"><g id="icons"><path class="cls-1" d="M43.9,32.4V18.5a18.5,18.5,0,0,0-37,0V32.4A6.91,6.91,0,0,0,0,39.3V67a6.91,6.91,0,0,0,6.9,6.9h37A6.91,6.91,0,0,0,50.8,67V39.3a6.79,6.79,0,0,0-6.9-6.9ZM11.6,18.5a13.9,13.9,0,0,1,27.8,0V32.4H11.6ZM46.2,67.1a2.26,2.26,0,0,1-2.3,2.3H6.9a2.26,2.26,0,0,1-2.3-2.3V39.3A2.26,2.26,0,0,1,6.9,37h37a2.26,2.26,0,0,1,2.3,2.3ZM27.8,51.5V46.2a2.3,2.3,0,1,0-4.6,0v5.3a4.61,4.61,0,1,0,6.9,4,4.8,4.8,0,0,0-2.3-4Z"/></g></g></g></svg>