<svg xmlns="http://www.w3.org/2000/svg" viewBox="0 0 103.52 122.24">
  <defs>
    <style>
      .cls-1 {
        fill: #FFFFFF;
      }

    </style>
  </defs>
  <title>Pando-Profile</title>
  <g id="Layer_2" data-name="Layer 2">
    <g id="Layer_1-2" data-name="Layer 1">
      <path class="cls-1" d="M103.52,16.76A16.76,16.76,0,0,0,86.76,0h-70A16.76,16.76,0,0,0,0,16.76V22.5H36.75a16.3,16.3,0,0,1,32.08,0h34.69Z"
      />
      <path class="cls-1" d="M103.52,75.34v-20H76.61a37.38,37.38,0,0,1,9.21,20Z" />
      <path class="cls-1" d="M0,55.35v20H19.75a37.38,37.38,0,0,1,9.21-20Z" />
      <path class="cls-1" d="M0,86.76a16.76,16.76,0,0,0,16.76,16.76H63.28v18.73l23.47-18.73a16.76,16.76,0,0,0,16.76-16.76v-5H0Z"
      />
      <path class="cls-1" d="M52.78,41.73a16.31,16.31,0,0,1-15.92-12.8H0v20H36.8a31.14,31.14,0,0,1,32,0h34.75v-20H68.71A16.31,16.31,0,0,1,52.78,41.73Z"
      />
    </g>
  </g>
</svg>
