<svg id="Layer_1" data-name="Layer 1" xmlns="http://www.w3.org/2000/svg" viewBox="0 0 60 60"><defs><style>.cls-1{fill:#2c8aca;}</style></defs><title>icons-blue</title><path class="cls-1" d="M26.46,25.54a8.62,8.62,0,1,0-8.61-8.61A8.62,8.62,0,0,0,26.46,25.54Zm.07-14.7a6,6,0,1,1-6,6A6,6,0,0,1,26.53,10.84Z"/><path class="cls-1" d="M40.28,53.71A12.45,12.45,0,1,1,52.73,41.26,12.47,12.47,0,0,1,40.28,53.71Zm0-23.32A10.87,10.87,0,1,0,51.15,41.26,10.88,10.88,0,0,0,40.28,30.39Z"/><path class="cls-1" d="M45.44,45.29l-4-4,3.92-3.92a.79.79,0,1,0-1.12-1.12l-3.92,3.92-4-4a.79.79,0,0,0-1.12,1.12l4,4-3.91,3.91a.8.8,0,0,0,0,1.13.79.79,0,0,0,1.12,0l3.91-3.92,4,4a.8.8,0,0,0,1.13,0A.79.79,0,0,0,45.44,45.29Z"/><path class="cls-1" d="M36.67,30.33A17.36,17.36,0,0,0,26.46,27,17.7,17.7,0,0,0,8.89,43.73a1.22,1.22,0,0,0,2.43,0h0a15.27,15.27,0,0,1,15.14-14,15,15,0,0,1,7.68,2.12A15.42,15.42,0,0,1,36.67,30.33Z"/></svg>