<svg id="Layer_1" data-name="Layer 1" xmlns="http://www.w3.org/2000/svg" viewBox="0 0 512 512">
    <title>MASTER-</title>
    <rect x="113.7" y="148.49" width="16.15" height="44.13" style="fill:#1f8bd5"/>
    <rect x="250.89" y="235.35" width="16.12" height="44.07" transform="translate(516.33 -1.56) rotate(90)"
          style="fill:#1f8bd5"/>
    <path d="M208.66,11.1H32.85A31.34,31.34,0,0,0,1.6,42.35V122a31.33,31.33,0,0,0,31.25,31.24H208.66A31.33,31.33,0,0,0,239.9,122V42.35A31.34,31.34,0,0,0,208.66,11.1Zm14.72,107.64a16.72,16.72,0,0,1-16.67,16.67H35.14a16.72,16.72,0,0,1-16.67-16.67V45.19A16.73,16.73,0,0,1,35.14,28.51H206.71a16.73,16.73,0,0,1,16.67,16.68Z"
          style="fill:#1f8bd5"/>
    <path d="M480.14,186.89H304.33a31.33,31.33,0,0,0-31.24,31.24v79.61A31.33,31.33,0,0,0,304.33,329H480.14a31.33,31.33,0,0,0,31.24-31.24V218.13A31.33,31.33,0,0,0,480.14,186.89Zm14.73,107.63A16.73,16.73,0,0,1,478.2,311.2H306.63A16.73,16.73,0,0,1,290,294.52V221a16.72,16.72,0,0,1,16.67-16.67H478.2A16.72,16.72,0,0,1,494.87,221Z"
          style="fill:#1f8bd5"/>
    <path d="M208.66,186.68H32.85A31.34,31.34,0,0,0,1.6,217.93v79.6a31.34,31.34,0,0,0,31.25,31.25H208.66a31.34,31.34,0,0,0,31.24-31.25v-79.6A31.34,31.34,0,0,0,208.66,186.68Zm14.72,107.64A16.72,16.72,0,0,1,206.71,311H35.14a16.72,16.72,0,0,1-16.67-16.67V220.77A16.72,16.72,0,0,1,35.14,204.1H206.71a16.72,16.72,0,0,1,16.67,16.67Z"
          style="fill:#1f8bd5"/>
    <rect x="113.7" y="323.33" width="16.15" height="44.13" style="fill:#1f8bd5"/>
    <path d="M208.66,361.53H32.85A31.34,31.34,0,0,0,1.6,392.77v79.61a31.34,31.34,0,0,0,31.25,31.24H208.66a31.33,31.33,0,0,0,31.24-31.24V392.77A31.33,31.33,0,0,0,208.66,361.53Zm14.72,107.63a16.73,16.73,0,0,1-16.67,16.68H35.14a16.73,16.73,0,0,1-16.67-16.68V395.61a16.72,16.72,0,0,1,16.67-16.67H206.71a16.72,16.72,0,0,1,16.67,16.67Z"
          style="fill:#1f8bd5"/>
    <rect x="385.48" y="323.33" width="16.15" height="44.13" style="fill:#1f8bd5"/>
    <path d="M480.43,361.53H304.62a31.33,31.33,0,0,0-31.24,31.24v79.61a31.33,31.33,0,0,0,31.24,31.24H480.43a31.33,31.33,0,0,0,31.24-31.24V392.77A31.33,31.33,0,0,0,480.43,361.53Zm14.73,107.63a16.73,16.73,0,0,1-16.68,16.68H306.92a16.73,16.73,0,0,1-16.68-16.68V395.61a16.73,16.73,0,0,1,16.68-16.67H478.48a16.72,16.72,0,0,1,16.68,16.67Z"
          style="fill:#1f8bd5"/>
</svg>
