<svg id="Layer_1" data-name="Layer 1" xmlns="http://www.w3.org/2000/svg" viewBox="0 0 60 60"><defs><style>.cls-1{fill:#bdc0c2;}</style></defs><title>icons_v2-grey</title><path class="cls-1" d="M13.35,46.65a23.55,23.55,0,1,1,33.3,0A23.57,23.57,0,0,1,13.35,46.65ZM44.53,15.47a20.55,20.55,0,1,0,0,29.06A20.58,20.58,0,0,0,44.53,15.47Z"/><path class="cls-1" d="M41.14,26H18.86a1.5,1.5,0,0,1,0-3H41.14a1.5,1.5,0,0,1,0,3Z"/><path class="cls-1" d="M39.14,32.22H20.86a1.5,1.5,0,0,1,0-3H39.14a1.5,1.5,0,0,1,0,3Z"/><path class="cls-1" d="M37.37,38.49H22.63a1.5,1.5,0,0,1,0-3H37.37a1.5,1.5,0,0,1,0,3Z"/></svg>