<svg id="Layer_1" data-name="Layer 1" xmlns="http://www.w3.org/2000/svg" viewBox="0 0 512 512"><title>i</title><g id="Layer_2" data-name="Layer 2"><g id="Layer_1-2" data-name="Layer 1-2"><path id="Path_7029" data-name="Path 7029" d="M243.19,308.13,482.83,190.52a.66.66,0,0,1,.91.19h0a.73.73,0,0,1-.17.79L278.62,362.78a32.82,32.82,0,1,1-43.31-49.33c.42-.36.84-.71,1.27-1.05A36.23,36.23,0,0,1,243.19,308.13Z" style="fill:#1f8bd5"/><path id="Subtraction_17" data-name="Subtraction 17" d="M494.72,391.62a16.26,16.26,0,0,1-16.26-16.24h0a220.39,220.39,0,0,0-14.4-78.69A16.28,16.28,0,0,1,467.15,280l.05-.06a16.28,16.28,0,0,1,27.35,5.17A251.94,251.94,0,0,1,511,375.38,16.32,16.32,0,0,1,494.72,391.62Zm-477.41,0A16.31,16.31,0,0,1,1,375.38c0-140.8,114-254.95,254.79-255A254.8,254.8,0,0,1,384.1,155a16.25,16.25,0,0,1-.3,28.19h0a16.23,16.23,0,0,1-16.1-.07c-102.55-59.72-234.85-28.31-299.22,72.64A222.46,222.46,0,0,0,33.54,375.38a16.26,16.26,0,0,1-16.26,16.24h0Z" style="fill:#1f8bd5"/></g></g></svg>