<?xml version="1.0" encoding="utf-8"?>
<!-- Generator: Adobe Illustrator 21.1.0, SVG Export Plug-In . SVG Version: 6.00 Build 0)  -->
<svg version="1.1" id="management" xmlns="http://www.w3.org/2000/svg" xmlns:xlink="http://www.w3.org/1999/xlink" x="0px" y="0px"
	 viewBox="0 0 341.6 341.6" style="enable-background:new 0 0 341.6 341.6;" xml:space="preserve">
<style type="text/css">
	.st0{fill:none;}
	.st1{fill:#298ACA;}
</style>
<path id="Path_7147" class="st0" d="M298.9,56.9c0,7,0.1,21.4,0.1,21.4H163.7V49.8h128.2c3.8-0.1,7,2.9,7,6.8c0,0,0,0,0,0
	C298.9,56.7,298.9,56.8,298.9,56.9z"/>
<path id="Path_7148" class="st0" d="M320.2,78.3c7.9,0,14.2,6.4,14.2,14.2v227.7c0,7.9-6.4,14.2-14.2,14.2H21.4
	c-7.9,0-14.2-6.4-14.2-14.2V21.4c0-7.9,6.4-14.2,14.2-14.2h128.1c7.9,0,14.2,6.4,14.2,14.2v56.9H320.2z"/>
<g id="Group_3069" transform="translate(49.817 120.985)">
	<circle id="Ellipse_1024" class="st0" cx="220.6" cy="156.6" r="14.2"/>
	<circle id="Ellipse_1025" class="st0" cx="220.6" cy="85.4" r="14.2"/>
	<circle id="Ellipse_1026" class="st0" cx="220.6" cy="14.2" r="14.2"/>
	<path id="Path_7149" class="st0" d="M85.4,64.1v42.7h-7.1c-11.8,0-21.4-9.6-21.4-21.4s9.6-21.4,21.4-21.4H85.4z"/>
	<path id="Path_7150" class="st0" d="M85.4,106.8v56.9H64.1v-23.2c-5.1-1.3-10.1-3.4-14.7-6L33,150.8l-20.1-20.1l16.4-16.4
		c-2.7-4.6-4.7-9.5-6.1-14.7H0V71.2h23.2c1.3-5.1,3.4-10.1,6-14.7L12.9,40.1L33,20l16.4,16.4c4.6-2.7,9.5-4.7,14.7-6V7.1h21.4V64
		h-7.1c-11.8,0-21.4,9.6-21.4,21.4s9.6,21.4,21.4,21.4H85.4z"/>
</g>
<g id="Group_3070">
	<path id="Path_7151" class="st1" d="M320.3,71.2h-14.2c0-4.7,0-10.5,0-14.3c0.2-7.7-5.9-14-13.6-14.2c0,0,0,0,0,0
		c-0.2,0-0.4,0-0.6,0H170.8V21.4c0-11.8-9.6-21.3-21.3-21.4H21.4C9.6,0,0,9.6,0,21.4c0,0,0,0,0,0v298.9c0,11.8,9.6,21.4,21.3,21.4
		c0,0,0,0,0,0h298.9c11.8,0,21.4-9.6,21.4-21.4l0,0V92.5C341.6,80.7,332,71.2,320.3,71.2z M291.8,57.1c0,3.8,0,9.5,0,14.1h-121V56.9
		L291.8,57.1z M327.4,320.3c0,3.9-3.2,7.1-7.1,7.1l0,0H21.4c-3.9,0-7.1-3.2-7.1-7.1l0,0V21.4c0-3.9,3.2-7.1,7.1-7.1l0,0h128.1
		c3.9,0,7.1,3.2,7.1,7.1c0,0,0,0,0,0v49.8H64.1v14.2h256.2c3.9,0,7.1,3.2,7.1,7.1l0,0L327.4,320.3z"/>
	<path id="Path_7152" class="st1" d="M149.5,135.2h14.2v142.3h-14.2V135.2z"/>
	<path id="Path_7153" class="st1" d="M106.8,128.1v17.9c-2.1,0.8-4.2,1.6-6.2,2.6l-12.7-12.7c-2.8-2.8-7.3-2.8-10.1,0l-20.2,20.2
		c-2.8,2.8-2.8,7.3,0,10.1l12.7,12.7c-1,2-1.8,4.1-2.6,6.2H49.8c-3.9,0-7.1,3.2-7.1,7.1c0,0,0,0,0,0v28.5c0,3.9,3.2,7.1,7.1,7.1l0,0
		h17.9c0.8,2.1,1.6,4.2,2.6,6.2l-12.7,12.7c-2.8,2.8-2.8,7.3,0,10.1l20.1,20.1c2.8,2.8,7.3,2.8,10.1,0l12.7-12.7
		c2,1,4.1,1.8,6.2,2.6v17.9c0,3.9,3.2,7.1,7.1,7.1c0,0,0,0,0,0h21.4v-14.2H121v-16.1c0-3.2-2.2-6.1-5.3-6.9c-4.5-1.2-8.8-3-12.9-5.3
		c-2.8-1.6-6.3-1.2-8.6,1.1l-11.3,11.3l-10.1-10.1l11.3-11.3c2.3-2.3,2.7-5.8,1.1-8.6c-2.3-4-4.1-8.4-5.3-12.9
		c-0.8-3.1-3.6-5.3-6.9-5.3H56.9v-14.2H73c3.2,0,6.1-2.2,6.9-5.3c1.2-4.5,3-8.9,5.3-12.9c1.6-2.8,1.1-6.3-1.1-8.6l-11.3-11.3
		L82.8,151l11.3,11.3c2.3,2.3,5.8,2.7,8.6,1.1c4-2.3,8.4-4.1,12.9-5.3c3.1-0.8,5.3-3.6,5.3-6.9v-16.1h14.2V121h-21.4
		C109.9,121,106.8,124.2,106.8,128.1C106.8,128.1,106.8,128.1,106.8,128.1L106.8,128.1z"/>
	<path id="Path_7154" class="st1" d="M99.6,206.4c0,15.7,12.7,28.5,28.5,28.5h7.1v-14.2h-7.1c-7.9,0-14.2-6.4-14.2-14.2
		c0-7.9,6.4-14.2,14.2-14.2h7.1v-14.2h-7.1C112.4,177.9,99.6,190.7,99.6,206.4C99.6,206.4,99.6,206.4,99.6,206.4z"/>
	<path id="Path_7155" class="st1" d="M270.4,256.2c-9,0-17,5.7-20,14.2h-22.7v-56.9c0.2-7.7-5.9-14.1-13.6-14.2c-0.2,0-0.4,0-0.6,0
		h-35.6v14.2h35.6v56.9c-0.2,7.7,5.9,14.1,13.6,14.2c0,0,0,0,0,0c0.2,0,0.4,0,0.6,0h22.7c3.9,11.1,16.1,16.9,27.2,12.9
		c11.1-3.9,16.9-16.1,12.9-27.2C287.5,261.9,279.5,256.2,270.4,256.2L270.4,256.2z M270.4,284.7c-3.9,0-7.1-3.2-7.1-7.1
		s3.2-7.1,7.1-7.1s7.1,3.2,7.1,7.1C277.6,281.5,274.4,284.7,270.4,284.7L270.4,284.7z"/>
	<path id="Path_7156" class="st1" d="M270.4,185c-9,0-17,5.7-20,14.2h-15.5v14.2h15.5c4,11.1,16.1,16.9,27.2,12.9
		c11.1-4,16.9-16.1,12.9-27.2C287.5,190.7,279.5,185,270.4,185L270.4,185z M270.4,213.5c-3.9,0-7.1-3.2-7.1-7.1s3.2-7.1,7.1-7.1
		s7.1,3.2,7.1,7.1S274.4,213.5,270.4,213.5L270.4,213.5z"/>
	<path id="Path_7157" class="st1" d="M270.4,113.9c-9,0-17,5.7-20,14.2h-22.7c-7.7-0.2-14.1,5.9-14.2,13.6c0,0,0,0,0,0
		c0,0.2,0,0.4,0,0.6V185h14.2v-42.7h22.7c4,11.1,16.1,16.9,27.2,12.9c11.1-4,16.9-16.1,12.9-27.2
		C287.5,119.5,279.5,113.9,270.4,113.9L270.4,113.9z M270.4,142.3c-3.9,0-7.1-3.2-7.1-7.1s3.2-7.1,7.1-7.1c3.9,0,7.1,3.2,7.1,7.1
		C277.6,139.1,274.4,142.3,270.4,142.3L270.4,142.3z"/>
	<path id="Path_7158" class="st1" d="M149.5,291.8h14.2V306h-14.2V291.8z"/>
	<path id="Path_7159" class="st1" d="M149.5,106.8h14.2V121h-14.2V106.8z"/>
</g>
</svg>
