<svg id="Layer_1" data-name="Layer 1" xmlns="http://www.w3.org/2000/svg" viewBox="0 0 60 60"><defs><style>.cls-1{fill:#2c8aca;}</style></defs><title>icons-blue</title><path class="cls-1" d="M30,54.62A23.55,23.55,0,1,1,53.55,31.07,23.57,23.57,0,0,1,30,54.62Zm0-44.1A20.55,20.55,0,1,0,50.55,31.07,20.57,20.57,0,0,0,30,10.52Z"/><path class="cls-1" d="M30.07,32.6a7.88,7.88,0,1,0-7.88-7.87A7.88,7.88,0,0,0,30.07,32.6Zm0-13.2a5.33,5.33,0,1,1-5.33,5.33A5.33,5.33,0,0,1,30.07,19.4Z"/><path class="cls-1" d="M46.82,44a19.39,19.39,0,0,0-33.51,0,21.26,21.26,0,0,0,1.94,2.3,16.73,16.73,0,0,1,29.65,0A21.16,21.16,0,0,0,46.82,44Z"/></svg>