<svg xmlns="http://www.w3.org/2000/svg" viewBox="0 0 12 12">
  <defs>
    <style>
      .cls-1 {
        fill: #1f8bd5;
      }
    </style>
  </defs>
  <path id="reassign" class="cls-1" d="M10.72.22,9.546,1.394A5.812,5.812,0,0,0,.195,5.707.281.281,0,0,0,.476,6H.711a.28.28,0,0,0,.281-.265A5.016,5.016,0,0,1,8.977,1.963L7.72,3.22a.751.751,0,0,0,.53,1.28h3A.75.75,0,0,0,12,3.75v-3A.751.751,0,0,0,10.72.22Zm.53,3.53h-3l3-3ZM11.524,6H11.29a.28.28,0,0,0-.281.265,5.016,5.016,0,0,1-7.986,3.772L4.28,8.781a.751.751,0,0,0-.53-1.28h-3A.75.75,0,0,0,0,8.25v3a.75.75,0,0,0,1.28.53l1.174-1.174a5.812,5.812,0,0,0,9.351-4.313A.281.281,0,0,0,11.524,6ZM.75,11.25v-3h3Z"/>
</svg>
