<svg id="Layer_1" data-name="Layer 1" xmlns="http://www.w3.org/2000/svg" viewBox="0 0 60 60"><defs><style>.cls-1{fill:#bdc0c2;}</style></defs><title>icons_v2-grey</title><path class="cls-1" d="M30.91,8.9A19.15,19.15,0,1,0,50.05,28,19.17,19.17,0,0,0,30.91,8.9Zm0,35.85A16.71,16.71,0,1,1,47.61,28,16.72,16.72,0,0,1,30.91,44.75Z"/><path class="cls-1" d="M42.92,36.17v0l-10.23-7a2.58,2.58,0,0,0,0-.4,2.24,2.24,0,0,0-1.19-2l-.06-11.44h0a1,1,0,0,0-1.94,0s0,0,0,0h0l.09,11.32a2.23,2.23,0,0,0,1.67,4.13L41.68,38h0a1.16,1.16,0,0,0,.53.14A1.11,1.11,0,0,0,43.32,37,1.07,1.07,0,0,0,42.92,36.17Z"/></svg>