<svg id="Layer_1" data-name="Layer 1" xmlns="http://www.w3.org/2000/svg" viewBox="0 0 512 512"><title>icon</title><g id="Layer_2" data-name="Layer 2"><g id="Layer_1-2" data-name="Layer 1-2"><path d="M398,317.82A59.75,59.75,0,1,0,338.34,258h0v.06A59.74,59.74,0,0,0,398,317.82Zm0-105.16h0a45.41,45.41,0,1,1-45.41,45.41h0A45.42,45.42,0,0,1,398,212.62h0Z" style="fill:#1f8bd5;stroke:#1f8bd5;stroke-miterlimit:10;stroke-width:4.647244545512308px"/><path d="M398,332.16A112.53,112.53,0,0,0,285.72,444.48a7.17,7.17,0,1,0,14.33,0,98,98,0,1,1,196,0,7.17,7.17,0,1,0,14.34,0h0A112.49,112.49,0,0,0,398,332.16Z" style="fill:#1f8bd5;stroke:#1f8bd5;stroke-miterlimit:10;stroke-width:4.647244545512308px"/><path d="M107.35,276.36a56.3,56.3,0,1,0-56.17-56.42v.19A56.28,56.28,0,0,0,107.35,276.36Zm0-99h0a42.76,42.76,0,1,1-42.74,42.77h0A42.76,42.76,0,0,1,107.35,177.36Z" style="fill:#1f8bd5;stroke:#1f8bd5;stroke-miterlimit:10;stroke-width:4.647244545512308px"/><path d="M107.35,289.87A106,106,0,0,0,1.63,395.62a6.76,6.76,0,0,0,13.51,0,92.25,92.25,0,0,1,184.5,0,6.76,6.76,0,0,0,13.51,0h0A105.91,105.91,0,0,0,107.35,289.87Z" style="fill:#1f8bd5;stroke:#1f8bd5;stroke-miterlimit:10;stroke-width:4.647244545512308px"/><path d="M250.86,170.9a55.28,55.28,0,1,0-55.2-55.36v.14A55.28,55.28,0,0,0,250.86,170.9Zm0-97.24h0a42,42,0,1,1-42,42,42,42,0,0,1,42-42h0Z" style="fill:#1f8bd5;stroke:#1f8bd5;stroke-miterlimit:10;stroke-width:4.647244545512308px"/><path d="M325.59,224h0a6.63,6.63,0,0,0-.59-8.65,103.64,103.64,0,0,0-136.47-10.3,6.59,6.59,0,0,0-1.27,9.23l.12.17h0a6.58,6.58,0,0,0,9.09,1.14,90.66,90.66,0,0,1,119.14,9.09,6.59,6.59,0,0,0,9.31.09A7,7,0,0,0,325.59,224Z" style="fill:#1f8bd5;stroke:#1f8bd5;stroke-miterlimit:10;stroke-width:4.647244545512308px"/></g></g></svg>