<svg id="Layer_1" data-name="Layer 1" xmlns="http://www.w3.org/2000/svg" viewBox="0 0 60 60"><defs><style>.cls-1{fill:#fff;}</style></defs><title>icons_v2-white</title><path class="cls-1" d="M41.2,20.16l4.92-5.39-1.73-1.58-5.49,6a24.94,24.94,0,0,0-8.68-1.66C17,17.54,6.34,29.61,6.34,29.61a43.36,43.36,0,0,0,14,9.93l-3.8,4.16,1.73,1.59,4.44-4.86a24.47,24.47,0,0,0,7.51,1.24c13.18,0,23.87-12.06,23.87-12.06A43.82,43.82,0,0,0,41.2,20.16ZM25.88,33.47a6.57,6.57,0,1,1,8.85-9.7ZM36.43,21.91l-.56-.47.79.22ZM10.9,29.56a34.44,34.44,0,0,1,13.84-8.07,9.17,9.17,0,0,0-.7,14L22.68,37A35.36,35.36,0,0,1,10.9,29.56Zm19.51,8.85a21.43,21.43,0,0,1-5.24-.68L39.06,22.51a35.53,35.53,0,0,1,10.85,7S41.18,38.41,30.41,38.41Z"/></svg>