<svg id="icon-task-builder-lake" xmlns="http://www.w3.org/2000/svg" viewBox="0 0 341.6 341.7">
  <defs>
    <style>
      .cls-1 {
        fill: none;
      }

      .cls-2 {
        fill: #fff;
      }
    </style>
  </defs>
  <path id="Path_7147" class="cls-1" d="M298.9,56.9c0,7,.1,21.4.1,21.4H163.7V49.8H291.9a6.789,6.789,0,0,1,7,6.8h0Z"/>
  <path id="Path_7148" class="cls-1" d="M320.2,78.3a14.19,14.19,0,0,1,14.2,14.2V320.2a14.19,14.19,0,0,1-14.2,14.2H21.4A14.19,14.19,0,0,1,7.2,320.2V21.4A14.19,14.19,0,0,1,21.4,7.2H149.5a14.19,14.19,0,0,1,14.2,14.2V78.3Z"/>
  <g id="Group_3069" transform="translate(49.817 120.985)">
    <circle id="Ellipse_1024" class="cls-1" cx="14.2" cy="14.2" r="14.2" transform="translate(206.4 142.4)"/>
    <circle id="Ellipse_1025" class="cls-1" cx="14.2" cy="14.2" r="14.2" transform="translate(206.4 71.2)"/>
    <circle id="Ellipse_1026" class="cls-1" cx="14.2" cy="14.2" r="14.2" transform="translate(206.4 0)"/>
    <path id="Path_7149" class="cls-1" d="M85.4,64.1v42.7H78.3a21.4,21.4,0,1,1,0-42.8h7.1Z"/>
    <path id="Path_7150" class="cls-1" d="M85.4,106.8v56.9H64.1V140.5a60.6,60.6,0,0,1-14.7-6L33,150.8,12.9,130.7l16.4-16.4a59.284,59.284,0,0,1-6.1-14.7H0V71.2H23.2a60.6,60.6,0,0,1,6-14.7L12.9,40.1,33,20,49.4,36.4a55.462,55.462,0,0,1,14.7-6V7.1H85.5V64H78.4a21.4,21.4,0,0,0,0,42.8Z"/>
  </g>
  <g id="Group_3070">
    <path id="Path_7151" class="cls-2" d="M320.3,71.2H306.1V56.9a13.873,13.873,0,0,0-13.6-14.2H170.8V21.4A21.468,21.468,0,0,0,149.5,0H21.4A21.424,21.424,0,0,0,0,21.4H0V320.3a21.4,21.4,0,0,0,21.3,21.4H320.2a21.424,21.424,0,0,0,21.4-21.4h0V92.5A21.317,21.317,0,0,0,320.3,71.2ZM291.8,57.1V71.2h-121V56.9Zm35.6,263.2a7.127,7.127,0,0,1-7.1,7.1H21.4a7.127,7.127,0,0,1-7.1-7.1h0V21.4a7.127,7.127,0,0,1,7.1-7.1H149.5a7.127,7.127,0,0,1,7.1,7.1h0V71.2H64.1V85.4H320.3a7.127,7.127,0,0,1,7.1,7.1h0Z"/>
    <path id="Path_7152" class="cls-2" d="M149.5,135.2h14.2V277.5H149.5Z"/>
    <path id="Path_7153" class="cls-2" d="M106.8,128.1V146c-2.1.8-4.2,1.6-6.2,2.6L87.9,135.9a7.122,7.122,0,0,0-10.1,0L57.6,156.1a7.122,7.122,0,0,0,0,10.1l12.7,12.7c-1,2-1.8,4.1-2.6,6.2H49.8a7.127,7.127,0,0,0-7.1,7.1h0v28.5a7.127,7.127,0,0,0,7.1,7.1H67.7c.8,2.1,1.6,4.2,2.6,6.2L57.6,246.7a7.122,7.122,0,0,0,0,10.1l20.1,20.1a7.122,7.122,0,0,0,10.1,0l12.7-12.7c2,1,4.1,1.8,6.2,2.6v17.9a7.127,7.127,0,0,0,7.1,7.1h21.4V277.6H121V261.5a7.171,7.171,0,0,0-5.3-6.9,55.656,55.656,0,0,1-12.9-5.3,7.11,7.11,0,0,0-8.6,1.1L82.9,261.7,72.8,251.6l11.3-11.3a7.11,7.11,0,0,0,1.1-8.6,53.919,53.919,0,0,1-5.3-12.9,7.084,7.084,0,0,0-6.9-5.3H56.9V199.3H73a7.171,7.171,0,0,0,6.9-5.3,53.919,53.919,0,0,1,5.3-12.9,7.256,7.256,0,0,0-1.1-8.6L72.8,161.2l10-10.2,11.3,11.3a7.11,7.11,0,0,0,8.6,1.1,53.919,53.919,0,0,1,12.9-5.3,7.084,7.084,0,0,0,5.3-6.9V135.1h14.2V121H113.7a7.023,7.023,0,0,0-6.9,7.1Z"/>
    <path id="Path_7154" class="cls-2" d="M99.6,206.4a28.487,28.487,0,0,0,28.5,28.5h7.1V220.7h-7.1a14.2,14.2,0,0,1,0-28.4h7.1V178.1h-7.1a28.254,28.254,0,0,0-28.5,28.3Z"/>
    <path id="Path_7155" class="cls-2" d="M270.4,256.2a21.226,21.226,0,0,0-20,14.2H227.7V213.5a13.811,13.811,0,0,0-13.6-14.2H177.9v14.2h35.6v56.9a13.811,13.811,0,0,0,13.6,14.2h23.3a21.287,21.287,0,1,0,20-28.4Zm0,28.5a7.1,7.1,0,1,1,7.1-7.1,7,7,0,0,1-7.1,7.1Z"/>
    <path id="Path_7156" class="cls-2" d="M270.4,185a21.226,21.226,0,0,0-20,14.2H234.9v14.2h15.5a21.287,21.287,0,1,0,20-28.4Zm0,28.5a7.1,7.1,0,1,1,7.1-7.1,7.127,7.127,0,0,1-7.1,7.1Z"/>
    <path id="Path_7157" class="cls-2" d="M270.4,113.9a21.226,21.226,0,0,0-20,14.2H227.7a13.811,13.811,0,0,0-14.2,13.6h0V185h14.2V142.3h22.7a21.287,21.287,0,1,0,20-28.4Zm0,28.4a7.1,7.1,0,1,1,7.1-7.1,7,7,0,0,1-7.1,7.1Z"/>
    <path id="Path_7158" class="cls-2" d="M149.5,291.8h14.2V306H149.5Z"/>
    <path id="Path_7159" class="cls-2" d="M149.5,106.8h14.2V121H149.5Z"/>
  </g>
</svg>
