<svg xmlns="http://www.w3.org/2000/svg" viewBox="0 0 16.641 20">
  <defs>
    <style>
      .cls-1 {
        fill: none;
      }

      .cls-2 {
        fill: #bdc0c2;
      }

      .cls-3 {
        fill: #fff;
      }
    </style>
  </defs>
  <g id="icon-form-lake" transform="translate(-43)">
    <g id="Group_2148" data-name="Group 2148" transform="translate(43 0)">
      <g id="Group_2080" data-name="Group 2080" transform="translate(0)">
        <path id="Path_6518" data-name="Path 6518" class="cls-1" d="M70.231,19.9a.545.545,0,0,1-.523-.566V15.42H58.44v18.8H73.874V19.9Z" transform="translate(-57.837 -14.818)"/>
        <path id="Path_6519" data-name="Path 6519" class="cls-2" d="M59.484,4.336,55.688.193a.592.592,0,0,0-.273-.169L55.395,0a.248.248,0,0,0-.056,0,.784.784,0,0,0-.1-.008H43.6a.6.6,0,0,0-.6.6V19.4a.6.6,0,0,0,.6.6H59.037a.6.6,0,0,0,.6-.6V4.743A.573.573,0,0,0,59.484,4.336ZM59.041,19.4H43.6V.6H54.868V4.514a.547.547,0,0,0,.523.566h3.646V19.4Z" transform="translate(-43 0)"/>
      </g>
      <path id="Path_6520" data-name="Path 6520" class="cls-2" d="M236.9,337.794h1.377l-.117,1.546h1.378l.229-.8h-.457l.175-4.068h-1.548l-2.48,4.08-2.173-.012s-.249.554-.329.8h3.093Zm1.606-2.807-.174,2.177h-1.087Z" transform="translate(-225.53 -321.405)"/>
      <g id="Group_2082" data-name="Group 2082" transform="translate(1.716 4.522)">
        <g id="Group_2081" data-name="Group 2081">
          <path id="Path_6521" data-name="Path 6521" class="cls-3" d="M91.162,121.25a.161.161,0,0,1-.162-.161v-1.048a.161.161,0,0,1,.161-.161h1.05a.161.161,0,0,1,.161.161v1.048a.161.161,0,0,1-.161.161Z" transform="translate(-90.841 -119.719)"/>
          <path id="Path_6522" data-name="Path 6522" class="cls-2" d="M88.29,116.082v1.048H87.241v-1.048H88.29m0-.321H87.241a.323.323,0,0,0-.321.321v1.048a.323.323,0,0,0,.321.321H88.29a.323.323,0,0,0,.321-.321v-1.048a.323.323,0,0,0-.321-.322Z" transform="translate(-86.92 -115.76)"/>
        </g>
        <path id="Path_6523" data-name="Path 6523" class="cls-2" d="M164.268,127.817h-5.639a.348.348,0,0,1-.349-.348v-.15a.349.349,0,0,1,.349-.349h5.639a.349.349,0,0,1,.349.349v.148A.355.355,0,0,1,164.268,127.817Z" transform="translate(-155.492 -126.532)"/>
      </g>
      <g id="Group_2084" data-name="Group 2084" transform="translate(1.716 7.418)">
        <g id="Group_2083" data-name="Group 2083">
          <path id="Path_6524" data-name="Path 6524" class="cls-3" d="M91.162,195.37a.161.161,0,0,1-.162-.159v-1.05a.161.161,0,0,1,.162-.161h1.048a.161.161,0,0,1,.161.161v1.05a.161.161,0,0,1-.161.161Z" transform="translate(-90.841 -193.84)"/>
          <path id="Path_6525" data-name="Path 6525" class="cls-2" d="M88.29,190.221v1.05H87.241v-1.05H88.29m0-.321H87.241a.322.322,0,0,0-.321.321v1.05a.323.323,0,0,0,.321.321H88.29a.323.323,0,0,0,.321-.321v-1.05A.322.322,0,0,0,88.29,189.9Z" transform="translate(-86.92 -189.9)"/>
        </g>
        <path id="Path_6526" data-name="Path 6526" class="cls-2" d="M164.268,201.919h-5.639a.349.349,0,0,1-.349-.349v-.151a.349.349,0,0,1,.349-.349h5.639a.349.349,0,0,1,.349.349v.148A.355.355,0,0,1,164.268,201.919Z" transform="translate(-155.492 -200.634)"/>
      </g>
      <g id="Group_2086" data-name="Group 2086" transform="translate(1.716 10.229)">
        <g id="Group_2085" data-name="Group 2085">
          <path id="Path_6527" data-name="Path 6527" class="cls-3" d="M91.162,267.367a.161.161,0,0,1-.162-.159V266.16a.161.161,0,0,1,.162-.16h1.048a.161.161,0,0,1,.161.161v1.048a.161.161,0,0,1-.161.158Z" transform="translate(-90.841 -265.839)"/>
          <path id="Path_6528" data-name="Path 6528" class="cls-2" d="M88.29,262.191v1.048H87.241v-1.048H88.29m0-.321H87.241a.322.322,0,0,0-.321.321v1.048a.322.322,0,0,0,.321.321H88.29a.322.322,0,0,0,.321-.321v-1.048a.32.32,0,0,0-.318-.321Z" transform="translate(-86.92 -261.87)"/>
        </g>
        <path id="Path_6529" data-name="Path 6529" class="cls-2" d="M164.268,273.918h-5.639a.349.349,0,0,1-.349-.349v-.15a.349.349,0,0,1,.349-.349h5.639a.349.349,0,0,1,.349.349v.148A.355.355,0,0,1,164.268,273.918Z" transform="translate(-155.492 -272.633)"/>
      </g>
      <g id="Group_2088" data-name="Group 2088" transform="translate(1.716 13.164)">
        <g id="Group_2087" data-name="Group 2087">
          <path id="Path_6530" data-name="Path 6530" class="cls-3" d="M91.162,342.5a.161.161,0,0,1-.162-.161v-1.048a.161.161,0,0,1,.161-.161h1.05a.161.161,0,0,1,.161.161v1.048a.161.161,0,0,1-.161.161Z" transform="translate(-90.841 -340.969)"/>
          <path id="Path_6531" data-name="Path 6531" class="cls-2" d="M88.29,337.322v1.048H87.241v-1.048H88.29m0-.321H87.241a.323.323,0,0,0-.321.321v1.048a.322.322,0,0,0,.321.321H88.29a.322.322,0,0,0,.321-.321v-1.048A.323.323,0,0,0,88.29,337Z" transform="translate(-86.92 -337)"/>
        </g>
        <path id="Path_6532" data-name="Path 6532" class="cls-2" d="M162.991,349.068h-4.362a.349.349,0,0,1-.349-.349v-.15a.349.349,0,0,1,.349-.349H163a.349.349,0,0,1,.349.349v.15A.356.356,0,0,1,162.991,349.068Z" transform="translate(-155.492 -347.782)"/>
      </g>
    </g>
  </g>
</svg>
