<svg xmlns="http://www.w3.org/2000/svg" xmlns:xlink="http://www.w3.org/1999/xlink" viewBox="0 0 594.25 142.22"><defs><style>.cls-1{fill:none;}.cls-2{clip-path:url(#clip-path);}.cls-3{fill:#fff;}</style><clipPath id="clip-path" transform="translate(-3.09 -2.27)"><rect class="cls-1" width="600.43" height="146.77"/></clipPath></defs><title>Asset 1</title><g id="Layer_2" data-name="Layer 2"><g id="Layer_1-2" data-name="Layer 1"><g id="AA_Logo_White"><g class="cls-2"><g class="cls-2"><path class="cls-3" d="M597.34,40.87A10.72,10.72,0,0,0,586.48,30a10.59,10.59,0,0,0-7.66,3.11,10.4,10.4,0,0,0-3.22,7.75,10.4,10.4,0,0,0,3.3,7.85,10.86,10.86,0,0,0,18.44-7.8m-1,0a9.67,9.67,0,0,1-2.88,7,9.92,9.92,0,0,1-16.91-7,9.88,9.88,0,0,1,10-9.89,9.43,9.43,0,0,1,7,2.93,9.59,9.59,0,0,1,2.81,7m-3.94,2.8c-.19,1.1-.44,1.65-.77,1.65s-.42-.44-.64-1.31l-.3-1.16a3.2,3.2,0,0,0-1.53-2.3q3.21-.63,3.21-3.29a3.09,3.09,0,0,0-1.8-2.9,6.9,6.9,0,0,0-3.14-.55h-6.6v1.56a2.21,2.21,0,0,1,1.19.26,1.76,1.76,0,0,1,.18,1v7.85a3.07,3.07,0,0,1-.17,1.37,2.25,2.25,0,0,1-1.21.34v1.46h5.92V46.2a9,9,0,0,1-1.16-.21c-.27-.15-.4-.47-.4-1V41.16h.49a1.56,1.56,0,0,1,1.43.68,10.16,10.16,0,0,1,.74,2.16,11.4,11.4,0,0,0,.94,2.69,2.19,2.19,0,0,0,2,1.16,2.36,2.36,0,0,0,2.17-1.4,8.79,8.79,0,0,0,.8-2.56l-1.34-.22m-7.66-6.57a2.35,2.35,0,0,1,.23-1.37c.15-.16.63-.24,1.45-.24,1.6,0,2.41.6,2.41,1.8q0,1.56-1.74,1.86a11.08,11.08,0,0,1-1.68.09h-.67V37.1" transform="translate(-3.09 -2.27)"/><path class="cls-3" d="M20.59,133.88l-5.16-7.95,6.35-4.81c.92-.68,1.63-1.22,2.13-1.6l.89-.65q.38-.25.75-.48a4.14,4.14,0,0,1,.75-.34,5.65,5.65,0,0,1,.85-.28c.31-.09.65-.17,1-.25l.13-.57H21.62l-.15.6a2,2,0,0,1,.53.12,1.11,1.11,0,0,1,.34.22l.13.13.09.12.05.16,0,.12,0,.19-.05.16-.09.19-.13.19a5.38,5.38,0,0,1-.7.77,11.39,11.39,0,0,1-1.21,1L13,126.43l1.6-5.31c.21-.67.39-1.21.55-1.64a8.45,8.45,0,0,1,.36-.87,2.23,2.23,0,0,1,.41-.47,2.72,2.72,0,0,1,.56-.37,2.89,2.89,0,0,1,.6-.16,5.84,5.84,0,0,1,.85-.09l.15-.57H10.29l-.19.57.31,0a4.1,4.1,0,0,1,.94.09,1.78,1.78,0,0,1,.6.25,1,1,0,0,1,.28.38,1.35,1.35,0,0,1,.1.53,5.93,5.93,0,0,1-.11,1c-.08.39-.18.81-.3,1.27l-3.68,12.6c-.19.65-.36,1.19-.53,1.63a5.88,5.88,0,0,1-.44,1,1.23,1.23,0,0,1-.36.4,5.32,5.32,0,0,1-.55.33,2.42,2.42,0,0,1-.6.14,6,6,0,0,1-1,0l-.19.57h8.17l.25-.54c-.57,0-1-.09-1.37-.15a2.24,2.24,0,0,1-.74-.25,1.19,1.19,0,0,1-.33-.38,1.18,1.18,0,0,1-.11-.5,3.82,3.82,0,0,1,.13-.84c.08-.36.21-.84.37-1.42l2-6.88,4.21,6.62.61,1a3.83,3.83,0,0,1,.3.53l.06.24.06.2,0,.24v.23a1.13,1.13,0,0,1-.1.46,1.24,1.24,0,0,1-.34.42,1.25,1.25,0,0,1-.59.33,3.79,3.79,0,0,1-.91.14l-.13.57h8.86l.15-.54a5.46,5.46,0,0,1-1.32-.14,3.18,3.18,0,0,1-1-.42,5.15,5.15,0,0,1-1-1,17.63,17.63,0,0,1-1.25-1.77" transform="translate(-3.09 -2.27)"/><path class="cls-3" d="M32.11,130.86l2-7-5.31.94.1.54.6,0,.37,0,.25,0a1.35,1.35,0,0,1,.38,0,.54.54,0,0,1,.28.2.92.92,0,0,1,.23.27.73.73,0,0,1,.06.3,4.63,4.63,0,0,1-.13.72c-.08.35-.21.81-.38,1.35l-2.76,9.58h2.29l.76-2.48c.16-.5.34-1,.53-1.48a10.94,10.94,0,0,1,.66-1.38c.46-.82.91-1.56,1.35-2.25s.86-1.28,1.26-1.8A11.65,11.65,0,0,1,35.9,127a7,7,0,0,1,1.14-.92,5.25,5.25,0,0,1,.55-.25,1.55,1.55,0,0,1,.49-.09.53.53,0,0,1,.26.05l.21.14.17.22a.82.82,0,0,1,.05.28,4.05,4.05,0,0,1-.09.77c-.07.3-.15.63-.26,1l-1.79,6.19c-.16.58-.29,1.09-.37,1.52a5.21,5.21,0,0,0-.13,1,1.5,1.5,0,0,0,.08.5.8.8,0,0,0,.23.35,1.45,1.45,0,0,0,.41.27,1.61,1.61,0,0,0,.51.07,2.18,2.18,0,0,0,.75-.14,4.84,4.84,0,0,0,.85-.39,8.83,8.83,0,0,0,1.32-1.16,12.11,12.11,0,0,0,1.38-1.79l-.47-.25c-.34.44-.65.82-.94,1.14a8.13,8.13,0,0,1-.85.83l-.24.15-.2,0-.13,0-.12-.11-.1-.16,0-.19a3,3,0,0,1,.08-.47c.05-.23.13-.54.23-.94l1.89-6.41a11.65,11.65,0,0,0,.33-1.37,6.47,6.47,0,0,0,.11-1.08,2,2,0,0,0-.13-.77,1.41,1.41,0,0,0-.37-.55,1.78,1.78,0,0,0-1.26-.5,3.49,3.49,0,0,0-1.43.33,6.13,6.13,0,0,0-1.52,1,16.27,16.27,0,0,0-1.86,2.07q-1.09,1.42-2.54,3.52" transform="translate(-3.09 -2.27)"/><path class="cls-3" d="M58.37,128.66v0a5.2,5.2,0,0,0-.34-1.94,4.18,4.18,0,0,0-1-1.52,4.41,4.41,0,0,0-1.49-1,5,5,0,0,0-1.84-.33,6.86,6.86,0,0,0-2.06.33,10,10,0,0,0-2.15,1,10,10,0,0,0-3.45,3.58,11,11,0,0,0-1,2.26,8.08,8.08,0,0,0-.33,2.26,5.35,5.35,0,0,0,.33,1.93,4.29,4.29,0,0,0,1,1.53,3.66,3.66,0,0,0,1.52,1,5.53,5.53,0,0,0,1.9.3,7.35,7.35,0,0,0,2.1-.3,7.89,7.89,0,0,0,2.14-.95,9,9,0,0,0,3.39-3.58,9.09,9.09,0,0,0,1.23-4.59m-2.55-1v0a11.79,11.79,0,0,1-.47,3.26,14.89,14.89,0,0,1-1.41,3.27,9,9,0,0,1-2,2.4,3.3,3.3,0,0,1-2.11.8,2.45,2.45,0,0,1-1-.2,2.73,2.73,0,0,1-.85-.58,2.84,2.84,0,0,1-.53-1,4,4,0,0,1-.19-1.29,11.49,11.49,0,0,1,.47-3.21,14.21,14.21,0,0,1,1.42-3.2,8,8,0,0,1,2-2.43,3.49,3.49,0,0,1,2.17-.8,2.73,2.73,0,0,1,1,.18,2.35,2.35,0,0,1,.8.57,2.47,2.47,0,0,1,.52.93,4.27,4.27,0,0,1,.17,1.24" transform="translate(-3.09 -2.27)"/><path class="cls-3" d="M74.67,135.38,73.6,123.89H73l-6.28,10.43a2.24,2.24,0,0,1,0-.35c0-.14,0-.34,0-.57s0-.45,0-.72,0-.57,0-.91a41.35,41.35,0,0,0-.44-4.61,20.59,20.59,0,0,0-.75-3.27l-4.4,1v.6a5.43,5.43,0,0,1,.63-.08h.5a2.33,2.33,0,0,1,.68.09,1.5,1.5,0,0,1,.49.25,2.11,2.11,0,0,1,.44.77,7.47,7.47,0,0,1,.31,1.31c.19,1.27.34,2.76.46,4.47s.18,3.64.2,5.79h.69l6.31-10.58,1,10.58h.56A9.75,9.75,0,0,0,74.35,137c.42-.49.92-1.1,1.51-1.81s1.15-1.48,1.71-2.24,1.1-1.57,1.65-2.4.81-1.32,1.11-1.89a9.77,9.77,0,0,0,.68-1.5c.06-.24.11-.48.16-.73a4.93,4.93,0,0,0,.06-.78,2.35,2.35,0,0,0-.11-.71,1.33,1.33,0,0,0-.33-.55,1.39,1.39,0,0,0-1.07-.44,1.51,1.51,0,0,0-.48.08,1.22,1.22,0,0,0-.43.24,1.07,1.07,0,0,0-.25.35,1.18,1.18,0,0,0-.09.46,1,1,0,0,0,0,.3,1.39,1.39,0,0,0,.15.3.86.86,0,0,0,.2.26,1.9,1.9,0,0,0,.36.3,1.78,1.78,0,0,1,.34.24l.16.17a1.82,1.82,0,0,1,.11.28,1.19,1.19,0,0,1,0,.32,2.54,2.54,0,0,1-.24.94,11.24,11.24,0,0,1-.7,1.38c-.53.9-1.15,1.84-1.87,2.83s-1.52,2-2.4,3" transform="translate(-3.09 -2.27)"/><path class="cls-3" d="M86.38,134.19l5.24-18.25-5.24.88v.6a5.41,5.41,0,0,1,.61-.08h.45a3,3,0,0,1,.55,0,.79.79,0,0,1,.59.46.85.85,0,0,1,.06.31,3.53,3.53,0,0,1-.13.64c-.08.35-.21.81-.37,1.37L84,134.57c-.17.58-.29,1.07-.37,1.44a4,4,0,0,0-.13.82,1.28,1.28,0,0,0,.09.48,1.18,1.18,0,0,0,.32.43,1.61,1.61,0,0,0,.42.25,1.55,1.55,0,0,0,.55.09,2.37,2.37,0,0,0,.8-.14,7,7,0,0,0,.9-.36,7.43,7.43,0,0,0,1.29-1.13,19.73,19.73,0,0,0,1.41-1.79l-.47-.44a11.85,11.85,0,0,1-.87,1.15,7.52,7.52,0,0,1-.8.8,3.24,3.24,0,0,1-.33.2.6.6,0,0,1-.29.08l-.23,0-.15-.11-.1-.18,0-.22a2.58,2.58,0,0,1,.1-.57c.06-.27.15-.65.28-1.13" transform="translate(-3.09 -2.27)"/><path class="cls-3" d="M95.64,132v0a24.61,24.61,0,0,0,2.77-.41,14,14,0,0,0,2-.56,12.72,12.72,0,0,0,2.28-1.09,7.2,7.2,0,0,0,1.64-1.36,3.88,3.88,0,0,0,.79-1.18,3.27,3.27,0,0,0,.25-1.27,1.85,1.85,0,0,0-.2-.83,2.42,2.42,0,0,0-.58-.71,2.52,2.52,0,0,0-1-.5,5.37,5.37,0,0,0-1.41-.16,7.6,7.6,0,0,0-2.22.33,9.44,9.44,0,0,0-4.11,2.57,12.89,12.89,0,0,0-1.59,2.12,11.46,11.46,0,0,0-1.05,2.38,7.81,7.81,0,0,0-.36,2.3,4.84,4.84,0,0,0,.28,1.62,5.34,5.34,0,0,0,.85,1.49,3.36,3.36,0,0,0,1.41,1,5.39,5.39,0,0,0,2,.32,7.49,7.49,0,0,0,3.39-.87,14.33,14.33,0,0,0,3.55-2.71l-.31-.4c-.67.52-1.26.94-1.76,1.27a10.32,10.32,0,0,1-1.29.73,5.5,5.5,0,0,1-1,.34,5.44,5.44,0,0,1-1.06.1,3.44,3.44,0,0,1-1.29-.23,3,3,0,0,1-1.07-.71,3,3,0,0,1-.74-1,3.5,3.5,0,0,1-.23-1.27c0-.17,0-.35,0-.56s0-.47.09-.76m.1-.75v0a15,15,0,0,1,1.06-2.86,7.32,7.32,0,0,1,1.51-2A8.84,8.84,0,0,1,100,125.1a3.49,3.49,0,0,1,1.6-.43,1.91,1.91,0,0,1,.66.1,1.24,1.24,0,0,1,.5.31,1.11,1.11,0,0,1,.32.44,1.8,1.8,0,0,1,.09.6,3,3,0,0,1-.23,1.07,5.49,5.49,0,0,1-.71,1.16,5.13,5.13,0,0,1-1.18,1.08,10.54,10.54,0,0,1-1.65.93,9.29,9.29,0,0,1-1.64.53,14.63,14.63,0,0,1-2.06.32" transform="translate(-3.09 -2.27)"/><path class="cls-3" d="M118.44,134,123.72,116l-5.28.87v.6a6.83,6.83,0,0,1,.68-.08h.48a1.6,1.6,0,0,1,.46.06.89.89,0,0,1,.36.19l.16.25a.64.64,0,0,1,.06.28,2.69,2.69,0,0,1,0,.47,2.78,2.78,0,0,1-.14.53,1.67,1.67,0,0,1-.11.41c0,.15-.1.31-.14.48l-1.5,5.36q-.17-.18-.3-.36a2.69,2.69,0,0,0-.3-.29,3.3,3.3,0,0,0-.3-.27,2.23,2.23,0,0,0-.3-.2,2.12,2.12,0,0,0-.64-.24,3.79,3.79,0,0,0-.77-.08,4.8,4.8,0,0,0-1.67.33,9.2,9.2,0,0,0-1.82,1,12.58,12.58,0,0,0-2.13,1.87,12.7,12.7,0,0,0-2.78,4.85,8.39,8.39,0,0,0-.36,2.38,5.11,5.11,0,0,0,.22,1.58,3.8,3.8,0,0,0,.62,1.22,2.93,2.93,0,0,0,1,.74,2.64,2.64,0,0,0,1.1.23,3.3,3.3,0,0,0,1.16-.22,6.11,6.11,0,0,0,1.22-.62,11.94,11.94,0,0,0,1.93-1.84,24,24,0,0,0,2.12-2.94l-.59,1.95a10.8,10.8,0,0,0-.33,1.3,5.08,5.08,0,0,0-.11,1,2.3,2.3,0,0,0,.07.62.79.79,0,0,0,.24.39,1.73,1.73,0,0,0,.41.25,1.23,1.23,0,0,0,.47.09,2.57,2.57,0,0,0,1-.22,4.47,4.47,0,0,0,1.09-.66,11.36,11.36,0,0,0,1.12-1.09,11.82,11.82,0,0,0,1.1-1.42l-.53-.28c-.4.48-.74.87-1,1.18a5.71,5.71,0,0,1-.69.64l-.25.17-.22,0-.14,0-.14-.1-.1-.15,0-.14a3.6,3.6,0,0,1,.11-.72l.33-1.26m-.44-7.19v0a7.44,7.44,0,0,1-.59,2.78,17.64,17.64,0,0,1-1.79,3.25,13.79,13.79,0,0,1-2.2,2.59,2.94,2.94,0,0,1-1.82.87,1.45,1.45,0,0,1-.65-.16,1.71,1.71,0,0,1-.55-.47A2.24,2.24,0,0,1,110,135a3.37,3.37,0,0,1-.13-1,9.12,9.12,0,0,1,.52-3,14.59,14.59,0,0,1,1.55-3.12,10.52,10.52,0,0,1,2.06-2.39,3.19,3.19,0,0,1,2-.78,2.12,2.12,0,0,1,.81.14,1.63,1.63,0,0,1,.64.45,1.77,1.77,0,0,1,.42.68,2.39,2.39,0,0,1,.14.86" transform="translate(-3.09 -2.27)"/><path class="cls-3" d="M139.23,126.43l.44-1.6-4.11,0a4.72,4.72,0,0,0-.71-.42,5.1,5.1,0,0,0-.73-.3,3.7,3.7,0,0,0-.82-.17c-.32,0-.67,0-1.07,0a9,9,0,0,0-2.84.42,6.59,6.59,0,0,0-2.25,1.28,6.48,6.48,0,0,0-1.41,1.83,4.68,4.68,0,0,0-.47,2.06,3.65,3.65,0,0,0,.23,1.29,3.73,3.73,0,0,0,.74,1.13,4.06,4.06,0,0,0,1.16.91,5.26,5.26,0,0,0,1.51.5,14.65,14.65,0,0,0-1.63.8,5.18,5.18,0,0,0-1,.74,2,2,0,0,0-.45.65,1.48,1.48,0,0,0-.14.64,1.25,1.25,0,0,0,.17.63,2,2,0,0,0,.52.59c-.65.34-1.17.61-1.56.84s-.65.38-.8.48a4,4,0,0,0-.55.54,7.61,7.61,0,0,0-.45.62,2.13,2.13,0,0,0-.35.71,2.83,2.83,0,0,0-.09.68,2.26,2.26,0,0,0,.15.8,2.85,2.85,0,0,0,.51.77,2.56,2.56,0,0,0,.83.69,5.94,5.94,0,0,0,1.33.53,9.54,9.54,0,0,0,1.67.35,17.18,17.18,0,0,0,1.82.09,15.49,15.49,0,0,0,2.09-.14,11.89,11.89,0,0,0,1.87-.42,9.73,9.73,0,0,0,1.55-.71,4.6,4.6,0,0,0,1.15-.93,3.78,3.78,0,0,0,.69-1.11,3.33,3.33,0,0,0,.22-1.21,2.66,2.66,0,0,0-.19-1,2.85,2.85,0,0,0-.56-.88,4,4,0,0,0-1.23-.71,17.33,17.33,0,0,0-2-.64l-3-.66-.52-.13a1.67,1.67,0,0,1-.4-.16l-.31-.12-.19-.13a1.15,1.15,0,0,1-.19-.26.74.74,0,0,1-.06-.27l0-.13,0-.15.1-.13.12-.13a4.32,4.32,0,0,1,1-.62,12,12,0,0,1,1.43-.54,8.76,8.76,0,0,0,2.69-.5,6.54,6.54,0,0,0,2.06-1.22,6.25,6.25,0,0,0,1.28-1.72A4.14,4.14,0,0,0,137,128a4.78,4.78,0,0,0-.06-.73,5,5,0,0,0-.22-.84ZM126,138.38a5.83,5.83,0,0,1,1.07-.64l3.12.75c.79.19,1.34.32,1.65.38a7,7,0,0,1,1.38.39,3.07,3.07,0,0,1,.85.49,1.69,1.69,0,0,1,.42.53,1.27,1.27,0,0,1,.15.6,1.71,1.71,0,0,1-.38,1.08,2.78,2.78,0,0,1-1.16.83,7.17,7.17,0,0,1-1.73.57,10.1,10.1,0,0,1-2,.19,9.35,9.35,0,0,1-2.23-.24,4.51,4.51,0,0,1-1.63-.7,1.9,1.9,0,0,1-.92-1.67,2.28,2.28,0,0,1,0-.44c0-.14.07-.29.11-.44s.13-.29.21-.44a3.28,3.28,0,0,1,.26-.43,4.5,4.5,0,0,1,.82-.81m8.42-11.13v0a4.31,4.31,0,0,1-.08.68c-.06.28-.13.63-.24,1a5.9,5.9,0,0,1-.34,1.1,8.6,8.6,0,0,1-.48.91,3.11,3.11,0,0,1-.58.67,5.29,5.29,0,0,1-.7.55,3,3,0,0,1-.77.33,2.71,2.71,0,0,1-.8.11,2.26,2.26,0,0,1-.94-.19,2.45,2.45,0,0,1-.82-.56,2.63,2.63,0,0,1-.53-.86,2.94,2.94,0,0,1-.19-1.09,5.93,5.93,0,0,1,.28-1.83,7.41,7.41,0,0,1,.85-1.78,3.79,3.79,0,0,1,1.28-1.3,3,3,0,0,1,1.57-.43,2.73,2.73,0,0,1,1,.18,1.8,1.8,0,0,1,.77.51,2.05,2.05,0,0,1,.52.83,3.16,3.16,0,0,1,.18,1.09" transform="translate(-3.09 -2.27)"/><path class="cls-3" d="M143.69,132v0a24.61,24.61,0,0,0,2.77-.41,14,14,0,0,0,2-.56,13.06,13.06,0,0,0,2.28-1.09,7.2,7.2,0,0,0,1.64-1.36,3.88,3.88,0,0,0,.79-1.18,3.27,3.27,0,0,0,.25-1.27,1.85,1.85,0,0,0-.2-.83,2.42,2.42,0,0,0-.58-.71,2.52,2.52,0,0,0-1-.5,5.37,5.37,0,0,0-1.41-.16,7.6,7.6,0,0,0-2.22.33,9.77,9.77,0,0,0-2.18,1,9.46,9.46,0,0,0-1.93,1.58,12.89,12.89,0,0,0-1.59,2.12,11.46,11.46,0,0,0-1.05,2.38,7.81,7.81,0,0,0-.36,2.3,4.6,4.6,0,0,0,.28,1.62,5.34,5.34,0,0,0,.85,1.49,3.36,3.36,0,0,0,1.41,1,5.39,5.39,0,0,0,1.95.32,7.49,7.49,0,0,0,3.39-.87,14.33,14.33,0,0,0,3.55-2.71l-.31-.4c-.67.52-1.26.94-1.76,1.27a10.32,10.32,0,0,1-1.29.73,5.5,5.5,0,0,1-1,.34,5.44,5.44,0,0,1-1.06.1,3.44,3.44,0,0,1-1.29-.23,3,3,0,0,1-1.07-.71,2.88,2.88,0,0,1-.74-1,3.5,3.5,0,0,1-.23-1.27c0-.17,0-.35,0-.56s.05-.47.09-.76m.1-.75v0a15,15,0,0,1,1.06-2.86,7.13,7.13,0,0,1,1.51-2,8.84,8.84,0,0,1,1.73-1.24,3.49,3.49,0,0,1,1.6-.43,1.91,1.91,0,0,1,.66.1,1.24,1.24,0,0,1,.5.31,1.11,1.11,0,0,1,.32.44,1.8,1.8,0,0,1,.09.6,3,3,0,0,1-.23,1.07,5.49,5.49,0,0,1-.71,1.16,5.13,5.13,0,0,1-1.18,1.08,10.54,10.54,0,0,1-1.65.93,9.15,9.15,0,0,1-1.65.53,14.25,14.25,0,0,1-2.05.32" transform="translate(-3.09 -2.27)"/><path class="cls-3" d="M167.72,134.63l3-10.74-5.27.85v.63l.88-.12a4,4,0,0,1,.5,0,1.48,1.48,0,0,1,.38,0,1.08,1.08,0,0,1,.28.15.91.91,0,0,1,.19.26.8.8,0,0,1,.06.3,3.55,3.55,0,0,1-.13.76c-.08.35-.21.79-.37,1.32l-2,6.9a11,11,0,0,0-.32,1.13,4.34,4.34,0,0,0-.09.76,1.27,1.27,0,0,0,.11.52,1.14,1.14,0,0,0,.3.39,1.77,1.77,0,0,0,1,.35,2.93,2.93,0,0,0,1-.19,4.25,4.25,0,0,0,1-.57,9,9,0,0,0,1.34-1.21,10.49,10.49,0,0,0,1.11-1.49l-.53-.31a12.31,12.31,0,0,1-.88,1.11,6.71,6.71,0,0,1-.88.83,1.14,1.14,0,0,1-.3.19.6.6,0,0,1-.24.06l-.2,0-.14-.11-.11-.17,0-.24a2.64,2.64,0,0,1,.08-.41c.05-.21.13-.51.24-.91m2.82-16.83v0a1.81,1.81,0,0,0-.58.09,1.37,1.37,0,0,0-.52.35,1.49,1.49,0,0,0-.32.48,1.52,1.52,0,0,0-.12.62,1.25,1.25,0,0,0,.13.56,2.58,2.58,0,0,0,.35.51,1.47,1.47,0,0,0,1.06.43,1.52,1.52,0,0,0,.6-.11,1.38,1.38,0,0,0,.5-.32,1.84,1.84,0,0,0,.33-.51,1.25,1.25,0,0,0,.11-.56,1.52,1.52,0,0,0-.11-.62,1.38,1.38,0,0,0-.33-.48,1.07,1.07,0,0,0-.48-.35,2.62,2.62,0,0,0-.62-.12" transform="translate(-3.09 -2.27)"/><path class="cls-3" d="M183.61,128.6l.91-4.71-.56,0a1.58,1.58,0,0,1-.49.55,1.06,1.06,0,0,1-.61.17,1.4,1.4,0,0,1-.4-.09l-.67-.22-.65-.24-.36-.11-.42,0a3.32,3.32,0,0,0-.46,0,4.54,4.54,0,0,0-1.55.25,3.52,3.52,0,0,0-1.24.76,3.2,3.2,0,0,0-.8,1.14,3.52,3.52,0,0,0-.27,1.37,3.21,3.21,0,0,0,.1.81,3.61,3.61,0,0,0,.28.82,8.72,8.72,0,0,0,.64,1c.29.41.66.89,1.12,1.43a12.38,12.38,0,0,1,1.16,1.43,9.34,9.34,0,0,1,.66,1.11,2.47,2.47,0,0,1,.19.54,2.91,2.91,0,0,1,.06.6,2.2,2.2,0,0,1-.17.86,2.56,2.56,0,0,1-.52.74,2.61,2.61,0,0,1-.8.49,3.13,3.13,0,0,1-1,.16,3.54,3.54,0,0,1-1.35-.23,2.62,2.62,0,0,1-1-.74,3.29,3.29,0,0,1-.68-1.32,10,10,0,0,1-.3-2h-.56l-.91,4.93h.53a1.38,1.38,0,0,1,.46-.47,1.18,1.18,0,0,1,.58-.16,1.4,1.4,0,0,1,.34.05,4.72,4.72,0,0,1,.45.15,12.19,12.19,0,0,0,1.34.32,6.38,6.38,0,0,0,1.2.11,5.74,5.74,0,0,0,1.85-.28,4.17,4.17,0,0,0,1.51-.88,4.47,4.47,0,0,0,1-1.33,3.48,3.48,0,0,0,.33-1.49,4,4,0,0,0-.14-1,6.3,6.3,0,0,0-.43-1.09c-.21-.35-.52-.81-.94-1.37s-1-1.18-1.63-1.9c-.25-.29-.46-.54-.61-.75s-.28-.39-.37-.53a2,2,0,0,1-.17-.49,2.54,2.54,0,0,1,0-.49,1.75,1.75,0,0,1,.14-.67,1.72,1.72,0,0,1,.43-.58,1.66,1.66,0,0,1,.63-.38,2.88,2.88,0,0,1,.88-.12,2.54,2.54,0,0,1,1.08.22,2.47,2.47,0,0,1,.89.69,3,3,0,0,1,.62,1.22,8,8,0,0,1,.23,1.76Z" transform="translate(-3.09 -2.27)"/><path class="cls-3" d="M208.1,117h-8.16l-.19.59a7.11,7.11,0,0,1,1.24.16,2.53,2.53,0,0,1,.71.28,1.42,1.42,0,0,1,.33.42,1,1,0,0,1,.11.47A5.82,5.82,0,0,1,202,120c-.1.47-.26,1-.47,1.74l-3.42,11.87a19.45,19.45,0,0,1-.73,2,3.38,3.38,0,0,1-.65,1.07,2.4,2.4,0,0,1-.88.4,5.08,5.08,0,0,1-1.35.1l-.16.57h8.23l.15-.54c-.52,0-.95-.09-1.28-.15a1.82,1.82,0,0,1-.7-.25,1.28,1.28,0,0,1-.33-.37.93.93,0,0,1-.1-.45,4.69,4.69,0,0,1,.14-1c.09-.44.24-1,.45-1.73l1.67-5.62a20.43,20.43,0,0,0,2,.37,11.39,11.39,0,0,0,1.62.13,10.9,10.9,0,0,0,2.26-.22,9.68,9.68,0,0,0,2.07-.69,7.76,7.76,0,0,0,1.75-1.09,6.74,6.74,0,0,0,1.24-1.33,5.93,5.93,0,0,0,.78-1.52,4.9,4.9,0,0,0,.25-1.56,4.23,4.23,0,0,0-.39-1.83,4.52,4.52,0,0,0-1.21-1.52,4.77,4.77,0,0,0-2-1.07,11.24,11.24,0,0,0-2.85-.38M204.35,127a10.94,10.94,0,0,1-1.55-.36l2.38-8.25c.51-.09,1-.15,1.4-.19a9.93,9.93,0,0,1,1.15-.07,5.23,5.23,0,0,1,1.68.24,3.47,3.47,0,0,1,1.21.67,2.85,2.85,0,0,1,.7,1,3.88,3.88,0,0,1,.24,1.4,5.45,5.45,0,0,1-.79,2.86,4.8,4.8,0,0,1-.91,1.21,4.87,4.87,0,0,1-1.22.86,6.19,6.19,0,0,1-1.46.52,7,7,0,0,1-1.59.18,7.57,7.57,0,0,1-1.24-.12" transform="translate(-3.09 -2.27)"/><path class="cls-3" d="M229.62,128.66v0a5.41,5.41,0,0,0-.33-1.94,4.34,4.34,0,0,0-1-1.52,4.41,4.41,0,0,0-1.49-1,5,5,0,0,0-1.84-.33,6.86,6.86,0,0,0-2.06.33,10,10,0,0,0-2.15,1,10.33,10.33,0,0,0-1.93,1.55,10.8,10.8,0,0,0-1.53,2,11.46,11.46,0,0,0-1,2.26,8.08,8.08,0,0,0-.33,2.26,5.35,5.35,0,0,0,.33,1.93,4.29,4.29,0,0,0,1,1.53,3.66,3.66,0,0,0,1.52,1,5.53,5.53,0,0,0,1.9.3,7.35,7.35,0,0,0,2.1-.3,8,8,0,0,0,2.14-.95,9,9,0,0,0,3.39-3.58,9.09,9.09,0,0,0,1.23-4.59m-2.55-1v0a11.43,11.43,0,0,1-.47,3.26,14.43,14.43,0,0,1-1.41,3.27,9,9,0,0,1-2,2.4,3.29,3.29,0,0,1-2.1.8,2.46,2.46,0,0,1-1-.2,2.85,2.85,0,0,1-.85-.58,3,3,0,0,1-.53-1,4,4,0,0,1-.19-1.29,11.49,11.49,0,0,1,.47-3.21,14.67,14.67,0,0,1,1.42-3.2,8,8,0,0,1,2-2.43,3.47,3.47,0,0,1,2.17-.8,2.73,2.73,0,0,1,1,.18,2.34,2.34,0,0,1,1.32,1.5,4.27,4.27,0,0,1,.17,1.24" transform="translate(-3.09 -2.27)"/><path class="cls-3" d="M245.92,135.38l-1.07-11.49h-.57L238,134.32a1.53,1.53,0,0,1,0-.35,4.63,4.63,0,0,1,0-.57c0-.2,0-.45-.05-.72s0-.57,0-.91a41.56,41.56,0,0,0-.43-4.61,21.63,21.63,0,0,0-.76-3.27l-4.4,1v.6a5.71,5.71,0,0,1,.63-.08h.5a2.33,2.33,0,0,1,.68.09,1.5,1.5,0,0,1,.49.25,2.11,2.11,0,0,1,.44.77,7.47,7.47,0,0,1,.31,1.31c.19,1.27.34,2.76.46,4.47s.18,3.64.2,5.79h.69L243,127.5l1,10.58h.56A9.75,9.75,0,0,0,245.6,137c.42-.49.93-1.1,1.51-1.81s1.16-1.48,1.71-2.24,1.1-1.57,1.65-2.4.81-1.32,1.11-1.89a9.77,9.77,0,0,0,.68-1.5c.06-.24.12-.48.16-.73a4.93,4.93,0,0,0,.06-.78,2.35,2.35,0,0,0-.11-.71,1.33,1.33,0,0,0-.33-.55,1.44,1.44,0,0,0-.47-.33,1.59,1.59,0,0,0-1.08,0,1.22,1.22,0,0,0-.43.24,1.24,1.24,0,0,0-.25.35,1.18,1.18,0,0,0-.09.46,1,1,0,0,0,0,.3,1.39,1.39,0,0,0,.15.3.86.86,0,0,0,.2.26,1.9,1.9,0,0,0,.36.3,1.78,1.78,0,0,1,.34.24l.16.17a1.17,1.17,0,0,1,.11.28,1.19,1.19,0,0,1,0,.32,2.7,2.7,0,0,1-.23.94,13.21,13.21,0,0,1-.71,1.38,32.68,32.68,0,0,1-1.87,2.83c-.72,1-1.52,2-2.4,3" transform="translate(-3.09 -2.27)"/><path class="cls-3" d="M257.28,132v0a24.61,24.61,0,0,0,2.77-.41,14,14,0,0,0,2-.56,12.72,12.72,0,0,0,2.28-1.09,6.79,6.79,0,0,0,1.64-1.36,3.88,3.88,0,0,0,.79-1.18,3.27,3.27,0,0,0,.25-1.27,1.85,1.85,0,0,0-.2-.83,2.42,2.42,0,0,0-.58-.71,2.46,2.46,0,0,0-1-.5,5.37,5.37,0,0,0-1.41-.16,7.6,7.6,0,0,0-2.22.33,10,10,0,0,0-2.18,1,9.74,9.74,0,0,0-1.93,1.58,13.48,13.48,0,0,0-1.59,2.12,11.46,11.46,0,0,0-1.05,2.38,7.81,7.81,0,0,0-.36,2.3,4.84,4.84,0,0,0,.28,1.62,5.34,5.34,0,0,0,.85,1.49,3.36,3.36,0,0,0,1.41,1,5.39,5.39,0,0,0,1.95.32,7.49,7.49,0,0,0,3.39-.87A14.33,14.33,0,0,0,266,134.5l-.31-.4c-.67.52-1.26.94-1.76,1.27a10.32,10.32,0,0,1-1.29.73,5.27,5.27,0,0,1-1,.34,5.44,5.44,0,0,1-1.06.1,3.44,3.44,0,0,1-1.29-.23,3.13,3.13,0,0,1-1.07-.71,3,3,0,0,1-.74-1,3.5,3.5,0,0,1-.23-1.27c0-.17,0-.35,0-.56s.05-.47.09-.76m.1-.75v0a14.37,14.37,0,0,1,1.07-2.86,7.29,7.29,0,0,1,1.5-2,8.84,8.84,0,0,1,1.73-1.24,3.53,3.53,0,0,1,1.6-.43,1.87,1.87,0,0,1,.66.1,1.24,1.24,0,0,1,.5.31,1.11,1.11,0,0,1,.32.44,1.8,1.8,0,0,1,.09.6,2.76,2.76,0,0,1-.23,1.07,5.49,5.49,0,0,1-.71,1.16,5.13,5.13,0,0,1-1.18,1.08,10.54,10.54,0,0,1-1.65.93,9.15,9.15,0,0,1-1.65.53,14.25,14.25,0,0,1-2.05.32" transform="translate(-3.09 -2.27)"/><path class="cls-3" d="M275.22,123.89l-5.28.85.09.59.74-.09.46,0a1.58,1.58,0,0,1,.45.06,1.79,1.79,0,0,1,.37.16l.15.2a.6.6,0,0,1,.07.27,5.11,5.11,0,0,1-.13,1c-.09.39-.21.84-.38,1.36l-2.82,9.52h2.35l.47-1.88c0-.11.13-.34.25-.7l.51-1.41a9.92,9.92,0,0,1,.5-1.21,10.91,10.91,0,0,1,.6-1.08c.47-.8.95-1.52,1.41-2.17a21,21,0,0,1,1.35-1.73c.27-.31.51-.57.7-.77a4.32,4.32,0,0,1,.49-.42l.25-.09.26,0,.13,0,.15.09.09.12a2.61,2.61,0,0,1,.06.26,2,2,0,0,0,.11.42,1.08,1.08,0,0,0,.21.3.68.68,0,0,0,.28.17,1.19,1.19,0,0,0,.32,0,1.17,1.17,0,0,0,.61-.17,1.45,1.45,0,0,0,.45-.52,3.57,3.57,0,0,0,.38-.93,4.07,4.07,0,0,0,.13-1,2,2,0,0,0-.07-.51.66.66,0,0,0-.22-.37.63.63,0,0,0-.33-.21,1.33,1.33,0,0,0-.45-.07,2,2,0,0,0-.91.25,5.46,5.46,0,0,0-1.13.79,14.91,14.91,0,0,0-2.33,2.51,38.09,38.09,0,0,0-2.54,3.86Z" transform="translate(-3.09 -2.27)"/><path class="cls-3" d="M316,117h-15.8l-1.44,5.53.56,0a10.3,10.3,0,0,1,.49-1.43,4.76,4.76,0,0,1,.61-1,4.11,4.11,0,0,1,.79-.77,4,4,0,0,1,1-.55,4.76,4.76,0,0,1,1.27-.37,13,13,0,0,1,1.62-.13h1.26L302,133c-.21.73-.4,1.34-.58,1.82s-.32.83-.42,1.07a4.16,4.16,0,0,1-.39.58,2,2,0,0,1-.43.36,2.54,2.54,0,0,1-.78.28,4.54,4.54,0,0,1-1.07.06h-.38l-.19.57h9l.19-.57-.69,0a5,5,0,0,1-1-.1,1.79,1.79,0,0,1-.68-.28,1.39,1.39,0,0,1-.38-.43,1.07,1.07,0,0,1-.12-.51,6.5,6.5,0,0,1,.18-1.15c.13-.56.33-1.29.6-2.22L309,118.21l1.63,0a11.84,11.84,0,0,1,1.76.1,1.94,1.94,0,0,1,.91.34,1.74,1.74,0,0,1,.52.7,2.61,2.61,0,0,1,.17,1,9.33,9.33,0,0,1-.06,1,7.93,7.93,0,0,1-.22,1.1h.59Z" transform="translate(-3.09 -2.27)"/><path class="cls-3" d="M316.39,134.63l3-10.74-5.27.85v.63l.88-.12a4,4,0,0,1,.5,0,1.43,1.43,0,0,1,.38,0,1.08,1.08,0,0,1,.28.15.91.91,0,0,1,.19.26.8.8,0,0,1,.06.3,4.08,4.08,0,0,1-.12.76c-.09.35-.22.79-.38,1.32l-2,6.9a11,11,0,0,0-.32,1.13,4.34,4.34,0,0,0-.09.76,1.27,1.27,0,0,0,.11.52,1.14,1.14,0,0,0,.3.39,1.77,1.77,0,0,0,.47.25,1.7,1.7,0,0,0,.57.1,2.92,2.92,0,0,0,1-.19,4.25,4.25,0,0,0,1-.57,8.52,8.52,0,0,0,1.34-1.21,9.78,9.78,0,0,0,1.11-1.49l-.53-.31a10.76,10.76,0,0,1-.88,1.11,6.71,6.71,0,0,1-.88.83,1,1,0,0,1-.3.19.6.6,0,0,1-.23.06l-.2,0-.15-.11-.11-.17,0-.24a2.21,2.21,0,0,1,.07-.41c.06-.21.13-.51.24-.91m2.83-16.83v0a1.87,1.87,0,0,0-.59.09,1.34,1.34,0,0,0-.51.35,1.38,1.38,0,0,0-.33.48,1.52,1.52,0,0,0-.11.62,1.25,1.25,0,0,0,.12.56,2.58,2.58,0,0,0,.35.51,1.49,1.49,0,0,0,.48.32,1.44,1.44,0,0,0,.59.11,1.47,1.47,0,0,0,.59-.11,1.52,1.52,0,0,0,.51-.32,2,2,0,0,0,.32-.51,1.25,1.25,0,0,0,.11-.56,1.52,1.52,0,0,0-.11-.62,1.49,1.49,0,0,0-.32-.48,1.15,1.15,0,0,0-.49-.35,2.75,2.75,0,0,0-.61-.12" transform="translate(-3.09 -2.27)"/><path class="cls-3" d="M326.63,130.8l2-6.91-5.28.94.13.6.72-.11a1.85,1.85,0,0,1,.37,0,1.62,1.62,0,0,1,.46,0,.56.56,0,0,1,.33.2,1.23,1.23,0,0,1,.24.28.74.74,0,0,1,.07.32v.19l-.08.22-.38,1.29-2.82,9.92h2.26c.48-1.49.87-2.69,1.18-3.6s.52-1.5.64-1.77a17.22,17.22,0,0,1,1-1.84c.38-.62.8-1.25,1.26-1.9A15.31,15.31,0,0,1,330,127a6,6,0,0,1,1.07-.94,2.09,2.09,0,0,1,.55-.29,1.52,1.52,0,0,1,.51-.09l.24,0,.17.17a.49.49,0,0,1,.14.23,1.27,1.27,0,0,1,.05.37,4.29,4.29,0,0,1-.11.75c-.07.33-.19.74-.33,1.22l-2.61,9.27H332c.36-1.17.73-2.25,1.1-3.24a26.61,26.61,0,0,1,1.17-2.63,24.43,24.43,0,0,1,1.9-3.13,15,15,0,0,1,2.06-2.34,2.12,2.12,0,0,1,.7-.5,1.64,1.64,0,0,1,.68-.16l.11,0,.11,0,.09.07.1.09a1.31,1.31,0,0,1,.15.6v.28l0,.14v.14c0,.07-.07.25-.14.57s-.2.74-.36,1.29l-1.41,4.93c-.21.75-.37,1.38-.48,1.87a6.08,6.08,0,0,0-.15,1.11,1.37,1.37,0,0,0,.09.49.7.7,0,0,0,.29.36,1.67,1.67,0,0,0,.4.25,1.24,1.24,0,0,0,.47.1,2.3,2.3,0,0,0,.63-.1,5.47,5.47,0,0,0,.66-.25,2.89,2.89,0,0,0,.75-.54c.27-.25.58-.54.91-.87s.62-.68.84-1a5.63,5.63,0,0,0,.51-.77l-.5-.28a7.3,7.3,0,0,1-.78,1,7.49,7.49,0,0,1-.85.77,2.19,2.19,0,0,1-.33.24.53.53,0,0,1-.2.08l-.14,0-.12-.1-.09-.15,0-.22a4.64,4.64,0,0,1,.12-.63c.09-.36.22-.87.41-1.54l1.7-5.94a6.1,6.1,0,0,0,.22-1,7.19,7.19,0,0,0,.06-.91,3.38,3.38,0,0,0-.11-.91,1.21,1.21,0,0,0-.36-.6,1.32,1.32,0,0,0-.52-.36,1.91,1.91,0,0,0-.64-.11,3.32,3.32,0,0,0-1.21.25,4.67,4.67,0,0,0-1.24.79,13.48,13.48,0,0,0-2.31,2.59,38.87,38.87,0,0,0-2.43,3.94l1.1-3.86c.1-.42.19-.79.25-1.12a4.75,4.75,0,0,0,.09-.86,1.92,1.92,0,0,0-.12-.69,1.78,1.78,0,0,0-.38-.57,1.57,1.57,0,0,0-.57-.36,2.17,2.17,0,0,0-.69-.11,3.68,3.68,0,0,0-.89.11,3.23,3.23,0,0,0-.84.36,9.08,9.08,0,0,0-1.39,1.13,16,16,0,0,0-1.43,1.63,15.3,15.3,0,0,0-1,1.53c-.38.62-.78,1.32-1.22,2.12" transform="translate(-3.09 -2.27)"/><path class="cls-3" d="M349.58,134.63l3-10.74-5.28.85v.63l.88-.12a4.12,4.12,0,0,1,.51,0,1.35,1.35,0,0,1,.37,0,.84.84,0,0,1,.28.15.75.75,0,0,1,.19.26.65.65,0,0,1,.06.3,4.08,4.08,0,0,1-.12.76c-.08.35-.21.79-.38,1.32l-2,6.9a8.91,8.91,0,0,0-.32,1.13,4.34,4.34,0,0,0-.09.76,1.15,1.15,0,0,0,.41.91,1.63,1.63,0,0,0,.47.25,1.6,1.6,0,0,0,.56.1,2.83,2.83,0,0,0,1-.19,4.11,4.11,0,0,0,1-.57,8.46,8.46,0,0,0,1.33-1.21,10.54,10.54,0,0,0,1.12-1.49l-.53-.31a12.31,12.31,0,0,1-.88,1.11,7.4,7.4,0,0,1-.88.83,1.33,1.33,0,0,1-.3.19.69.69,0,0,1-.24.06l-.2,0-.14-.11-.11-.17-.05-.24a2.64,2.64,0,0,1,.08-.41c0-.21.13-.51.23-.91m2.83-16.83v0a1.81,1.81,0,0,0-.58.09,1.37,1.37,0,0,0-.52.35,1.43,1.43,0,0,0-.44,1.1,1.13,1.13,0,0,0,.13.56,2.51,2.51,0,0,0,.34.51,1.54,1.54,0,0,0,.49.32,1.4,1.4,0,0,0,.58.11,1.52,1.52,0,0,0,.6-.11,1.47,1.47,0,0,0,.5-.32,1.84,1.84,0,0,0,.33-.51,1.4,1.4,0,0,0,.11-.56,1.71,1.71,0,0,0-.11-.62,1.38,1.38,0,0,0-.33-.48,1.15,1.15,0,0,0-.49-.35,2.53,2.53,0,0,0-.61-.12" transform="translate(-3.09 -2.27)"/><path class="cls-3" d="M359.89,130.86l2-7-5.31.94.09.54.6,0,.38,0,.25,0a1.46,1.46,0,0,1,.38,0,.64.64,0,0,1,.28.2.87.87,0,0,1,.22.27.73.73,0,0,1,.06.3,3.64,3.64,0,0,1-.13.72c-.08.35-.21.81-.37,1.35l-2.77,9.58h2.3l.75-2.48c.17-.5.34-1,.53-1.48a10.94,10.94,0,0,1,.66-1.38c.47-.82.92-1.56,1.35-2.25s.86-1.28,1.26-1.8a11.65,11.65,0,0,1,1.21-1.38,7,7,0,0,1,1.15-.92,5.13,5.13,0,0,1,.54-.25,1.55,1.55,0,0,1,.49-.09.59.59,0,0,1,.27.05l.2.14.18.22a.82.82,0,0,1,0,.28,4.05,4.05,0,0,1-.09.77c-.07.3-.15.63-.25,1l-1.79,6.19c-.17.58-.3,1.09-.38,1.52a5.92,5.92,0,0,0-.12,1,1.51,1.51,0,0,0,.07.5.81.81,0,0,0,.24.35,1.33,1.33,0,0,0,.41.27,1.51,1.51,0,0,0,.5.07,2.14,2.14,0,0,0,.75-.14,4.26,4.26,0,0,0,.85-.39,8.83,8.83,0,0,0,1.32-1.16,12.11,12.11,0,0,0,1.38-1.79l-.47-.25c-.33.44-.65.82-.94,1.14a7.26,7.26,0,0,1-.85.83l-.24.15-.2,0-.13,0-.12-.11-.1-.16,0-.19a3,3,0,0,1,.08-.47c.05-.23.13-.54.24-.94l1.88-6.41a11.65,11.65,0,0,0,.33-1.37,5.56,5.56,0,0,0,.11-1.08,2.26,2.26,0,0,0-.12-.77,1.43,1.43,0,0,0-.38-.55,1.75,1.75,0,0,0-.57-.37,1.68,1.68,0,0,0-.68-.13,3.54,3.54,0,0,0-1.44.33,6.31,6.31,0,0,0-1.52,1,15.6,15.6,0,0,0-1.85,2.07q-1.1,1.42-2.54,3.52" transform="translate(-3.09 -2.27)"/><path class="cls-3" d="M387.52,126.43l.44-1.6-4.11,0a4.72,4.72,0,0,0-.71-.42,5.21,5.21,0,0,0-.74-.3,3.49,3.49,0,0,0-.81-.17c-.32,0-.68,0-1.07,0a9,9,0,0,0-2.84.42,6.59,6.59,0,0,0-2.25,1.28,6.3,6.3,0,0,0-1.41,1.83,4.54,4.54,0,0,0-.47,2.06,3.44,3.44,0,0,0,.23,1.29,3.73,3.73,0,0,0,.74,1.13,3.93,3.93,0,0,0,1.16.91,5.16,5.16,0,0,0,1.51.5,15.84,15.84,0,0,0-1.64.8,5.39,5.39,0,0,0-1,.74,2,2,0,0,0-.45.65,1.5,1.5,0,0,0-.15.64,1.26,1.26,0,0,0,.18.63,2.12,2.12,0,0,0,.51.59c-.65.34-1.16.61-1.55.84s-.65.38-.8.48a4,4,0,0,0-.55.54,7.67,7.67,0,0,0-.46.62,2.3,2.3,0,0,0-.34.71,2.83,2.83,0,0,0-.09.68,2.26,2.26,0,0,0,.15.8,2.8,2.8,0,0,0,.5.77,2.72,2.72,0,0,0,.84.69,5.94,5.94,0,0,0,1.33.53,9.54,9.54,0,0,0,1.67.35,17.18,17.18,0,0,0,1.82.09,15.49,15.49,0,0,0,2.09-.14,12.14,12.14,0,0,0,1.87-.42,9.73,9.73,0,0,0,1.55-.71,4.6,4.6,0,0,0,1.15-.93,3.78,3.78,0,0,0,.69-1.11,3.55,3.55,0,0,0,.22-1.21,2.66,2.66,0,0,0-.19-1,2.89,2.89,0,0,0-.57-.88,3.88,3.88,0,0,0-1.22-.71,17.33,17.33,0,0,0-2-.64l-3-.66-.51-.13a1.67,1.67,0,0,1-.4-.16l-.31-.12-.19-.13a.91.91,0,0,1-.19-.26.74.74,0,0,1-.06-.27v-.13l.05-.15.1-.13.12-.13a4.12,4.12,0,0,1,1-.62,12,12,0,0,1,1.43-.54,8.76,8.76,0,0,0,2.69-.5,6.54,6.54,0,0,0,2.06-1.22,6.25,6.25,0,0,0,1.28-1.72,4.27,4.27,0,0,0,.44-1.9,4.78,4.78,0,0,0-.06-.73,6.16,6.16,0,0,0-.22-.84Zm-13.28,11.95a6.08,6.08,0,0,1,1.06-.64l3.13.75c.78.19,1.33.32,1.65.38a7.46,7.46,0,0,1,1.38.39,3.07,3.07,0,0,1,.85.49,1.69,1.69,0,0,1,.42.53,1.26,1.26,0,0,1,.14.6,1.7,1.7,0,0,1-.37,1.08,2.75,2.75,0,0,1-1.17.83,7.09,7.09,0,0,1-1.72.57,10.1,10.1,0,0,1-2,.19,9.29,9.29,0,0,1-2.23-.24,4.65,4.65,0,0,1-1.64-.7,2.1,2.1,0,0,1-.69-.74,2.06,2.06,0,0,1-.22-.93,2.28,2.28,0,0,1,0-.44c0-.14.07-.29.11-.44l.2-.44a3.39,3.39,0,0,1,.27-.43,4.2,4.2,0,0,1,.82-.81m8.41-11.13v0a4.09,4.09,0,0,1-.07.68q-.09.42-.24,1a5.24,5.24,0,0,1-.35,1.1,7.06,7.06,0,0,1-.47.91,3.11,3.11,0,0,1-.58.67,4.8,4.8,0,0,1-.71.55,3,3,0,0,1-.76.33,2.73,2.73,0,0,1-.81.11,2.32,2.32,0,0,1-.94-.19,2.51,2.51,0,0,1-.81-.56,2.84,2.84,0,0,1-.54-.86,3.16,3.16,0,0,1-.18-1.09,5.93,5.93,0,0,1,.28-1.83,7.41,7.41,0,0,1,.85-1.78,3.79,3.79,0,0,1,1.28-1.3,3,3,0,0,1,1.57-.43,2.82,2.82,0,0,1,1,.18,1.89,1.89,0,0,1,.76.51,2.17,2.17,0,0,1,.52.83,3.16,3.16,0,0,1,.17,1.09" transform="translate(-3.09 -2.27)"/><path class="cls-3" d="M401.18,134.63l3-10.74-5.28.85v.63l.88-.12a4.13,4.13,0,0,1,.5,0,1.38,1.38,0,0,1,.38,0,.84.84,0,0,1,.28.15.75.75,0,0,1,.19.26.82.82,0,0,1,.07.3,4.36,4.36,0,0,1-.13.76c-.08.35-.21.79-.38,1.32l-2,6.9a10.62,10.62,0,0,0-.31,1.13,4.34,4.34,0,0,0-.09.76,1.13,1.13,0,0,0,.11.52,1.24,1.24,0,0,0,.29.39,1.94,1.94,0,0,0,.47.25,1.7,1.7,0,0,0,.57.1,2.88,2.88,0,0,0,1-.19,4.3,4.3,0,0,0,1-.57,8.92,8.92,0,0,0,1.33-1.21,10.54,10.54,0,0,0,1.12-1.49l-.54-.31a9.56,9.56,0,0,1-.88,1.11,6.13,6.13,0,0,1-.88.83,1.1,1.1,0,0,1-.29.19.69.69,0,0,1-.24.06l-.2,0-.15-.11-.1-.17-.05-.24a1.78,1.78,0,0,1,.08-.41c.05-.21.13-.51.23-.91M404,117.8v0a1.81,1.81,0,0,0-.58.09,1.62,1.62,0,0,0-.85.83,1.71,1.71,0,0,0-.11.62,1.13,1.13,0,0,0,.13.56,2.16,2.16,0,0,0,.34.51,1.54,1.54,0,0,0,.49.32,1.4,1.4,0,0,0,.58.11,1.52,1.52,0,0,0,.6-.11,1.58,1.58,0,0,0,.5-.32,2.1,2.1,0,0,0,.33-.51,1.4,1.4,0,0,0,.11-.56,1.71,1.71,0,0,0-.11-.62,1.53,1.53,0,0,0-.33-.48,1.15,1.15,0,0,0-.49-.35,2.53,2.53,0,0,0-.61-.12" transform="translate(-3.09 -2.27)"/><path class="cls-3" d="M417.07,128.6l.92-4.71-.57,0a1.58,1.58,0,0,1-.49.55,1,1,0,0,1-.61.17,1.43,1.43,0,0,1-.39-.09c-.18-.06-.4-.14-.68-.22l-.64-.24-.36-.11-.42,0a3.32,3.32,0,0,0-.46,0,4.6,4.6,0,0,0-1.56.25,3.52,3.52,0,0,0-1.24.76,3.33,3.33,0,0,0-.8,1.14,3.72,3.72,0,0,0-.17,2.18,4.18,4.18,0,0,0,.28.82,9,9,0,0,0,.65,1,17.36,17.36,0,0,0,1.11,1.43A12.38,12.38,0,0,1,412.8,133a7.23,7.23,0,0,1,.66,1.11,2.47,2.47,0,0,1,.19.54,2.9,2.9,0,0,1,.07.6,2,2,0,0,1-.18.86,2.38,2.38,0,0,1-.52.74,2.61,2.61,0,0,1-.8.49,3.05,3.05,0,0,1-1.05.16,3.61,3.61,0,0,1-1.35-.23,2.69,2.69,0,0,1-1-.74,3.41,3.41,0,0,1-.67-1.32,8.73,8.73,0,0,1-.3-2h-.57l-.91,4.93h.54a1.27,1.27,0,0,1,.45-.47,1.18,1.18,0,0,1,.58-.16,1.55,1.55,0,0,1,.35.05c.12,0,.27.08.44.15A11.81,11.81,0,0,0,410,138a6.35,6.35,0,0,0,1.19.11,5.85,5.85,0,0,0,1.86-.28,4.21,4.21,0,0,0,1.5-.88,4.47,4.47,0,0,0,1-1.33,3.48,3.48,0,0,0,.33-1.49,3.58,3.58,0,0,0-.14-1,5.52,5.52,0,0,0-.42-1.09c-.21-.35-.53-.81-1-1.37a23.93,23.93,0,0,0-1.63-1.9c-.25-.29-.45-.54-.61-.75a5,5,0,0,1-.36-.53,2,2,0,0,1-.17-.49,2.54,2.54,0,0,1-.05-.49,1.75,1.75,0,0,1,.14-.67,1.69,1.69,0,0,1,.42-.58,1.66,1.66,0,0,1,.63-.38,2.93,2.93,0,0,1,.88-.12,2.51,2.51,0,0,1,1.08.22,2.42,2.42,0,0,1,.9.69,3,3,0,0,1,.61,1.22,7.41,7.41,0,0,1,.24,1.76Z" transform="translate(-3.09 -2.27)"/><path class="cls-3" d="M436.29,126.31l2.36-8.23,2.64,0q1.32,0,2.16.06a4.78,4.78,0,0,1,1.23.22,4,4,0,0,1,.88.46,2.82,2.82,0,0,1,.63.61,2.59,2.59,0,0,1,.29.63,2.17,2.17,0,0,1,.11.72c0,.17,0,.35,0,.55a4.44,4.44,0,0,1-.08.61h.57l1.28-5h-15l-.18.57.34,0a4.52,4.52,0,0,1,1,.09,1.5,1.5,0,0,1,.58.25,1,1,0,0,1,.32.4,1.36,1.36,0,0,1,.09.51,5.83,5.83,0,0,1-.11,1,10.8,10.8,0,0,1-.33,1.3l-3.64,12.57c-.19.67-.37,1.22-.54,1.66a5.14,5.14,0,0,1-.44,1,1.23,1.23,0,0,1-.36.4c-.16.11-.33.22-.52.33a2.29,2.29,0,0,1-.62.14,5.23,5.23,0,0,1-1,0l-.19.57h16.05l1.95-5.78-.57,0a11.16,11.16,0,0,1-1.51,2.25A7,7,0,0,1,442,135.7a7.65,7.65,0,0,1-2.09.77,11.3,11.3,0,0,1-2.68.23l-1.86,0a6.25,6.25,0,0,1-.83-.05.8.8,0,0,1-.45-.17,1.2,1.2,0,0,1-.29-.32.74.74,0,0,1-.09-.38,2.69,2.69,0,0,1,.08-.62c.05-.26.12-.56.2-.92l2-6.91,2,0c.5,0,.91,0,1.24,0a2,2,0,0,1,.71.18,2,2,0,0,1,.44.23,1.38,1.38,0,0,1,.31.33,1.14,1.14,0,0,1,.2.47,2.69,2.69,0,0,1,.05.6,5.47,5.47,0,0,1-.06.74,7,7,0,0,1-.19.86h.6l2.13-7.54-.56,0a5.88,5.88,0,0,1-.73,1.42,3.29,3.29,0,0,1-.88.9,3.74,3.74,0,0,1-1.22.49,7.43,7.43,0,0,1-1.79.14Z" transform="translate(-3.09 -2.27)"/><path class="cls-3" d="M453.66,123.89l-4.43.94.1.57a6,6,0,0,1,.62-.1l.47,0a1.41,1.41,0,0,1,.76.19,1.47,1.47,0,0,1,.53.57,15.62,15.62,0,0,1,1,4.24c.25,2,.44,4.61.56,7.81h.57c1-1,1.85-1.83,2.41-2.41s.9-.95,1-1.07c.8-.94,1.49-1.79,2.09-2.55s1.07-1.4,1.42-1.94.67-1.08.92-1.56a7.27,7.27,0,0,0,.56-1.3,3.47,3.47,0,0,0,.19-.72,4.94,4.94,0,0,0,.07-.79,2,2,0,0,0-.13-.7,1.92,1.92,0,0,0-.38-.62,1.39,1.39,0,0,0-.5-.37,1.45,1.45,0,0,0-.63-.13,1.19,1.19,0,0,0-.49.1,1.24,1.24,0,0,0-.42.28,1,1,0,0,0-.31.4,1.12,1.12,0,0,0-.1.48,1.09,1.09,0,0,0,.19.61,2.11,2.11,0,0,0,.53.55,3,3,0,0,1,.54.49.69.69,0,0,1,.18.42,1.87,1.87,0,0,1,0,.42,3.85,3.85,0,0,1-.14.46,4.38,4.38,0,0,1-.27.66c-.11.23-.26.48-.42.75l-.76,1-1.6,2.2c-.12.16-.37.47-.75.91s-.88,1-1.51,1.69c-.08-1.3-.15-2.36-.2-3.2s-.1-1.45-.14-1.85q-.14-1.2-.3-2.22c-.12-.68-.24-1.31-.36-1.9a5.22,5.22,0,0,1-.18-.56c0-.19-.11-.39-.17-.6a5.37,5.37,0,0,0-.21-.56l-.23-.6" transform="translate(-3.09 -2.27)"/><path class="cls-3" d="M467.13,132v0a24.61,24.61,0,0,0,2.77-.41,14,14,0,0,0,2-.56,12.61,12.61,0,0,0,2.27-1.09,7.05,7.05,0,0,0,1.65-1.36,3.88,3.88,0,0,0,.79-1.18,3.27,3.27,0,0,0,.25-1.27,1.85,1.85,0,0,0-.2-.83,2.42,2.42,0,0,0-.58-.71,2.52,2.52,0,0,0-1-.5,5.37,5.37,0,0,0-1.41-.16,7.55,7.55,0,0,0-2.22.33,9.77,9.77,0,0,0-2.18,1,9.46,9.46,0,0,0-1.93,1.58,12.89,12.89,0,0,0-1.59,2.12,11.46,11.46,0,0,0-1,2.38,7.81,7.81,0,0,0-.36,2.3,4.6,4.6,0,0,0,.28,1.62,5.34,5.34,0,0,0,.85,1.49,3.36,3.36,0,0,0,1.41,1,5.39,5.39,0,0,0,1.95.32,7.49,7.49,0,0,0,3.39-.87,14.33,14.33,0,0,0,3.55-2.71l-.31-.4c-.68.52-1.26.94-1.76,1.27a10.32,10.32,0,0,1-1.29.73,5.5,5.5,0,0,1-1,.34,5.44,5.44,0,0,1-1.06.1,3.44,3.44,0,0,1-1.29-.23,3,3,0,0,1-1.07-.71,2.88,2.88,0,0,1-.74-1,3.3,3.3,0,0,1-.23-1.27c0-.17,0-.35,0-.56s0-.47.09-.76m.1-.75v0a15,15,0,0,1,1.06-2.86,7.32,7.32,0,0,1,1.51-2,8.84,8.84,0,0,1,1.73-1.24,3.49,3.49,0,0,1,1.6-.43,1.91,1.91,0,0,1,.66.1,1.24,1.24,0,0,1,.5.31,1.11,1.11,0,0,1,.32.44,1.8,1.8,0,0,1,.09.6,3,3,0,0,1-.23,1.07,5.49,5.49,0,0,1-.71,1.16,5.13,5.13,0,0,1-1.18,1.08,10.54,10.54,0,0,1-1.65.93,9.15,9.15,0,0,1-1.65.53,14.25,14.25,0,0,1-2,.32" transform="translate(-3.09 -2.27)"/><path class="cls-3" d="M485.07,123.89l-5.28.85.09.59.74-.09.46,0a1.58,1.58,0,0,1,.45.06,1.5,1.5,0,0,1,.36.16l.16.2a.6.6,0,0,1,.06.27,5,5,0,0,1-.12,1c-.09.39-.21.84-.38,1.36l-2.82,9.52h2.35l.47-1.88c0-.11.13-.34.25-.7s.29-.82.5-1.41a11.86,11.86,0,0,1,.51-1.21,9.17,9.17,0,0,1,.59-1.08c.48-.8,1-1.52,1.42-2.17a21,21,0,0,1,1.35-1.73c.27-.31.5-.57.7-.77a4.32,4.32,0,0,1,.49-.42l.25-.09.25,0,.14,0,.15.09.09.12a2.61,2.61,0,0,1,.06.26,1.51,1.51,0,0,0,.11.42.9.9,0,0,0,.21.3.62.62,0,0,0,.28.17,1.12,1.12,0,0,0,.31,0,1.18,1.18,0,0,0,.62-.17,1.45,1.45,0,0,0,.45-.52,4,4,0,0,0,.38-.93,4.07,4.07,0,0,0,.12-1,2,2,0,0,0-.06-.51.66.66,0,0,0-.22-.37.63.63,0,0,0-.33-.21,1.33,1.33,0,0,0-.45-.07,2,2,0,0,0-.91.25,5.46,5.46,0,0,0-1.13.79,14.91,14.91,0,0,0-2.33,2.51,38.09,38.09,0,0,0-2.54,3.86Z" transform="translate(-3.09 -2.27)"/><path class="cls-3" d="M496.84,124.75a7.79,7.79,0,0,0-.44-.86l-4.49,1.1.13.59c.29,0,.53-.06.72-.07l.44,0a2.75,2.75,0,0,1,.88.12,1.33,1.33,0,0,1,.56.38,2.55,2.55,0,0,1,.38,1,15.62,15.62,0,0,1,.25,1.9l.88,9.67c-.25.31-.56.67-.92,1.08s-.8.86-1.28,1.37-.72.7-1,1a5.5,5.5,0,0,1-.91.68l-.19.11-.13.05-.11,0-.08-.05-.06-.07-.06-.11-.05-.15-.05-.17a1.71,1.71,0,0,0-.14-.27l-.11-.17a.69.69,0,0,0-.23-.09l-.27,0a1.4,1.4,0,0,0-.58.12,2.1,2.1,0,0,0-.9.9,1.3,1.3,0,0,0-.12.55,1.06,1.06,0,0,0,.09.45,1.46,1.46,0,0,0,.28.4,1.6,1.6,0,0,0,.37.25,1.06,1.06,0,0,0,.45.09,2.61,2.61,0,0,0,.88-.16,3.59,3.59,0,0,0,1-.5,8.42,8.42,0,0,0,1.43-1.18c.58-.55,1.25-1.27,2-2.15,1.11-1.25,2.14-2.46,3.11-3.61s1.83-2.26,2.6-3.33,1.47-2,2-2.81a20.62,20.62,0,0,0,1.21-2,8.53,8.53,0,0,0,.61-1.49,4.59,4.59,0,0,0,.2-1.31,2.94,2.94,0,0,0-.11-.86,1.55,1.55,0,0,0-.36-.67,1.65,1.65,0,0,0-.51-.4,1.62,1.62,0,0,0-.65-.14,1.16,1.16,0,0,0-.91.38,1.07,1.07,0,0,0-.28.44,1.6,1.6,0,0,0-.1.56,1.4,1.4,0,0,0,.08.47,1.47,1.47,0,0,0,.24.44,1.76,1.76,0,0,0,.34.33,1.14,1.14,0,0,0,.41.21l.19.06.16.06.11.06.08.07.09.11,0,.17v.25l-.08.25c-.07.15-.17.37-.32.65s-.34.63-.59,1c-.42.67-.8,1.27-1.15,1.81s-.66,1-1,1.36c-.58.82-1.1,1.52-1.54,2.11a17.71,17.71,0,0,1-1.13,1.38l-.66-7.51q0-.57-.09-1c0-.32-.08-.61-.1-.86s-.07-.47-.11-.66a2.45,2.45,0,0,0-.11-.48,4.27,4.27,0,0,0-.28-.83" transform="translate(-3.09 -2.27)"/><path class="cls-3" d="M513.17,124.23l1.19-4.14-.69,0c-.46.73-.9,1.37-1.31,1.9a8,8,0,0,1-1.17,1.24,5.47,5.47,0,0,1-1.27.8,8.56,8.56,0,0,1-1.55.55l-.16.6h2.32L508,134.13c-.17.56-.29,1.05-.38,1.47a5.8,5.8,0,0,0-.12,1,1.52,1.52,0,0,0,.11.6,1.45,1.45,0,0,0,.33.5,1.8,1.8,0,0,0,1.1.34l.44,0a3.29,3.29,0,0,0,.43-.09,3,3,0,0,1,.41-.17,2.53,2.53,0,0,0,.44-.21,8.33,8.33,0,0,0,1.31-1.16,12.82,12.82,0,0,0,1.36-1.79l-.5-.35c-.44.53-.8.95-1.07,1.26l-.56.63a2.61,2.61,0,0,1-.58.41,1.16,1.16,0,0,1-.46.12l-.14,0-.14-.09-.1-.18,0-.23a3.62,3.62,0,0,1,.11-.66l.33-1.26,2.64-9h2.39l.25-1Z" transform="translate(-3.09 -2.27)"/><path class="cls-3" d="M520.68,130.83l4.3-14.89-5.31.88v.63l.32,0a3.43,3.43,0,0,1,.5-.08l.35,0a1.33,1.33,0,0,1,.45.08,1,1,0,0,1,.36.24.81.81,0,0,1,.24.31,1,1,0,0,1,.08.35l-.54,1.91-5,17.53h2.29l1-3.11a8.42,8.42,0,0,1,.47-1.21q.29-.58.6-1.11l1.65-2.64a11.94,11.94,0,0,1,.8-1.19,13.75,13.75,0,0,1,1.27-1.5,6.32,6.32,0,0,1,1.12-.92,2.36,2.36,0,0,1,.55-.24,1.78,1.78,0,0,1,.48-.08.88.88,0,0,1,.29.05l.22.14.14.19a.82.82,0,0,1,0,.28,4.42,4.42,0,0,1-.09.79c-.06.31-.15.64-.25,1l-1.76,6.16c-.19.62-.33,1.14-.41,1.55a5.56,5.56,0,0,0-.13,1,1.46,1.46,0,0,0,.1.52.83.83,0,0,0,.25.36,1.79,1.79,0,0,0,.42.25,1.5,1.5,0,0,0,.52.09,1.91,1.91,0,0,0,.55-.09,6.08,6.08,0,0,0,.65-.25,3.1,3.1,0,0,0,.73-.49,8.11,8.11,0,0,0,.84-.83,11.36,11.36,0,0,0,.83-.93,7.45,7.45,0,0,0,.61-.89l-.47-.25c-.15.21-.29.4-.44.58s-.28.34-.41.49a6.25,6.25,0,0,1-.44.45,2.89,2.89,0,0,1-.44.36l-.23.14-.21,0-.17,0-.14-.1-.09-.15,0-.22a3.2,3.2,0,0,1,.08-.38c.05-.21.14-.52.27-.94l1.88-6.38c.13-.48.23-.92.3-1.33a5.8,5.8,0,0,0,.11-1.12,2.37,2.37,0,0,0-.11-.78,1.21,1.21,0,0,0-.36-.57,1.71,1.71,0,0,0-.56-.37,1.65,1.65,0,0,0-.66-.13,3.52,3.52,0,0,0-1.46.33,6.1,6.1,0,0,0-1.56,1,16,16,0,0,0-1.87,2.07c-.72.93-1.54,2.08-2.46,3.46" transform="translate(-3.09 -2.27)"/><path class="cls-3" d="M536.57,134.63l3-10.74-5.27.85v.63l.88-.12a4.13,4.13,0,0,1,.5,0,1.43,1.43,0,0,1,.38,0,.94.94,0,0,1,.28.15.91.91,0,0,1,.19.26.8.8,0,0,1,.06.3,4.08,4.08,0,0,1-.12.76c-.09.35-.21.79-.38,1.32l-2,6.9a8.66,8.66,0,0,0-.31,1.13,3.68,3.68,0,0,0-.1.76,1.15,1.15,0,0,0,.41.91,1.77,1.77,0,0,0,.47.25,1.7,1.7,0,0,0,.57.1,2.88,2.88,0,0,0,1-.19,4.25,4.25,0,0,0,1-.57,8.52,8.52,0,0,0,1.34-1.21,9.78,9.78,0,0,0,1.11-1.49l-.53-.31a10.76,10.76,0,0,1-.88,1.11,6.71,6.71,0,0,1-.88.83,1,1,0,0,1-.3.19.6.6,0,0,1-.23.06l-.21,0-.14-.11-.11-.17,0-.24a2.21,2.21,0,0,1,.07-.41c.06-.21.13-.51.24-.91m2.83-16.83v0a1.76,1.76,0,0,0-.58.09,1.29,1.29,0,0,0-.52.35,1.38,1.38,0,0,0-.33.48,1.52,1.52,0,0,0-.11.62,1.25,1.25,0,0,0,.12.56,2.22,2.22,0,0,0,.35.51,1.43,1.43,0,0,0,.49.32,1.36,1.36,0,0,0,.58.11,1.51,1.51,0,0,0,.59-.11,1.38,1.38,0,0,0,.5-.32,1.84,1.84,0,0,0,.33-.51,1.25,1.25,0,0,0,.11-.56,1.52,1.52,0,0,0-.11-.62,1.38,1.38,0,0,0-.33-.48,1.12,1.12,0,0,0-.48-.35,2.64,2.64,0,0,0-.61-.12" transform="translate(-3.09 -2.27)"/><path class="cls-3" d="M546.87,130.86l2-7-5.31.94.1.54.59,0,.38,0,.25,0a1.35,1.35,0,0,1,.38,0,.59.59,0,0,1,.28.2.75.75,0,0,1,.22.27.73.73,0,0,1,.07.3,4.63,4.63,0,0,1-.13.72c-.08.35-.21.81-.38,1.35l-2.76,9.58h2.29l.76-2.48c.16-.5.34-1,.53-1.48a10.94,10.94,0,0,1,.66-1.38c.46-.82.91-1.56,1.35-2.25s.86-1.28,1.25-1.8a12.64,12.64,0,0,1,1.21-1.38,7,7,0,0,1,1.15-.92,5.25,5.25,0,0,1,.55-.25,1.55,1.55,0,0,1,.49-.09.53.53,0,0,1,.26.05l.21.14.17.22a.82.82,0,0,1,0,.28,3.46,3.46,0,0,1-.1.77c-.06.3-.14.63-.25,1l-1.79,6.19a15.61,15.61,0,0,0-.37,1.52,5.21,5.21,0,0,0-.13,1,1.5,1.5,0,0,0,.08.5.8.8,0,0,0,.23.35,1.45,1.45,0,0,0,.41.27,1.61,1.61,0,0,0,.51.07,2.18,2.18,0,0,0,.75-.14,4.84,4.84,0,0,0,.85-.39,9.36,9.36,0,0,0,1.32-1.16,12.11,12.11,0,0,0,1.38-1.79l-.48-.25q-.5.66-.93,1.14a7.28,7.28,0,0,1-.86.83l-.23.15-.2,0-.13,0-.12-.11-.1-.16,0-.19a3,3,0,0,1,.08-.47c.05-.23.13-.54.23-.94l1.89-6.41a14.06,14.06,0,0,0,.33-1.37,6.47,6.47,0,0,0,.11-1.08,2.26,2.26,0,0,0-.13-.77,1.33,1.33,0,0,0-.38-.55,1.61,1.61,0,0,0-.56-.37,1.73,1.73,0,0,0-.69-.13,3.49,3.49,0,0,0-1.43.33,6.13,6.13,0,0,0-1.52,1,16.27,16.27,0,0,0-1.86,2.07q-1.1,1.42-2.54,3.52" transform="translate(-3.09 -2.27)"/><path class="cls-3" d="M574.51,126.43l.44-1.6-4.12,0a4.27,4.27,0,0,0-.71-.42,4.66,4.66,0,0,0-.73-.3,3.58,3.58,0,0,0-.82-.17c-.31,0-.67,0-1.07,0a9.06,9.06,0,0,0-2.84.42,6.29,6.29,0,0,0-3.66,3.11,4.68,4.68,0,0,0-.47,2.06,3.44,3.44,0,0,0,.24,1.29,3.52,3.52,0,0,0,.73,1.13,4.11,4.11,0,0,0,1.17.91,5.19,5.19,0,0,0,1.5.5,15.58,15.58,0,0,0-1.63.8,5.51,5.51,0,0,0-1,.74,2.18,2.18,0,0,0-.45.65,1.64,1.64,0,0,0-.14.64,1.35,1.35,0,0,0,.17.63,2.16,2.16,0,0,0,.52.59c-.65.34-1.17.61-1.55.84s-.66.38-.8.48a3.52,3.52,0,0,0-.55.54,7.67,7.67,0,0,0-.46.62,2.1,2.1,0,0,0-.34.71,2.43,2.43,0,0,0-.1.68,2.08,2.08,0,0,0,.16.8,2.59,2.59,0,0,0,.5.77,2.67,2.67,0,0,0,.83.69,6.24,6.24,0,0,0,1.34.53,9.24,9.24,0,0,0,1.66.35,17.32,17.32,0,0,0,1.82.09,15.38,15.38,0,0,0,2.09-.14,11.89,11.89,0,0,0,1.87-.42,9.34,9.34,0,0,0,1.55-.71,4.27,4.27,0,0,0,1.15-.93,3.58,3.58,0,0,0,.69-1.11,3.33,3.33,0,0,0,.22-1.21,2.47,2.47,0,0,0-.19-1,2.68,2.68,0,0,0-.56-.88,3.83,3.83,0,0,0-1.23-.71,16.2,16.2,0,0,0-2-.64l-3-.66-.52-.13a1.43,1.43,0,0,1-.39-.16l-.32-.12-.19-.13a.87.87,0,0,1-.18-.26A.77.77,0,0,1,563,135l0-.13.05-.15.09-.13.13-.13a4.12,4.12,0,0,1,1-.62,11.4,11.4,0,0,1,1.43-.54,8.69,8.69,0,0,0,2.68-.5,6.43,6.43,0,0,0,2.06-1.22,6.51,6.51,0,0,0,1.29-1.72,4.27,4.27,0,0,0,.43-1.9,3.78,3.78,0,0,0-.06-.73,4.19,4.19,0,0,0-.22-.84Zm-13.29,11.95a5.83,5.83,0,0,1,1.07-.64l3.12.75c.79.19,1.34.32,1.65.38a7.36,7.36,0,0,1,1.39.39,3.15,3.15,0,0,1,.84.49,1.89,1.89,0,0,1,.43.53,1.39,1.39,0,0,1,.14.6,1.71,1.71,0,0,1-.38,1.08,2.78,2.78,0,0,1-1.16.83,7,7,0,0,1-1.73.57,10.1,10.1,0,0,1-2,.19,9.35,9.35,0,0,1-2.23-.24,4.59,4.59,0,0,1-1.63-.7,1.92,1.92,0,0,1-.91-1.67,1.7,1.7,0,0,1,.05-.44c0-.14.06-.29.1-.44s.13-.29.21-.44a2.54,2.54,0,0,1,.27-.43,4.44,4.44,0,0,1,.81-.81m8.42-11.13v0a4.31,4.31,0,0,1-.08.68q-.07.42-.24,1a5.24,5.24,0,0,1-.34,1.1c-.15.33-.31.63-.47.91a3.41,3.41,0,0,1-.58.67,5.39,5.39,0,0,1-.71.55,3,3,0,0,1-.77.33,2.71,2.71,0,0,1-.8.11,2.29,2.29,0,0,1-.94-.19,2.55,2.55,0,0,1-.82-.56,2.63,2.63,0,0,1-.53-.86,2.94,2.94,0,0,1-.19-1.09,5.93,5.93,0,0,1,.28-1.83,7.41,7.41,0,0,1,.85-1.78,3.9,3.9,0,0,1,1.29-1.3,3,3,0,0,1,1.57-.43,2.8,2.8,0,0,1,1,.18,1.93,1.93,0,0,1,.77.51,2.29,2.29,0,0,1,.52.83,3.41,3.41,0,0,1,.17,1.09" transform="translate(-3.09 -2.27)"/><path class="cls-3" d="M279.1,136.82a1.43,1.43,0,0,0,1.43,1.53,1.65,1.65,0,0,0,1.66-1.71,1.43,1.43,0,0,0-1.45-1.56,1.65,1.65,0,0,0-1.64,1.74" transform="translate(-3.09 -2.27)"/><path class="cls-3" d="M575.6,136.82a1.43,1.43,0,0,0,1.43,1.53,1.65,1.65,0,0,0,1.66-1.71,1.43,1.43,0,0,0-1.45-1.56,1.66,1.66,0,0,0-1.64,1.74" transform="translate(-3.09 -2.27)"/><path class="cls-3" d="M335.54,28.64,313.86,66.33h18.95ZM3.09,104,6.7,93.51,281,93.69l44.13-73.77,26.63,0-2.91,73.75h8.27l-3.61,10.49-23.62,0,2-26.85-24.22,0-15.36,26.85Z" transform="translate(-3.09 -2.27)"/><polygon class="cls-3" points="368.37 91.42 359.79 91.42 356.48 101.92 389.12 101.94 392.44 91.44 384.16 91.43 407.38 17.7 383.01 17.68 379.7 28.18 388.27 28.19 368.37 91.42"/><path class="cls-3" d="M423.36,80l36.41,0,5.88-18.66a16.38,16.38,0,0,0,.9-4.75q0-7.84-14.88-7.86h-15.8q-11.43,0-16.7,4.52-4.21,3.57-6.63,11.42l-7.38,24a25.07,25.07,0,0,0-1.36,6.91q0,8.92,13.83,8.94h17.15q17.14,0,21.07-12L458,86.12H443.07l-2.57,8H419Zm6.49-20.88h21.51l-3.62,11.7-21.51,0Z" transform="translate(-3.09 -2.27)"/><path class="cls-3" d="M511.37,71.24h14.75l2.71-8.64a20.49,20.49,0,0,0,1.06-5.87q0-7.92-15-7.94l-34,0-3.32,10.5h8.28L475.1,93.77h-8.42l-3.32,10.5,32.2,0,3.31-10.5h-8.12l10.7-34.48h13.69Z" transform="translate(-3.09 -2.27)"/><path class="cls-3" d="M566.76,32h-16l-5.42,16.83H537l-3.31,10.5h8.42l-9.65,31a21.17,21.17,0,0,0-1.21,5.86q0,8.14,13.54,8.15h10.37l3.32-10.5H547.31l10.85-34.48H569.3l3.31-10.5H561.48Z" transform="translate(-3.09 -2.27)"/><path class="cls-3" d="M90,2.29l-26.63,0L19.19,76.08H12.61L9,86.49H30.47L45.83,59.66l24.22,0-2,26.85h24l3.25-10.46H87ZM73.69,11,71,48.7H52Z" transform="translate(-3.09 -2.27)"/><path class="cls-3" d="M145.26,76.08l-22.87,0,14.17-45H112.19l-3.31,10.49h8.42l-8.74,27.75a29.18,29.18,0,0,0-1.67,7.9,8.19,8.19,0,0,0,4.51,7.42q3.31,1.92,12.79,1.92l42.27,0,3.32-10.5h-8.73l14.17-45-24.37,0-3.31,10.5h8.57Z" transform="translate(-3.09 -2.27)"/><path class="cls-3" d="M218.11,14.31h-16l-5.42,16.83h-8.43L185,41.62h8.43l-9.65,31a21.11,21.11,0,0,0-1.21,5.86q0,8.13,13.54,8.14h10.38l3.31-10.5H198.66l10.85-34.48h11.14L224,31.14H212.83Z" transform="translate(-3.09 -2.27)"/><path class="cls-3" d="M254.05,31.16q-10.53,0-15.65,3.33t-7.83,11.9l-8.44,27a18.64,18.64,0,0,0-1.06,5.11q0,5.59,6,7.39Q230.39,87,237.92,87H257q12.48,0,17.61-8a35.05,35.05,0,0,0,3.61-8.69l7.54-24.64a27.51,27.51,0,0,0,1.51-6.78q0-7.74-14.43-7.75l-18.81,0m-6,10.5,23.16,0L260.34,76.51H237Z" transform="translate(-3.09 -2.27)"/></g></g></g></g></g></svg>