<svg id="Layer_1" data-name="Layer 1" xmlns="http://www.w3.org/2000/svg" viewBox="0 0 512 512"><title>MASTER-</title><g id="Layer_2" data-name="Layer 2"><g id="Layer_1-2" data-name="Layer 1-2"><path d="M383.35,124.91l-50.5,16.49L351,196.87l50.5-16.24c16.73-5.47,27.31-20.82,21.75-37.9S400,119.5,383.35,124.91Z" style="fill:#1f8bd5"/><path d="M470.26,311.05l-68.9-70.38L368.68,251.3,396,335.22,332,356,251.4,108.28l124-40.41c55-17.91,98,8.32,113.2,54.14,14,43.06-4.92,74.71-25.2,90.36L512,258.09V86.77A87,87,0,0,0,425.38,0H86.91A87,87,0,0,0,.14,86.77V190.13l40-12.95,30.12,92.48,102.86-33.42-30.22-92.58,64-20.62,80.72,247.52-64,20.81-32.34-99.51L88.39,325.37l32.43,99.52-64,20.82L.14,271.43V425.24a87,87,0,0,0,86.77,86.62H425.38A87,87,0,0,0,512,425.24v-128Z" style="fill:#1f8bd5"/></g></g></svg>