<svg xmlns="http://www.w3.org/2000/svg" viewBox="0 0 614.73 104"><defs><style>.cls-1{fill:#2c8aca;}.cls-2{fill:#192851;}</style></defs><title>logo-icon-pando-hr</title><g id="Layer_2" data-name="Layer 2"><g id="Layer_1-2" data-name="Layer 1"><g id="Layer_2-2" data-name="Layer 2"><g id="Layer_1-2-2" data-name="Layer 1-2"><path class="cls-1" d="M77.86,25.38,67.6,28.73,71.28,40l10.26-3.3c3.4-1.11,5.55-4.23,4.42-7.7S81.25,24.28,77.86,25.38Z"/><path class="cls-1" d="M95.52,63.2l-14-14.3-6.64,2.16,5.55,17-13,4.23L51.05,22l25.2-8.21c11.17-3.64,19.92,1.69,23,11,2.85,8.75-1,15.18-5.12,18.36L104,52.44V17.63A17.68,17.68,0,0,0,86.4,0H17.63A17.68,17.68,0,0,0,0,17.63v21L8.12,36l6.12,18.79L35.14,48,29,29.19,42,25,58.4,75.29l-13,4.23L38.83,59.3l-20.9,6.81,6.59,20.22-13,4.23L0,55.15V86.4A17.68,17.68,0,0,0,17.63,104H86.4A17.68,17.68,0,0,0,104,86.4v-26Z"/></g></g><path class="cls-2" d="M125.69,17.79H158c15,0,23.23,10.16,23.23,22.29S173,62.17,158,62.17H140.42V87H125.69Zm30.38,12.65H140.42V49.52h15.65c5.81,0,10.16-3.73,10.16-9.54S161.88,30.44,156.07,30.44Z"/><path class="cls-2" d="M226.78,75h-30.9L191.53,87H175.35L202.1,17.79h18.46L247.21,87H231.13Zm-27-12.76h22.92L211.33,30.55Z"/><path class="cls-2" d="M268.35,40.5V87H253.63V17.79h15.14l32,44.79V17.79h14.73V87H301.32Z"/><path class="cls-2" d="M329.21,17.79h27.27c21.67,0,36.7,13.79,36.7,34.63S378.15,87,356.48,87H329.21ZM356.48,74c13.68,0,21.67-9.85,21.67-21.57,0-12.23-7.47-21.67-21.67-21.67H343.93V74Z"/><path class="cls-2" d="M436.41,16.65c20.94,0,36.19,14.93,36.19,35.77s-15.25,35.77-36.19,35.77-36.08-14.93-36.08-35.77S415.57,16.65,436.41,16.65Zm0,13.07c-12.75,0-20.94,9.74-20.94,22.7s8.19,22.71,20.94,22.71,21-9.85,21-22.71S449.16,29.72,436.41,29.72Z"/><path class="cls-1" d="M530.34,57.92H497.68V87H483V17.79h14.72V45h32.66V17.79h14.83V87H530.34Z"/><path class="cls-1" d="M584.25,62.17H573.47V87H558.75V17.79h32.34c14.42,0,23.23,9.44,23.23,22.29,0,12.24-7.67,18.77-15.14,20.53L614.73,87h-16.9Zm4.67-31.73H573.47V49.52h15.45c5.91,0,10.37-3.73,10.37-9.54S594.83,30.44,588.92,30.44Z"/></g></g></svg>