<svg id="Layer_1" data-name="Layer 1" xmlns="http://www.w3.org/2000/svg" viewBox="0 0 60 60"><defs><style>.cls-1{fill:#2c8aca;}</style></defs><title>icons-blue</title><path class="cls-1" d="M25.88,29H14.38a1.09,1.09,0,1,1,0-2.18h11.5a1.09,1.09,0,0,1,0,2.18Z"/><path class="cls-1" d="M36.5,34.49H14.38a1.1,1.1,0,1,1,0-2.19H36.5a1.1,1.1,0,1,1,0,2.19Z"/><path class="cls-1" d="M36.5,39.76H14.38a1.09,1.09,0,1,1,0-2.18H36.5a1.09,1.09,0,1,1,0,2.18Z"/><path class="cls-1" d="M40.67,20.62h-30a3.22,3.22,0,0,0-3.19,3.24V42.69a3.22,3.22,0,0,0,3.19,3.24h4v4.62a1.54,1.54,0,0,0,2.56,1.17l6.54-5.79H40.67a3.22,3.22,0,0,0,3.19-3.24V23.86A3.22,3.22,0,0,0,40.67,20.62Zm1,22.07a1,1,0,0,1-1,1.05H23.2l-2.68,2.19-.06,0-3.55,3.14V43.74H10.7a1,1,0,0,1-1-1.05V23.86a1,1,0,0,1,1-1.05h30a1,1,0,0,1,1,1.05Z"/><path class="cls-1" d="M47.78,11.39H17.34a3.1,3.1,0,0,0-3.24,2.93v7.91h2.23V14.32a1,1,0,0,1,1-1H47.78a1,1,0,0,1,1,1v17a1,1,0,0,1-1,1H42.55c0,.16,0,.33,0,.49v1.49h5.2A3.1,3.1,0,0,0,51,31.36v-17A3.1,3.1,0,0,0,47.78,11.39Z"/></svg>