<svg xmlns="http://www.w3.org/2000/svg" viewBox="0 0 104.03 104.03"><g id="Layer_2" data-name="Layer 2"><defs><style>.cls-1{fill:#1f8bd5;}</style></defs><g id="Layer_1-2" data-name="Layer 1"><path class="cls-1" d="M77.86,25.38,67.6,28.73,71.28,40,81.54,36.7c3.4-1.11,5.55-4.23,4.42-7.7S81.25,24.28,77.86,25.38Z"></path><path class="cls-1" d="M95.52,63.2l-14-14.3-6.64,2.16,5.55,17.05-13,4.23L51.05,22l25.2-8.21c11.17-3.64,19.92,1.69,23,11,2.85,8.75-1,15.18-5.12,18.36L104,52.44V17.63A17.68,17.68,0,0,0,86.4,0H17.63A17.68,17.68,0,0,0,0,17.63v21L8.12,36l6.12,18.79L35.14,48,29,29.19,42,25,58.4,75.29l-13,4.23L38.83,59.3l-20.9,6.81,6.59,20.22-13,4.23L0,55.15V86.4A17.68,17.68,0,0,0,17.63,104H86.4A17.68,17.68,0,0,0,104,86.4v-26Z"></path></g></g></svg>