<svg id="Layer_1" data-name="Layer 1" xmlns="http://www.w3.org/2000/svg" viewBox="0 0 60 60"><defs><style>.cls-1{fill:#fff;}</style></defs><title>icons_v2-white</title><path class="cls-1" d="M52,36.85a2.59,2.59,0,0,0,2.59-2.59V25.74A2.59,2.59,0,0,0,52,23.15H34.35a2.59,2.59,0,0,0-2.59,2.59V28.5H28.28V25.74a2.59,2.59,0,0,0-2.59-2.59H18.35v-3.3h7.34a2.59,2.59,0,0,0,2.59-2.59V8.73a2.59,2.59,0,0,0-2.59-2.58H8A2.59,2.59,0,0,0,5.43,8.73v8.53A2.59,2.59,0,0,0,8,19.85h7.33v3.3H8a2.59,2.59,0,0,0-2.59,2.59v8.52A2.59,2.59,0,0,0,8,36.85h7.33v3.3H8a2.59,2.59,0,0,0-2.59,2.59v8.53A2.59,2.59,0,0,0,8,53.85H25.69a2.59,2.59,0,0,0,2.59-2.58V42.74a2.59,2.59,0,0,0-2.59-2.59H18.35v-3.3h7.34a2.59,2.59,0,0,0,2.59-2.59V31.5h3.48v2.76a2.59,2.59,0,0,0,2.59,2.59h7.34v3.3H34.35a2.59,2.59,0,0,0-2.59,2.59v8.53a2.59,2.59,0,0,0,2.59,2.58H52a2.59,2.59,0,0,0,2.59-2.58V42.74A2.59,2.59,0,0,0,52,40.15H44.69v-3.3ZM9.32,18A1.87,1.87,0,0,1,7.46,16.1V9.87A1.87,1.87,0,0,1,9.32,8H24.37a1.87,1.87,0,0,1,1.86,1.86V16.1A1.87,1.87,0,0,1,24.37,18ZM24.37,42.13A1.86,1.86,0,0,1,26.23,44v6.22a1.86,1.86,0,0,1-1.86,1.86h-15a1.86,1.86,0,0,1-1.86-1.86V44a1.86,1.86,0,0,1,1.86-1.86Zm1.86-9A1.86,1.86,0,0,1,24.37,35h-15a1.86,1.86,0,0,1-1.86-1.86V26.89A1.86,1.86,0,0,1,9.32,25H24.37a1.86,1.86,0,0,1,1.86,1.86Zm24.55,9A1.86,1.86,0,0,1,52.64,44v6.22a1.86,1.86,0,0,1-1.86,1.86H35.73a1.86,1.86,0,0,1-1.86-1.86V44a1.86,1.86,0,0,1,1.86-1.86ZM35.73,35a1.86,1.86,0,0,1-1.86-1.86V26.89A1.86,1.86,0,0,1,35.73,25H50.78a1.86,1.86,0,0,1,1.86,1.86v6.22A1.86,1.86,0,0,1,50.78,35Z"/></svg>