<?xml version="1.0" encoding="utf-8"?>
<!-- Generator: Adobe Illustrator 21.1.0, SVG Export Plug-In . SVG Version: 6.00 Build 0)  -->
<svg version="1.1" id="Layer_1" xmlns="http://www.w3.org/2000/svg" xmlns:xlink="http://www.w3.org/1999/xlink" x="0px" y="0px"
	 width="25.2px" height="21.2px" viewBox="0 0 25.2 21.2" style="enable-background:new 0 0 25.2 21.2;" xml:space="preserve">
<style type="text/css">
	.st0{fill:#ffffff;}
</style>
<g id="Group_2085" transform="translate(1579 14379.578)">
	<g id="Group_2084" transform="translate(12 320.804)">
		<g id="pando_requests_icon" transform="translate(-1585 -15000)">
			<path id="Union_16" class="st0" d="M3.7,320.9c-0.2,0-0.3-0.2-0.3-0.5c0-0.3,0.1-0.5,0.3-0.5h6.6c0.2,0,0.3,0.2,0.3,0.5
				c0,0.3-0.1,0.5-0.3,0.5H3.7z M-3.9,320.5l-2-2c-0.1-0.1-0.1-0.3,0-0.4l0.3-0.3c0.1-0.1,0.3-0.1,0.4,0l1.5,1.5l3-3
				c0.1-0.1,0.3-0.1,0.4,0l0.3,0.3c0.1,0.1,0.1,0.3,0,0.4l-3.5,3.5c-0.1,0.1-0.1,0.1-0.2,0.1C-3.7,320.6-3.8,320.5-3.9,320.5
				L-3.9,320.5z M3.4,318.4c-0.3,0-0.6-0.2-0.6-0.6c0,0,0,0,0,0c0-0.3,0.2-0.6,0.6-0.6c0,0,0,0,0,0h15.2c0.3,0,0.6,0.2,0.6,0.6
				c0,0,0,0,0,0c0,0.3-0.3,0.6-0.6,0.6H3.4z M3.7,312.5c-0.2,0-0.3-0.2-0.3-0.5s0.1-0.5,0.3-0.5h6.6c0.2,0,0.3,0.2,0.3,0.5
				c0,0.3-0.1,0.5-0.3,0.5H3.7z M-3.9,312.1l-2-2c-0.1-0.1-0.1-0.3,0-0.4l0.3-0.3c0.1-0.1,0.3-0.1,0.4,0l1.5,1.5l3-3
				c0.1-0.1,0.3-0.1,0.4,0l0.3,0.3c0.1,0.1,0.1,0.3,0,0.4l-3.5,3.5c-0.1,0.1-0.1,0.1-0.2,0.1C-3.7,312.2-3.8,312.2-3.9,312.1
				L-3.9,312.1z M3.4,310.1c-0.3,0-0.6-0.2-0.6-0.6c0,0,0,0,0,0c0-0.3,0.2-0.6,0.6-0.6c0,0,0,0,0,0h15.2c0.3,0,0.6,0.2,0.6,0.6
				c0,0,0,0,0,0c0,0.3-0.3,0.6-0.6,0.6H3.4z M3.7,304.2c-0.2,0-0.3-0.2-0.3-0.5s0.1-0.5,0.3-0.5h6.6c0.2,0,0.3,0.2,0.3,0.5
				c0,0.3-0.1,0.5-0.3,0.5H3.7z M-3.9,303.9l-2-2c-0.1-0.1-0.1-0.3,0-0.4l0.3-0.3c0.1-0.1,0.3-0.1,0.4,0l1.5,1.5l3-3
				c0.1-0.1,0.3-0.1,0.4,0L0,300c0.1,0.1,0.1,0.3,0,0.4l-3.5,3.5c-0.1,0.1-0.1,0.1-0.2,0.1C-3.7,304-3.8,303.9-3.9,303.9L-3.9,303.9
				z M3.4,301.8c-0.3,0-0.6-0.2-0.6-0.6c0,0,0,0,0,0c0-0.3,0.2-0.6,0.6-0.6c0,0,0,0,0,0h15.2c0.3,0,0.6,0.2,0.6,0.6c0,0,0,0,0,0
				c0,0.3-0.3,0.6-0.6,0.6H3.4z"/>
		</g>
	</g>
</g>
</svg>
