<svg id="Layer_1" data-name="Layer 1" xmlns="http://www.w3.org/2000/svg" viewBox="0 0 60 60"><defs><style>.cls-1{fill:#fff;}</style></defs><title>icons_v2-white</title><rect class="cls-1" x="7.22" y="15.36" width="13.79" height="4.4" rx="0.78" ry="0.78"/><rect class="cls-1" x="23.99" y="15.33" width="13.79" height="4.4" rx="0.78" ry="0.78"/><rect class="cls-1" x="7.22" y="34.29" width="13.79" height="4.4" rx="0.78" ry="0.78"/><rect class="cls-1" x="24.1" y="34.25" width="13.79" height="4.4" rx="0.78" ry="0.78"/><rect class="cls-1" x="7.22" y="40.22" width="13.79" height="4.4" rx="0.78" ry="0.78"/><rect class="cls-1" x="24.1" y="40.06" width="13.79" height="4.4" rx="0.78" ry="0.78"/><rect class="cls-1" x="23.95" y="21.46" width="13.79" height="4.4" rx="0.78" ry="0.78"/><rect class="cls-1" x="40.41" y="21.59" width="13.79" height="4.4" rx="0.78" ry="0.78"/><rect class="cls-1" x="23.95" y="27.79" width="13.79" height="4.4" rx="0.78" ry="0.78"/><rect class="cls-1" x="40.41" y="27.93" width="13.79" height="4.4" rx="0.78" ry="0.78"/></svg>