<svg id="Layer_1" data-name="Layer 1" xmlns="http://www.w3.org/2000/svg" viewBox="0 0 60 60"><defs><style>.cls-1{fill:#2c8aca;}</style></defs><title>icons-blue</title><path class="cls-1" d="M48.12,34.15l-1.88-.32A10,10,0,0,0,45.49,32l1.11-1.55a1.67,1.67,0,0,0-.18-2.13l-1.67-1.67a1.65,1.65,0,0,0-1.17-.48,1.57,1.57,0,0,0-.95.31l-1.56,1.1a9.91,9.91,0,0,0-1.88-.77L38.87,25a1.64,1.64,0,0,0-1.63-1.38H34.89A1.64,1.64,0,0,0,33.26,25l-.33,1.9a10.25,10.25,0,0,0-1.81.77l-1.54-1.11a1.64,1.64,0,0,0-1-.31,1.66,1.66,0,0,0-1.17.49l-1.67,1.66a1.65,1.65,0,0,0-.18,2.13l1.12,1.57A10.31,10.31,0,0,0,26,33.89l-1.86.31a1.65,1.65,0,0,0-1.38,1.63v2.36a1.65,1.65,0,0,0,1.38,1.63l1.9.32A10,10,0,0,0,26.79,42l-1.11,1.53a1.67,1.67,0,0,0,.18,2.13l1.67,1.66a1.63,1.63,0,0,0,2.12.18l1.57-1.11a11.32,11.32,0,0,0,1.77.72L33.3,49a1.65,1.65,0,0,0,1.63,1.38h2.36A1.64,1.64,0,0,0,38.92,49l.32-1.88a10.72,10.72,0,0,0,1.82-.75l1.55,1.1a1.66,1.66,0,0,0,2.13-.17l1.67-1.67a1.65,1.65,0,0,0,.17-2.13l-1.1-1.55a11.44,11.44,0,0,0,.75-1.82l1.88-.32a1.64,1.64,0,0,0,1.38-1.63V35.78a1.63,1.63,0,0,0-1.37-1.63Zm-.13,4a.15.15,0,0,1-.12.15l-2.35.39a.75.75,0,0,0-.6.55,9,9,0,0,1-1,2.34.76.76,0,0,0,0,.82l1.38,1.95a.15.15,0,0,1,0,.19l-1.66,1.66a.15.15,0,0,1-.11,0,.11.11,0,0,1-.08,0l-1.94-1.38a.76.76,0,0,0-.82,0,9,9,0,0,1-2.34,1,.75.75,0,0,0-.56.6l-.39,2.35a.15.15,0,0,1-.15.12H34.94a.15.15,0,0,1-.15-.12l-.39-2.35a.75.75,0,0,0-.55-.6,9.52,9.52,0,0,1-2.29-.94.75.75,0,0,0-.38-.1.72.72,0,0,0-.44.14l-1.95,1.39a.16.16,0,0,1-.09,0,.15.15,0,0,1-.1-.05l-1.67-1.66a.17.17,0,0,1,0-.19l1.38-1.93a.78.78,0,0,0,0-.83,8.86,8.86,0,0,1-1-2.33.76.76,0,0,0-.6-.56l-2.37-.4a.14.14,0,0,1-.12-.14V35.83a.14.14,0,0,1,.12-.14l2.33-.39a.75.75,0,0,0,.61-.56,9.08,9.08,0,0,1,1-2.35.74.74,0,0,0,0-.81l-1.39-2a.15.15,0,0,1,0-.19l1.67-1.66a.15.15,0,0,1,.1-.05.12.12,0,0,1,.09,0l1.93,1.37a.74.74,0,0,0,.82,0,9.1,9.1,0,0,1,2.34-1,.75.75,0,0,0,.55-.6l.4-2.36a.16.16,0,0,1,.15-.13h2.35a.15.15,0,0,1,.15.13l.39,2.33a.78.78,0,0,0,.56.61,8.92,8.92,0,0,1,2.39,1,.78.78,0,0,0,.83,0l1.92-1.39a.16.16,0,0,1,.09,0,.15.15,0,0,1,.1.05l1.67,1.66a.17.17,0,0,1,0,.19L44,31.52a.74.74,0,0,0,0,.82,8.71,8.71,0,0,1,1,2.34.78.78,0,0,0,.61.56l2.34.39a.15.15,0,0,1,.13.15v2.35Zm0,0"/><path class="cls-1" d="M36.12,31.18A5.77,5.77,0,1,0,41.89,37a5.77,5.77,0,0,0-5.77-5.77Zm0,10A4.27,4.27,0,1,1,40.38,37a4.28,4.28,0,0,1-4.26,4.27Zm0,0"/><rect class="cls-1" x="6.94" y="11.42" width="13.79" height="4.4" rx="0.78" ry="0.78"/><rect class="cls-1" x="23.71" y="11.39" width="13.79" height="4.4" rx="0.78" ry="0.78"/><rect class="cls-1" x="6.94" y="30.34" width="13.79" height="4.4" rx="0.78" ry="0.78"/><rect class="cls-1" x="6.94" y="36.28" width="13.79" height="4.4" rx="0.78" ry="0.78"/><rect class="cls-1" x="23.67" y="17.52" width="13.79" height="4.4" rx="0.78" ry="0.78"/><rect class="cls-1" x="40.13" y="17.65" width="13.79" height="4.4" rx="0.78" ry="0.78"/></svg>