<svg id="Layer_1" data-name="Layer 1" xmlns="http://www.w3.org/2000/svg" viewBox="0 0 60 60"><defs><style>.cls-1{fill:#2c8aca;}</style></defs><title>icons-blue</title><path class="cls-1" d="M49.75,29.68a.75.75,0,0,0,0-.42L46.29,15.78a2.56,2.56,0,0,0-2.44-1.89H16.15a2.48,2.48,0,0,0-2.44,1.89L10.25,29.26a.75.75,0,0,0,0,.42,4.25,4.25,0,0,0-.46,1.89V41.68A4.22,4.22,0,0,0,14,45.89H46a4.22,4.22,0,0,0,4.21-4.21V31.57a4.25,4.25,0,0,0-.46-1.89ZM15.31,16.21a.81.81,0,0,1,.84-.64h27.7a.89.89,0,0,1,.84.64l3,11.49A4.22,4.22,0,0,0,46,27.36H38.25a2.53,2.53,0,0,0-2.48,2,5.89,5.89,0,0,1-11.54,0,2.53,2.53,0,0,0-2.48-2H14a4.22,4.22,0,0,0-1.64.34ZM48.53,41.68A2.54,2.54,0,0,1,46,44.21H14a2.54,2.54,0,0,1-2.53-2.53V31.57A2.53,2.53,0,0,1,14,29.05h7.75a.78.78,0,0,1,.8.67,7.61,7.61,0,0,0,14.9,0,.81.81,0,0,1,.8-.67H46a2.53,2.53,0,0,1,2.53,2.52Zm0,0"/></svg>