<svg id="Layer_1" data-name="Layer 1" xmlns="http://www.w3.org/2000/svg" viewBox="0 0 60 60"><defs><style>.cls-1{fill:#fff;}</style></defs><title>icons_v2-white</title><path class="cls-1" d="M14.23,32.94a6.18,6.18,0,1,0-6.18-6.18A6.18,6.18,0,0,0,14.23,32.94Zm0-10.36a4.18,4.18,0,1,1-4.18,4.18A4.19,4.19,0,0,1,14.23,22.58Z"/><path class="cls-1" d="M26.83,46a1.23,1.23,0,0,0,0-.2A12.69,12.69,0,0,0,14.23,34,12.69,12.69,0,0,0,1.63,46a.87.87,0,0,0,1.74,0h0a10.89,10.89,0,0,1,21.72,0h0a.87.87,0,0,0,1.74,0h0Z"/><path class="cls-1" d="M41.46,32.71a6.18,6.18,0,1,0-6.18-6.18A6.18,6.18,0,0,0,41.46,32.71Zm0-10.36a4.18,4.18,0,1,1-4.18,4.18A4.19,4.19,0,0,1,41.46,22.35Z"/><path class="cls-1" d="M54.06,45.73a1.36,1.36,0,0,0,0-.2,12.61,12.61,0,0,0-25.18.22.87.87,0,0,0,1.74,0h0a10.89,10.89,0,0,1,21.72,0h0a.87.87,0,0,0,1.74,0h0Z"/><path class="cls-1" d="M28.86,20.22a5.32,5.32,0,1,0-5.32-5.32A5.33,5.33,0,0,0,28.86,20.22Zm0-8.92a3.6,3.6,0,1,1-3.6,3.6A3.6,3.6,0,0,1,28.86,11.3Z"/><path class="cls-1" d="M39.7,31.42a.5.5,0,0,0,0-.17A10.85,10.85,0,0,0,18,31.44a.75.75,0,0,0,1.5,0h0a9.37,9.37,0,0,1,18.69,0h0a.74.74,0,0,0,.74.74.75.75,0,0,0,.75-.74h0Z"/></svg>