<svg id="Layer_1" data-name="Layer 1" xmlns="http://www.w3.org/2000/svg" viewBox="0 0 60 60"><defs><style>.cls-1{fill:#fff;}</style></defs><title>icons_v2-white</title><path class="cls-1" d="M50.48,15.35H47l-.43,1.34H44.14l3.2-8.86h2.74l3.21,8.86H50.91Zm-2.95-1.93H49.9L48.71,9.83Z"/><path class="cls-1" d="M44.91,26H50a2.38,2.38,0,0,1,2.65,2.31,2,2,0,0,1-1.55,2.07,2.17,2.17,0,0,1,1.72,2.21A2.4,2.4,0,0,1,50.2,35H44.91Zm4.59,3.5a.76.76,0,0,0,.8-.79.75.75,0,0,0-.8-.77H47.24v1.56Zm.09,3.61a.81.81,0,0,0,.89-.83.84.84,0,0,0-.89-.85H47.24v1.68Z"/><path class="cls-1" d="M44.44,47.24a4.6,4.6,0,0,1,4.83-4.68,4.21,4.21,0,0,1,4,2.43l-2,.95a2.2,2.2,0,0,0-2-1.32,2.63,2.63,0,0,0,0,5.24,2.2,2.2,0,0,0,2-1.32l2,1a4.25,4.25,0,0,1-4,2.43A4.61,4.61,0,0,1,44.44,47.24Z"/><path class="cls-1" d="M24.89,28.92a8.62,8.62,0,1,0-8.62-8.61A8.63,8.63,0,0,0,24.89,28.92ZM25,14.22a6,6,0,1,1-6,6A6,6,0,0,1,25,14.22Z"/><path class="cls-1" d="M42.46,47.08a1.18,1.18,0,0,0,0-.27,17.59,17.59,0,0,0-35.12.3,1.22,1.22,0,0,0,2.43,0h0a15.19,15.19,0,0,1,30.29,0h0a1.22,1.22,0,0,0,2.43,0h0v0Z"/></svg>