<svg id="Layer_1" data-name="Layer 1" xmlns="http://www.w3.org/2000/svg" viewBox="0 0 60 60"><defs><style>.cls-1{fill:#2c8aca;}</style></defs><title>icons-blue</title><path class="cls-1" d="M41.65,50.24a2.1,2.1,0,0,1-.94-.23l-10.64-5.6L19.42,50a2,2,0,0,1-2.93-2.13l2-11.86L9.91,27.63A2,2,0,0,1,11,24.18l11.9-1.73,5.33-10.78a2,2,0,0,1,1.81-1.13,2,2,0,0,1,1.81,1.13h0L37.2,22.45l11.9,1.73a2,2,0,0,1,1.63,1.38,2,2,0,0,1-.51,2.07L41.61,36l2,11.86a2,2,0,0,1-.8,2A2,2,0,0,1,41.65,50.24ZM30.07,41.87a2.1,2.1,0,0,1,.94.23l10,5.28L39.12,36.2a2,2,0,0,1,.58-1.78l8.12-7.92L36.6,24.88a2,2,0,0,1-1.52-1.11l-5-10.16-5,10.16a2,2,0,0,1-1.52,1.11L12.31,26.5l8.12,7.92A2,2,0,0,1,21,36.2L19.09,47.38l10-5.28A2,2,0,0,1,30.07,41.87Zm-.42-29.1Z"/></svg>