<?xml version="1.0" encoding="utf-8"?>
<!-- Generator: Adobe Illustrator 21.1.0, SVG Export Plug-In . SVG Version: 6.00 Build 0)  -->
<svg version="1.1" id="Layer_1" xmlns="http://www.w3.org/2000/svg" xmlns:xlink="http://www.w3.org/1999/xlink" x="0px" y="0px"
	 width="512px" height="512px" viewBox="0 0 512 512" style="enable-background:new 0 0 512 512;" xml:space="preserve">
<style type="text/css">
	.st0{fill:none;}
	.st1{fill:#0089D1;}
	.st2{fill:#2C8ACA;}
	.st3{fill:#FFFFFF;}
</style>
<g>
	<path class="st0" d="M358.4,137c-7.2,0-13-6.3-13-14.1V25.5H64.8v468h384.3V137c-0.1,0-0.2,0-0.3,0H358.4z"/>
	<path class="st1" d="M460.2,118.5L365.7,15.3c-1.9-2-4.2-3.5-6.8-4.2l-0.5-0.5c-0.5,0-0.9,0-1.4,0.1c-0.8-0.1-1.6-0.2-2.4-0.2H64.8
		c-8.3,0-15,6.7-15,15v468c0,8.3,6.7,15,15,15h384.3c8.3,0,15-6.7,15-15V128.6C464.2,124.9,462.8,121.3,460.2,118.5z M449.2,493.5
		H64.8v-468h280.5v97.4c0,7.8,5.9,14.1,13,14.1h90.5c0.1,0,0.2,0,0.3,0V493.5z"/>
</g>
<path class="st2" d="M332.8,418.6h34.3l-2.9,38.5h34.3l5.7-20h-11.4l4.3-101.3h-38.5l-61.8,101.6l-54.1-0.3c0,0-6.2,13.8-8.2,20h77
	L332.8,418.6z M372.8,348.7l-4.3,54.2h-27.1L372.8,348.7z"/>
<g>
	<g>
		<path class="st3" d="M100.5,161.2c-2.2,0-4-1.8-4-4v-26.1c0-2.2,1.8-4,4-4h26.1c2.2,0,4,1.8,4,4v26.1c0,2.2-1.8,4-4,4H100.5z"/>
		<path class="st1" d="M126.6,131.1v26.1h-26.1v-26.1H126.6 M126.6,123.1h-26.1c-4.4,0-8,3.6-8,8v26.1c0,4.4,3.6,8,8,8h26.1
			c4.4,0,8-3.6,8-8v-26.1C134.6,126.7,131,123.1,126.6,123.1L126.6,123.1z"/>
	</g>
	<path class="st1" d="M311,155.1H170.6c-4.8,0-8.7-3.9-8.7-8.7v-3.7c0-4.8,3.9-8.7,8.7-8.7H311c4.8,0,8.7,3.9,8.7,8.7v3.7
		C319.6,151.2,315.7,155.1,311,155.1z"/>
</g>
<g>
	<g>
		<path class="st3" d="M100.5,233.3c-2.2,0-4-1.8-4-4v-26.1c0-2.2,1.8-4,4-4h26.1c2.2,0,4,1.8,4,4v26.1c0,2.2-1.8,4-4,4H100.5z"/>
		<path class="st1" d="M126.6,203.2v26.1h-26.1v-26.1H126.6 M126.6,195.2h-26.1c-4.4,0-8,3.6-8,8v26.1c0,4.4,3.6,8,8,8h26.1
			c4.4,0,8-3.6,8-8v-26.1C134.6,198.8,131,195.2,126.6,195.2L126.6,195.2z"/>
	</g>
	<path class="st1" d="M311,227.2H170.6c-4.8,0-8.7-3.9-8.7-8.7v-3.7c0-4.8,3.9-8.7,8.7-8.7H311c4.8,0,8.7,3.9,8.7,8.7v3.7
		C319.6,223.3,315.7,227.2,311,227.2z"/>
</g>
<g>
	<g>
		<path class="st3" d="M100.5,303.3c-2.2,0-4-1.8-4-4v-26.1c0-2.2,1.8-4,4-4h26.1c2.2,0,4,1.8,4,4v26.1c0,2.2-1.8,4-4,4H100.5z"/>
		<path class="st1" d="M126.6,273.2v26.1h-26.1v-26.1H126.6 M126.6,265.2h-26.1c-4.4,0-8,3.6-8,8v26.1c0,4.4,3.6,8,8,8h26.1
			c4.4,0,8-3.6,8-8v-26.1C134.6,268.7,131,265.2,126.6,265.2L126.6,265.2z"/>
	</g>
	<path class="st1" d="M311,297.2H170.6c-4.8,0-8.7-3.9-8.7-8.7v-3.7c0-4.8,3.9-8.7,8.7-8.7H311c4.8,0,8.7,3.9,8.7,8.7v3.7
		C319.6,293.3,315.7,297.2,311,297.2z"/>
</g>
<g>
	<g>
		<path class="st3" d="M100.5,376.4c-2.2,0-4-1.8-4-4v-26.1c0-2.2,1.8-4,4-4h26.1c2.2,0,4,1.8,4,4v26.1c0,2.2-1.8,4-4,4H100.5z"/>
		<path class="st1" d="M126.6,346.3v26.1h-26.1v-26.1H126.6 M126.6,338.3h-26.1c-4.4,0-8,3.6-8,8v26.1c0,4.4,3.6,8,8,8h26.1
			c4.4,0,8-3.6,8-8v-26.1C134.6,341.9,131,338.3,126.6,338.3L126.6,338.3z"/>
	</g>
	<path class="st1" d="M279.2,370.3H170.6c-4.8,0-8.7-3.9-8.7-8.7v-3.7c0-4.8,3.9-8.7,8.7-8.7h108.7c4.8,0,8.7,3.9,8.7,8.7v3.7
		C287.9,366.4,284,370.3,279.2,370.3z"/>
</g>
</svg>
